<mxfile host="app.diagrams.net" agent="Mozilla/5.0 (X11; Linux x86_64) AppleWebKit/537.36 (KHTML, like Gecko) Chrome/138.0.0.0 Safari/537.36" version="28.0.7" pages="6">
  <diagram name="Visão geral" id="confjWSqUAO5rBkNEaax">
    <mxGraphModel dx="2439" dy="479" grid="0" gridSize="10" guides="1" tooltips="1" connect="1" arrows="1" fold="1" page="0" pageScale="1" pageWidth="827" pageHeight="1169" math="0" shadow="0">
      <root>
        <mxCell id="4PjAWpCSvwtjcIhG53Dn-0" />
        <mxCell id="4PjAWpCSvwtjcIhG53Dn-1" parent="4PjAWpCSvwtjcIhG53Dn-0" />
        <mxCell id="cHlt6XvXjapsiLMhFMaN-4" value="" style="rounded=1;whiteSpace=wrap;html=1;fillColor=#E6E6E6;arcSize=6;" vertex="1" parent="4PjAWpCSvwtjcIhG53Dn-1">
          <mxGeometry x="-756" y="850" width="142" height="96" as="geometry" />
        </mxCell>
        <mxCell id="4PjAWpCSvwtjcIhG53Dn-2" style="edgeStyle=orthogonalEdgeStyle;rounded=0;orthogonalLoop=1;jettySize=auto;html=1;entryX=0.5;entryY=0;entryDx=0;entryDy=0;entryPerimeter=0;curved=1;" parent="4PjAWpCSvwtjcIhG53Dn-1" source="4PjAWpCSvwtjcIhG53Dn-3" target="4PjAWpCSvwtjcIhG53Dn-6" edge="1">
          <mxGeometry relative="1" as="geometry" />
        </mxCell>
        <object placeholders="1" c4Name="DEV/QA" c4Type="Person" c4Description="Responsável pela homologação dos cenarios de testes" label="&lt;font style=&quot;font-size: 16px&quot;&gt;&lt;b&gt;%c4Name%&lt;/b&gt;&lt;/font&gt;&lt;div&gt;[%c4Type%]&lt;/div&gt;&lt;br&gt;&lt;div&gt;&lt;font style=&quot;font-size: 13px&quot;&gt;&lt;font&gt;%c4Description%&lt;/font&gt;&lt;/div&gt;" id="4PjAWpCSvwtjcIhG53Dn-3">
          <mxCell style="html=1;fontSize=11;dashed=0;whiteSpace=wrap;fillColor=#083F75;strokeColor=#06315C;fontColor=#ffffff;shape=mxgraph.c4.person2;align=center;metaEdit=1;points=[[0.5,0,0],[1,0.5,0],[1,0.75,0],[0.75,1,0],[0.5,1,0],[0.25,1,0],[0,0.75,0],[0,0.5,0]];resizable=0;" parent="4PjAWpCSvwtjcIhG53Dn-1" vertex="1">
            <mxGeometry x="-756" y="480" width="200" height="180" as="geometry" />
          </mxCell>
        </object>
        <object placeholders="1" c4Name="Engine validator" c4Type="SystemScopeBoundary" c4Application="Validador de logs da execução de cenários de testes do Motor de conformidade" label="&lt;font style=&quot;font-size: 16px&quot;&gt;&lt;b&gt;&lt;div style=&quot;text-align: left&quot;&gt;%c4Name%&lt;/div&gt;&lt;/b&gt;&lt;/font&gt;&lt;div style=&quot;text-align: left&quot;&gt;[%c4Application%]&lt;/div&gt;" id="4PjAWpCSvwtjcIhG53Dn-4">
          <mxCell style="rounded=1;fontSize=11;whiteSpace=wrap;html=1;dashed=1;arcSize=20;fillColor=none;strokeColor=#666666;fontColor=#333333;labelBackgroundColor=none;align=left;verticalAlign=bottom;labelBorderColor=none;spacingTop=0;spacing=10;dashPattern=8 4;metaEdit=1;rotatable=0;perimeter=rectanglePerimeter;noLabel=0;labelPadding=0;allowArrows=0;connectable=0;expand=0;recursiveResize=0;editable=1;pointerEvents=0;absoluteArcSize=1;points=[[0.25,0,0],[0.5,0,0],[0.75,0,0],[1,0.25,0],[1,0.5,0],[1,0.75,0],[0.75,1,0],[0.5,1,0],[0.25,1,0],[0,0.75,0],[0,0.5,0],[0,0.25,0]];" parent="4PjAWpCSvwtjcIhG53Dn-1" vertex="1">
            <mxGeometry x="-534" y="457" width="953" height="344" as="geometry" />
          </mxCell>
        </object>
        <object placeholders="1" c4Name="Recepção de arquivos" c4Type="Container" c4Description="Recepciona arquivos de log e arquivo da especificação da API" label="&lt;font style=&quot;font-size: 16px&quot;&gt;&lt;b&gt;%c4Name%&lt;/b&gt;&lt;/font&gt;&lt;div&gt;&lt;/div&gt;&lt;br&gt;&lt;div&gt;&lt;font style=&quot;font-size: 14px&quot;&gt;&lt;font &gt;%c4Description%&lt;/font&gt;&lt;/div&gt;" id="4PjAWpCSvwtjcIhG53Dn-6">
          <mxCell style="rounded=1;whiteSpace=wrap;html=1;fontSize=11;labelBackgroundColor=none;fillColor=#23A2D9;fontColor=#ffffff;align=center;arcSize=10;strokeColor=#0E7DAD;metaEdit=1;resizable=0;points=[[0.25,0,0],[0.5,0,0],[0.75,0,0],[1,0.25,0],[1,0.5,0],[1,0.75,0],[0.75,1,0],[0.5,1,0],[0.25,1,0],[0,0.75,0],[0,0.5,0],[0,0.25,0]];" parent="4PjAWpCSvwtjcIhG53Dn-1" vertex="1">
            <mxGeometry x="-487" y="605" width="240" height="120" as="geometry" />
          </mxCell>
        </object>
        <mxCell id="4PjAWpCSvwtjcIhG53Dn-7" value="Realiza upload dos arquivos de log e do arquivo da especificação da api" style="text;html=1;align=center;verticalAlign=middle;whiteSpace=wrap;rounded=0;" parent="4PjAWpCSvwtjcIhG53Dn-1" vertex="1">
          <mxGeometry x="-530.75" y="516" width="205.5" height="64" as="geometry" />
        </mxCell>
        <object placeholders="1" c4Name="Serviço de Validações" c4Type="Container" c4Description="" label="&lt;font style=&quot;font-size: 16px&quot;&gt;&lt;b&gt;%c4Name%&lt;/b&gt;&lt;/font&gt;&lt;div&gt;&lt;/div&gt;&lt;br&gt;&lt;div&gt;&lt;font style=&quot;font-size: 14px&quot;&gt;&lt;font &gt;%c4Description%&lt;/font&gt;&lt;/div&gt;" link="data:page/id,dEd_5x-Dby5oJ5JY3EwZ" id="4PjAWpCSvwtjcIhG53Dn-8">
          <mxCell style="rounded=1;whiteSpace=wrap;html=1;fontSize=11;labelBackgroundColor=none;fillColor=#23A2D9;fontColor=#ffffff;align=center;arcSize=10;strokeColor=#0E7DAD;metaEdit=1;resizable=0;points=[[0.25,0,0],[0.5,0,0],[0.75,0,0],[1,0.25,0],[1,0.5,0],[1,0.75,0],[0.75,1,0],[0.5,1,0],[0.25,1,0],[0,0.75,0],[0,0.5,0],[0,0.25,0]];verticalAlign=middle;fontFamily=Helvetica;" parent="4PjAWpCSvwtjcIhG53Dn-1" vertex="1">
            <mxGeometry x="-187" y="605" width="240" height="120" as="geometry" />
          </mxCell>
        </object>
        <mxCell id="4PjAWpCSvwtjcIhG53Dn-14" style="edgeStyle=orthogonalEdgeStyle;rounded=0;orthogonalLoop=1;jettySize=auto;html=1;entryX=0;entryY=0.5;entryDx=0;entryDy=0;" parent="4PjAWpCSvwtjcIhG53Dn-1" source="4PjAWpCSvwtjcIhG53Dn-15" target="4PjAWpCSvwtjcIhG53Dn-16" edge="1">
          <mxGeometry relative="1" as="geometry" />
        </mxCell>
        <object placeholders="1" c4Name="Serviço de Relatório" c4Type="Container" c4Description="Monta relatório com todos os pontos de validações executados e exporta para o formato CSV" label="&lt;font style=&quot;font-size: 16px&quot;&gt;&lt;b&gt;%c4Name%&lt;/b&gt;&lt;/font&gt;&lt;div&gt;&lt;/div&gt;&lt;br&gt;&lt;div&gt;&lt;font style=&quot;font-size: 14px&quot;&gt;&lt;font &gt;%c4Description%&lt;/font&gt;&lt;/div&gt;" id="4PjAWpCSvwtjcIhG53Dn-15">
          <mxCell style="rounded=1;whiteSpace=wrap;html=1;fontSize=11;labelBackgroundColor=none;fillColor=#23A2D9;fontColor=#ffffff;align=center;arcSize=10;strokeColor=#0E7DAD;metaEdit=1;resizable=0;points=[[0.25,0,0],[0.5,0,0],[0.75,0,0],[1,0.25,0],[1,0.5,0],[1,0.75,0],[0.75,1,0],[0.5,1,0],[0.25,1,0],[0,0.75,0],[0,0.5,0],[0,0.25,0]];" parent="4PjAWpCSvwtjcIhG53Dn-1" vertex="1">
            <mxGeometry x="123" y="605" width="240" height="120" as="geometry" />
          </mxCell>
        </object>
        <mxCell id="4PjAWpCSvwtjcIhG53Dn-16" value="" style="shape=image;verticalLabelPosition=bottom;labelBackgroundColor=default;verticalAlign=top;aspect=fixed;imageAspect=0;image=data:image/png,iVBORw0KGgoAAAANSUhEUgAAAgAAAAIACAYAAAD0eNT6AAAACXBIWXMAAA7DAAAOwwHHb6hkAAAAGXRFWHRTb2Z0d2FyZQB3d3cuaW5rc2NhcGUub3Jnm+48GgAAIABJREFUeJzt3XmcHHW9/f9TvUzPvk9msu8JEEggIBEQSWIIEEUEDUFBroLLdUG4bqhcvbjLvS7XH6jcq6ICIgJXZQcTFkH2hEACIYFksu+zT89090x31fcPTX4EkjDTVd2f6q7X8z8epD51MpDU6ap3f0oCAAAAAAAAAAAAAAAAAAAAAAAAAAAAAAAAAAAAAAAAAAAAAAAAAAAAAAAAAAAAAAAAAAAAAAAAAAAAAAAAAAAAAAAAAAAAAAAAAAAAAAAAAAAAAAAAAAAAAAAAAAAAAAAAAAAAAAAAAAAAAAAAAAAAAAAAABQwy3QA5M7WrVvLOm271HQOIIgG9qbtE06Y3G06B3AoFIAC5zhOaG3rthlWSPNk6W1yNF3SBEkNkkJm0wHB1dET197OHicaCveXxqLLwqX6t9NmzdpoOhewDwWgQK1t3T7dseyPWNKHJI0znQfAgTp64trd1rX/n8PhkF1ZWXrN/BNmfc1gLGA/CkCBWbNpx+ywk7nKkd4nPuEDvvXGAiBJliVVV5T/Yv6cWZ82FAvYjwJQIF7Ztq0hNOh8z5E+Ji78gO8drADs01BT+bl3nnDMtXmOBByAC0kBWLtp2zxr0FnlSJ8Q/82AgtcV7//vZStWzzSdA8HGxcTnXtm47atynGWSRpnOAsAbmYwdGkwkH1m+fHnUdBYEFwXApxzHsda1bvuhJed74r8TUHSSqXR9dzpyr+kcCC4uLD61btO2nziW8wXTOQDkTm9/8vS/LX+ZP+cwggLgQ2tbt3xd0uWmcwDILcdx1BOPX/Pwsy/PMJ0FwUMB8JlXNm45Q5Z1tekcAPIjnbHDqYHE4y+//HKJ6SwIFgqAj6xubW22ZN0o/rsAgZJMDdbt6h28x3QOBAsXGh+JWJH/lDTCdA4A+cc8APKNAuATr2zadpIl68OmcwAwg3kA5BsFwCcsx/mG2JkRCDTmAZBPFAAfWNe6bZakM0znAGAe8wDIFwqAH4Scj4lP/wD+iXkA5AMFwLDly5dHHUdLTOcA4B/MAyAfKACGVdU1zZHUZDoHAH9hHgC5RgEwzLGsuaYzAPAn5gGQSxQAw6yQNcd0BgD+1dufPP2R5166wnQOFB8KgGGOo+mmMwDwL8dx1NvX96NlK1bPNJ0FxYUCYJDjOCFJE0znAOBvmYwdGkwkH1m+fHnUdBYUDwqAQevXr6+UxB9oAG8pmUrXd6cj95rOgeJBATAoE4tVms4AoHAwDwAvUQAMstMRPv0DGDLmAeAlCgAAFJB/zAOkHmV/ALhFAQCAAsP+APACBQAAChDvC4BbFAAAKECO46g7Hv9P5gGQLQoAABQo5gHgBgUAAAoY8wDIFgUAAAoc8wDIBgUAAAoc8wDIBgUAAIoA8wAYLgoAABQJ5gEwHBQAACgizANgqCgAAFBEmAfAUFEAAKDIMA+AoaAAAEARYh4Ab4UCAABFinkAHA4FAACKFPMAOBwKAAAUMeYBcCgUAAAocswD4GAoAAAQAMwD4I0oAAAQAMwD4I0oAAAQEMwD4PUoAAAQIMwDYB8KAAAEDPMAkCgAABA4zANAogAAQCAxDwAKAAAEFPMAwUYBAIAAYx4guCgAABBgzAMEFwUAAAIuk7FD6cTgI4884kRMZ0H+UAAAAEqkUvV2+Yv3ms6B/KEAAAAkSb19yYXMAwQHBQAAIIl5gKChAAAA9mMeIDgoAACAAzAPEAwUAADAmzAPUPwoAACAN2EeoPhRAAAAB8U8QHGjAAAADol5gOJFAQAAHBbzAMWJAgAAOCzmAYoTBQAA8JaYByg+FAAAwJAwD1BcKAAAgCFjHqB4UAAAAEPGPEDxoAAAAIaFeYDiQAEAAAwb8wCFjwIAAMgK8wCFjQIAAMgK8wCFjQIAAMga8wCFiwIAAHCFeYDCRAEAALjGPEDhoQAAAFxjHqDwUAAAAJ5gHqCwUAAAAJ5hHqBwUAAAIAcs0wEM6oknFz6+fM3lpnPg8CgAAJADlhXkCuCoM977Y+YB/I0CAAA5EAp0AWAeoBBQAAAgB8LhsOkIxjEP4G8UAADIgZIoH3wl9gfwMwoAAORAJByWFQr2YwDpH/sD9MT7rnn4hRdmmM6CA1EAACAHLEsqj5WYjuEL6UwmPBC3H2MewF8oAACQIxWlMdMRfIN5AP+hAABAjlRVlpuO4CvMA/gLBQAAcqQkGlFpSdR0DN/gfQH+QgEAgByqq6k0HcFX2B/APygAAJBDNVUVikS41r0e8wD+QAEAgByyJDXVVZmO4Tu8L8A8CgAA5FhNZYXK+ErgG/C+ANMoAACQY5YljWyqC/z7Ad4ok7FDmeTAw8wDmEEBAIA8iJVE1dxQYzqG7/QnBxqYBzCDOmrQmtYd40NWZpPpHH6UsgfVlu5WfyZlOgoOIWKFVBepUk2kQhZ/lQzZrrZOdfb0mY7hM5Yaa6qvOPWEo35qOkmQ8KfWIArAgQactO7teFrLulZqfWK76TgYoupIueZUHanzG0/TuNgI03F8z3Ec7djTqZ6+ftNRfCUSDmcqaktmzT/22JdNZwkKCoBBFID/38bkTn1zy03aOdBhOgqyFFZYHxoxXxeOmM8dgbfgOI52t3Wps5c7Aa9XFot1xAaPa543z0qbzhIEzADAuNbkTv1b6/Vc/AtcRhndtGepfrHjbtNRfM+yLLU01amxrloWg4H7sT9AflEAYFTKHtQ3t9yohM2z/mJxZ8eTerT7RdMxCkJTXbXGtTQqEgmbjuIbPfHEwr+tWLPEdI4goADAqHs6ntaugU7TMeCxG3Y/oIxs0zEKQnlZTJPHNqu+ppIHJ/+USCSuM50hCCgAMGpp5wrTEZADuwc6tSreajpGwQhZITU31GryuJGqq64I/H4BidRA49MrVh1vOkexowDAmHgmoY2pXaZjIEde6t9oOkLBiUbCamms09TxI9XSVKfyspiC2gUSti4ynaHYsfsSjGkf7DUdATnUlu4xHaFghUIh1VVVqK6qQo7tqD+VUiqVVmpwUIPpjBzHke0U9yOWcMhqMJ2h2FEAYEwsxHvSi1lM/Pf1ghWyVFFWqooy00nyy5LWmM5Q7HgEAGMaolUqseigxWpkrN50BACHQQGAMVErouMqp5iOgRw5seoI0xEAHAYFAEYtbnyn6QjIgbdXHaXRJY2mYwA4DAoAjDqmYpLm1x5nOgY8VBku1SdGLjIdA8BboADAuCtGnadjKyebjgEPlIViumrchXz6BwoABQDGxUJRfW/CpbqgaR5DgQXsqPLx+u/Jn9bsiqmmowAYAv62hS+EFdJHm8/Qe+tP0mM9q7W6b6M60r1KO7wUzM+qwxUaF2vSSdVHaVYFd3GAQkIBgK80RKt1bsMpOrfhFNNRAKCo8QgAAIAAogAAABBAFAAAAAKIAgAAQABRAAAACCAKAAAAAUQBAAAggCgAAAAEEAUAAIAAogAAABBAFAAAAAKIAgAAQABRAAAACCAKAAAAAUQBAAAggCgAAAAEEAUAAIAAogAAABBAFAAAAAKIAgAAQABRAAAACCAKAAAAAUQBAAAggCgAAAAEEAUAAIAAogAAABBAFAAAAAKIAgAAQABRAAAACCAKAAAAARQxHQA4mI50rzoGe+SYDgLkUEW4VM0ldQrzWQwGUADgGwk7pTvaHtfDXSu1Y6DddBwgLypCpZpTfaQuaJyn8aUjTMdBgFAA4Atr+7fom1tuUke613QUIK/67KQe7lqpv3W/qH8ZsVDnN50mS5bpWAgA7jvBuLWJrfrypl9y8UegZRxbN+x+QL/d/VfTURAQFAAYlbBT+vaWm5SyB01HAXzhj3sf1fL4q6ZjIAAoADDqzvYn1TbYYzoG4BuOHP1q1/2mYyAAKAAwalnXStMRAN/ZmNyp1uRO0zFQ5CgAMKY306+tqT2mYwC+9HLfZtMRUOQoADCmY5ChP+BQ2jPdpiOgyFEAYExpqMR0BMC3yqyY6QgochQAGNMQrVYsFDUdA/ClUbEG0xFQ5CgAMCZihXV85VTTMQDfiVphHV85zXQMFDkKAIxa0jSPXc+AN3hP/dtVHuIRAHKLAgCjjigbq7PqTjQdA/CNlpI6XTjiXaZjIAAoADDuM6Peq5OqjzIdAzCuKVKjb437qKrC5aajIAAoADAuYoX1jbEf1qUtZ6kiVGo6DpB3liydVjNT1065jDcCIm94GyB8IWRZOr/xNC2qO1FP967Rqr6N6kj3KmPbpqMBOVMTrdDEWLNOrp6hsTEu/MgvCgB8pTJcpgW1x2tB7fGmowBAUeMRAAAAAUQBAAAggCgAAAAEEAUAAIAAogAAABBAFAAAAAKIAgAAQABRAAAACCAKAAAAAUQBAAAggCgAAAAEEAUAAIAAogAAABBAFAAAAAKIAgAAQABRAAAACCAKAAAAAUQBAAAggCgAAAAEEAUAAIAAogAAABBAFAAAAAKIAgAAQABRAAAACCAKAAAAAUQBAAAggCgAAAAEEAUAAIAAogAAABBAFAAAAAIoYjoA8Ea242j7wF51puNKK2M6DpAz1aFyjY41qiwUMx0FAUQBgG90Z+K6de/f9HDXSnWl46bjAHkRtcKaXTlNF46Yr+llY03HQYBQAOALK+Pr9d2tt6g30286CpBXg05Gz/S+omd71+r8ptP0kRFnKGRZpmMhAJgBgHGr+lp11aYbuPgj0Bw5+uPeR3X9zrtNR0FAUABgVDyT1He23KKMbNNRAF+4s+NJPdHzsukYCAAKAIz6c/vj6s7wvB94vRt2PyBHjukYKHIUABj1cNeLpiMAvrMttVfrEztMx0CRowDAmO5Mn3YMtJmOAfjSmsRm0xFQ5CgAMKZrkFv/wKF0DPaajoAiRwGAMeVhNj8BDqUiXGo6AoocBQDG1Eer2QENOIQxJU2mI6DIUQBgTFghnVg13XQMwHdioahmV04xHQNFjgIAoy5omseuZ8AbvK/hFJWGSkzHQJGjAMCoSaUjdW7DKaZjAL4xLtakDzbNMx0DAUABgHGXNi/SgtrZpmMAxo0qadS3xn+U2RjkBS8DgnFhK6QvjTlfMyrG63e7l/ImQAROWGGdUXeCLm05U5XhMtNxEBA8fH2D5v9aWKGEPSlk23WOpQpJlbk611FN0yt/ftbXbsjV+oUoZQ9qRfw1vdTfqvZ0r2yb7VBRvKoi5ZoYa9Hba45UU6TGdBxfsaSvTp849gemcxSzwN8BaLl67oSQQu9xZJ0maY76Mv98IbclK8fXntfaNmzP7RkKTywU1cnVR+nk6qNMRwGAohbIAjDj6sUl7VbHBy1HH5N0imPsTgjj7wAAM4JVAG5bHG55pfMTHU7HVy1HY03HsSgAAABDAlMAmr81b05oTcf1ko41nWUfixkMAIAhQfgaoDXym++6PGyHHpePLv6SZFlWEH7+AAAfKuo7ABOunluaUvgWOTrXj7PkIStEAQAAGFG0BaDxmlOqUonwXZLmms5yKCHuAAAADCnOC9D/HB+NJkpvl48v/pJkWaGw6QwAgGAqygIwcmftdZLOMJ3jrYS5AwAAMKToLkCjvrngHEmfMJ1jKMJWuGgfwQAA/K2oCsCoq+c2Oo79S9M5hioUClEAAABGFFUBsBX5D8lqMp1jqELMAAAADCmaAjDm6rlTQnI+aTrHcFhiBgAAYEbR3ILOKPxFSVHTOQAAKARF8Ql0zNVn1Eu6yHQOAAAKRVEUANvKXCipwnQOAAAKRXEUAMf5oOkMAAAUkoIvAE1Xz22xpLebzgEAQCEp+AIQtULzxGt1AQAYloIvAHJ0qukIAAAUmoIvAI6so01nAACg0BR8AZA03XQAAAAKTaEXAEtSg+kQAAAUmoIuAM3/tbBcEvvpAwAwTAVdAHb3DaQkOaZzAABQaAq6AOjqR9OS+k3HAACg0BR2AXBkSWo3HQMAgEJT0AVg0rLF1VZ5lE2AAAAYpoIuAJIUqioZazoDAACFpuALgFURNR0BAICCU/gFoDomy+IpAAAAw1H4BSBsyarkLgAAAMNR8AVAkkKNZaYjAABQUIqjANSVyooUxW8FAIC8KI6rpmUp1FxhOgUAAAWjOAqApHBzuaxo0fx2AADIqeK5YlqWwmOrTacAAKAgFE8B0D9mAUJ1paZjAADge0VVACQpMr5aivGGYAAADqfoCoDCIUWn1Enh4vutAQDglaK8SlqlEUWn10sRdggEAOBgirIASJJVFlF0WgPfDAAA4CCK+upolUUUPaJBIV4YBADAAYq6AEiSSsIKT69XuKVC4okAAACSglAAJFmWpfDoKkWPbFSoqsR0nNdxTAcAAARUIArAPlZZRJFp9YpOq5flgyKQtjMDpjMAAIIpYjqACVZViaJV9XIGMrLbk7J7klJfWo6T30/kqcxgQpL5JgIACJxAFoB9rJKwwiMrFB5ZIdmO7MSglEzLSdlSxj54IXCUVtrZ4dh2hzLqk2w76wClEefWtkeayqzYyGgoXOvitwIARSHj2ImEM7B7bf+WcePu+dAnsl7IVsJSqN+xnK5IKLy1rrl044oT/nfQw6gFr6DH4iYtXVyTSZZ0mc4BAPC9tGStseQ8ajtaWpUc+OvL598e6MewFAAAQBB1SPpDxrb+e9s5N683HcYECgAAIMgyknW7HOtrm99700bTYfIpUN8CAADgDcKSc4Es++Xx91z0dT0yNzCzcRQAAACkMjnOtybERz857p4PTTIdJh8oAAAA/JMjvc1yrGcm3v2hE01nyTUKAAAAB2q0ZT007p4PLTAdJJcoAAAAvFml5Vh3jr/nopNNB8kVCgAAAAdXLse5c8KfL5hgOkguUAAAADi0RkXCt824bXHRbdtOAQAA4DAc6W195SVXmc7hNQoAAABvwXGcKyfde/E00zm8RAEAAOAtWbGMnf6e6RReogAAADAk1nnj7vrgDNMpvEIBAABgaCzLsq4wHcIrFAAAAIbMOn/MbYvLTKfwAgUAAIChqw6XxhaZDuEFCgAAAMPghJzTTWfwAgUAAIBhsBxnnukMXqAAAAAwLNbUptsWV5pO4RYFAACA4bHKY+GppkO4RQEAAGCYrFBkvOkMblEAAAAYJtuxq0xncIsCAADAMIVCYgYAAICgcZxQ2HQGtygAAAAEEAUAAIAAogAAABBAFAAAAAKIAgAAQABRAAAACCAKAAAAAUQBAAAggCgAAAAEEAUAAIAAogAAABBAFAAAAAKIAgAAQABRAAAACKCI6QDAwcRCUY2KNqg2WqlSK6pYuETlVulBf61t2epPpxS3+9We7tGegW4l7FSeE5sXC0U1uqRRLSV1KrNiioVKPFs7o4wSmQF1pHu0NdWm7kzcs7Xdqo9U6cjy8aoJl6vPTmpTarc2J3ebjpU3I0vqNal0pGrCleqzE3otsV07BtpNx0IBoADAuLJQTDMrJmlWxSRNLB2pMbEGNUVrZcnKes3dA51qTe3Sq/1b9ULfBq3r36aMMh6mNi9ihfW2quk6vmKaZlZM0rjSJlc/s+HozsS1Or5JL/Sv19+7X1JnOv+FYGbFJF3cfLqOLp/wpt/39oE2/WHPw3qoe6Vsx8l7tnyYU3WELhpxuqaVjX7Tv9uY3Knf73lYj/esNpAMhSI/f1vkyKSli2syyZIu0zkwfCOidVpQe5zmVB+pqaWjFLbCOT1fwk7pmZ61eqxnlZ7rXacBJ53T8+XSyJJ6nddwqubVzlJVuNx0HGUcWyv71usv7U9oee+rcpTbC27IsvSREQt1ftPctyw8z/S+ou9vvbWo7giFFdJnR5+jRXVz3vLXPty1Uj/Z/n8F/f+7f1mXbT775utMp3CDAoC8KbEiOq12lhbWHq+jyycqZJn5368706cHO5fr3o6ntWug00iGbDRFanRJy5k6rWaWwpY/x3c2JHfoV7vu0/Px9Tk7x0ebz9AFTfOG/Ouf73tN/77xt0VzB+jy0ecO6eK/z9+7X9J3tv4+58UseAq/AOT2Y1eO1V08o9RJh79iOgcOrzRUorPr366vjb1QC2pnq7mkTpahi/++PDPKJ+ic+lM0oaxZrYmd6s30G8vzVkKWpfc3vlNfH3eRppaNMVachqI+UqUFtbM1MdaiVf2tStoDnq5/dPkEfX7MB4b1qGNkSYP67ZTW9G/2NIsJJ1UfpY+3vHtYx4wrHaFdAx1qTe7MUaqgsu7v/sOqZ02ncIMZAORMWCG9v/FULW48TdUR87eq3yhkWXpn9UydUn207mx7QjftWaZ+n90qro1U6ktjztcJldNMRxmWd9QcrWMqJ+g/t96m5fFXPVv3ohELsppzWNI4V/d2PFPQjwIsWfqXEadndeyHR5yuZV0ruQuAA/jzPiIK3syKSfrFlCt0actZvrz4v15YIZ3XeKpumPYlnVJ9tOk4+42LNem6yZ8tuIv/PjXhSn1r/Ef0nvq3e7JebaRSMysmZXVsdaRc82pmeZLDlKPLJ2hi6cisjm0uqdP0sjEeJ0KhowDAU2WhmL40ZrH+c+LHNb50hOk4w1IXqdQ3xl2kL41ZrPJQzGiWaaWj9aOJn1JTtNZoDrfCVkiXjXqfLmya73qtyaWjXM0+nFl/ousMJi1ymX/yQb4tgGCjAMAz40tH6KeTPq0Ftcfn7etoubCg9nhdN+UyYwVmVEmjvj3ho76/czIcFzcv1HmNp7paoyZS4er46WVjNKVAL4LVkXK9o+YYV2vUufz5ofhQAOCJRXVzdN3kz2l8abPpKJ4YXdKon0z6tGZXTsnreasj5bpm4qWqjVTm9bz58PHmRTqp+qisj+/LJFxnWFT3NtdrmHB67WyVWO5GtuKZpEdpUCwoAHBtSeNcXT76XNd/QflNRahU3x7/UZ1WMzMv57Nk6fOjPqAR0bq8nC/fQpalL44+X80l2f3+WhM7XQ+xza89TmWGH+9k44xa948vNvAtALwBBQBZC1shXT76PF3ScqbpKDkTscK6cswFmlub+wGys+pPdPUJuRBUhkv1xdGLs3pEtDfdrQ2JHa7OXxaKFdww4DHlE10/jopnElrTt8mbQCgaFABkJWRZ+vKYJVpUV9iDVUMRtkL68pglmlN1RM7OURUu10eaF+ZsfT+ZWTEp60L1YOdy1+cvtGFAt8N/krS063llZHuQBsWEAoCsfLrlHM0tsE9SboQV0lVjL8zZENlFI96lmnBwhrQubTlL0Sy2f36oa6XrzYUKaRjQi+E/SXqgo6D3q0GOUAAwbBeNWKCzG7z5bnchiYWiunrchz0f0KuOlOvMAh1Oy1ZTpEYLamcP+7g+O6nHut2/4KZQhgG9GP57qX+TNqWC83ZEDB0FAMMyt2aWPjxigekYxjRFa/WlMed7+jXH99afpFIPX91bKN6f5dcC7+t0/2m2UIYBvRj+49M/DqW4xraRU6NKGnXF6PPydr6EndK2VJv2DHYqnkkq6Qy86fZvzIqqKlKuqlCZGqM1Gh9rzvmLck6onKaz69+uuzqecr2WJUvvyuKT8OG0D/ZobWKL2tI9nuzFH1FYtdFKjSsZoSllozwrP2NjIzS9bKzWJbYO67hX+jdrQ3KHJpeOyvrcZaGY5tbM1P2dz2W9Rq55M/yX1GO8EhiHQAHAkJRYEV019oM5/dSUdjJ6rnedlsdf1Yt9rdqa2jPsNcpCMU0tG60TKqdpft1xaorU5CCp9LGWRXo2vtb12wSnlY3RqJIGTzKt6d+s3+x+UKv7NuZsz/emaK2WNM7VooYTFfbgBuLcmpnDLgCS9EDHc/rMqHNcnfus+jm+LgDeDP+tUMoe9CANihEFAENycfPCnA1O7R7o1J/a/66Hu1eqJ+3urXwJO6VVfa1a1deq3+35q46tmKIPjpivY8oneBP2n2KhqP615WxdveVGV+vMrvJmo6Fb9z6i3+35q2wnty972TvYpet2/kWP9azS18de5Hq3wtlV06Rd9w77uIe6VurSlrNcPTrZNwy4PrE96zVyheE/5AMzAHhL40ubdV7jOzxftyPdqx9uv10fffWH+kv7E64v/m+UcWytiL+qL7Zer6u33KjtA22ern9S9VE63uWLemaWT3ad4462x/Sb3Q/m/OL/eqv6WvX1Lb/VoJN2tc742AjVhIc/VFnsw4AM/yEfKAA4LEuWLhv1Pk9u9+7jyNFd7U/pY6/+SEs7VyijjGdrH8pTPWv06fX/n5Z1rfB03X9pzu71rPtMKm1xdfzG1C7dsPsBV2tka23/Fv1+70Ou1rBkaXKWb7gr5mFAhv+QDxQAHNbc2lk6pnyiZ+v1Zvp19eab9LOdd6rPzu/e5El7QP+17Xb9ePsdyjjelI7pZWN1YpYbBFWGS11/pfD3ux9SxjG3wcuf255Q3OUe/aNLs5uB2DcM6Ma+YUA/YfgP+UIBwCFZsvTBxnmerbd7oFOf2/BzPd27xrM1s/Fg53J9f+utnu2MtqRpblbHNUXcveo3ZQ/q2fhaV2u4lbQH9FzvOldruPk5PNDhfojvrPo5rtfwEsN/yBcKAA7plJoZnr3db3Nyt65o/bl2ePwcPluP96zWNVtv9WRa/ujyCTqyfPywjyuPlLo675bUHl/8Jf9a0t0QnZtb8MW2MyDDf8gnCgAOaYlHn/73prt11ebfqCPd68l6Xvlb9yr9X9vjnqy1OItNbWIuh7y60nFXx3ul02WO8nD2k/zFNgzI8B/yiQKAgzqyfLymefCpKGGn9LWNv9LewS4PUnnvhl0PaE3/ZtfrnFQ1Q43R6mEdY7n845eP4cmhsF3PILjbWKiYhgEZ/kM+UQBwUKfXHufJOtdu/4u2pPZ6slYuZGTrp9v/5HqQLmRZOrU6v8NkXm5HXMiKZRiQ4T/kGwUAbxK1wjrNgzf9Pd6zWg91r/QgUW5tSu3W0k73Xw+cWj68OyYJO+XqfEF8f8ChFMMwIMN/yDcKAN7kxKojVRkuc7VGwk7pf3bc41Gi3Ltx71INuNzUpi5cNaxf35Nxt/FRU9Tdtwi84vbuieMFK0FNAAAXKElEQVTBBkaFPgzI8B9MoADgTU6omup6jTvaHtfedLcHafKjfbBHD3W5u1sRt4d3Qe91ufPhqJIGNQxz7iAXulwOd3oxHFrow4AM/8EECgDe5NgKd/vTJ+0B3d3u/k15+XZH22OuttNdnxjec+i4nXC9IdGCGm/fJJiNTak9rn4f2bz06WAKeRiQ4T+YQAHAAZoiNa7fTvfXzhXqzvR5lCh/tqX26pneV7I61nYcPdHz8rCOyTi2WpO7sjrfPuc1vkMVIXf7CbjVm+nX6r5NWR2bka2ne73ZzKhQhwEZ/oMpFAAc4OhK99v+Lut63oMkZvxq9/1ZveDmse5V2pbFtx1e7t807GNerzZSqc+NOtfVGl74495HszrurvYn1etyFuL1CnEYkOE/mEIBwAHGl7jb+W/HQHtW73f3i22pvbpp97JhHbN3sEs/33lXVufzYg+CubWz9PGWRUa/Fvh832u6t+PpYR2zObl72D/rt1Jow4AM/8EkCgAOMKa00dXxL/St9yiJOX9se1S37H14SNsE7x7o1Fc2/TrrRx4v9rV68mKiDzS+U/8x/mLVuXy5kBs/23mX7ut4Zki/dkNyh67a/BvPXwhVaMOADP/BJAoADjCmxF0BeLGv1aMkZv1u91/1lU2/0vrEwfe5T9mD+lPb4/rMhmuzuvW/T1c6rmdcvkxnn5OqjtTvpl2pT408W+NiTZ6sORwZx9ZPd/xZ39pys7Yf4p0P8UxSN+9Zpis2/Dxnu0MW0jAgw38wyV31RNEZ6XIAcKPLoTY/eSG+QZ+JX6vxpc2aXjZG9ZFqpewBbR9o16q+Vte3mvd5oPNZnVx9lCdrxUJRva/hFL2v4RSt7t+o+zqe1d+7V7ve42A4nuh5SU/0vKQpZaN1ZPlY1Ueq1ZtJaFNyl17q25jzLPuGASeXjsp6jX3DgPd3up8pOBSG/2AaBQD7hRV2tbtcxrG1M9XuYSJ/2Jzcrc3J3N1iXR5/VXsHuzzf2OeY8ok6pnyiPtVytpZ1rdD9nc/mdVvm9Ynth7yDkmsPdDynz4w6x9UaZ9XPyWkBYPgPpvEIAPuVuXgrm/SPr4Pl85Nmscg4tm7cszRn61dHynVe46n65dQv6LrJl2lR3RzFQtGcnc8P/D4MyPAf/IACgP3cPvPsd7m3fZAt63pe6xLbcn6eqWWjdfnoc3XL9Kt0+ehzNTHWkvNzmuDVMOBZORoGZPgPfkABwH5lLj8Vpjx6Jh5EtuPoFzvvHtI3D7xQGS7Voro5un7qFUV7V8CLYcB35WgYkOE/+AEFAPtZlrv/Hew8XbyK1Sv9m/Wntr/n/bzFelfArzsDMvwHv6AAAD7y69336/n4a0bOXYx3Bfy4MyDDf/ALCgDgIxnH1jXb/piz78gP1b67AjdP+6o+2fJuI/sKeMFvw4AM/8FPKACAz3Sl4/rixv/RjgHzX6ks9G8Q+G0YkOE/+AkFAPChXQOd+kLr9b76i75QZwX8NAzI8B/8hAIA+FRHuldXbvylVvtse+XXzwr8cNInNb/2ONefanPJL8OADP/BbygAgI91peP68qZf6le77svqNcW5dkz5RF05ZoluPuIrWtI0Ly/752fDD8OADP/BbygAgM/ZjqPb2x7TZeuv08t9m0zHOaiacKUuaT5DN02/Uhc2zffdHQHTw4AM/8GPKABAgdiY2qXPb7xeX2i9Xs/0vmI6zkFVhct1cfNC/WzK5zQ1R9voZsP0MCDDf/AjCgBQYF7q36RvbP6dvtB6vR7tetGXjwbGxUbop5M/oyVNc2XJMh1HktlhQIb/4Ef+uk8HYMhe6t+kl/o3qXJnqd5ZPUvnNJ6sCbFm07H2CyukS5rPVEtJna7d8RfZjtmdIk29JpjhP/gVdwCAAhfPJHVf5zP65Gs/0Wc3XKv7Op/x1aDYoro5unLMBQr74K8bb4YBh/dpnuE/+JX5P5EAPPNaYrt+uv3P+vC6H+iXu+7T9oE205EkSXNrZunzY95vOoZHw4BjhzwMyPAf/IwCABSh7kyf7mh7TJe8+kPf3BVYUHu83ttwktEM+R4GZPgPfkYBAIqcn+4K/OvIszWjYoKx80vSvZ3PuF5jqMOAXgz/3c+nf+QIBQD7OY7t6viQT6a9cXB+uCsQVkhfHL1YUSuc1/O+3tr+LXnZGdCr4b/HGf5DjlAAsF/Sdvd1slioxKMkyLV9dwU+tO67+un2P+f1FvOokgad3XBy3s53MPkYBmT4D35HAcB+CTvl6ni/bgOLQ9v3DYJ/fe2/9eWNv9Sj3fnZV+DCpnepJlyR8/McSq6HARn+QyGgAGC//kzS1fHV4XKjt3aRPUeOXuzboO9v/YMuWPudnN8VqAyX6t0u99Z3I9fDgAz/oRCwERD2y8hWyh7M+n3vYSukUbEGbU7u8TiZWaNLGnVM5UTVhCuUsFPalmzTqv5WpZ1MTs7XGK3WMRWT1BipVtqxtX2gTS/2bcjbreB9dwXu73xWMysmaVH9iTqleoaiHu/vf2bd23Rr2yPGNgi6t/MZLaw73tUa76o9Tr/adf+b7p4x/IdCQAHAAXYOdrjaTW5CrKVoCsCsism6tOVMTS8b+6Z/152J64HO5bp1zyPqd/noZJ/pZWN0cfNCHV859U3b5ybslO7ueFq37HnY9aOaodp3V+DFvg2qCVfq9LrZWlR/okaXNHqyfnNJnY6tmKLn4695st5w7RsG9HpnQIb/UCh4BIADbEvudXX8rIpJHiUx68Km+bpm4scOevGX/vH2uyWNc3X9lCs0Jtbk+nxLGufqJ5M+pRMqpx107/yyUEznN56mn025zLML8HB0Z+K6o+0xfey1H+l7W29RR7rXk3Xn1RzryTrZysUwIMN/KBQUABxg24C7AnBs5RSPkpjzgcZ36uLmhUN6iU1zSZ2umfBx1UYqsz7fBU3zdEnLmQoPYX5idEmjfjDxUlfnc8N2HP2te5U+tf6nrr9KJ0kzKsZ7kCp7Xg8DMvyHQkIBwAE2p9zdvh9d0uir18AO17hYky5pPmNYxzRGq/XZUedkdb4pZaN18YgFwzpmRLROnxj57qzO55WudFxXbbpB7YM9rtYZVdJgrMxI3g8DMvyHQkIBwAFW9210vcaC2tkeJDHj4uaFQ/ok/kbvqD46q+e+H2ycl9X55tccq6Zo7bCP81JnOq7/3XWvqzUsWTryEI9Z8sXLnQEZ/kMhoQDgAHsHu7RjoN3VGgvrTlBluNSjRPkzqqRBJ1fNyOpYS5ZOrh7esaWhEp1YfUTW5ztlmOfLhcd6Vmn3QKerNZpKzBaZtf1btDG509UaZaGYPjvqHA+G/xIM/yFvKAB4kxf7Wl0dXx6K6Zx6szu9ZeP9jacqbGX/R2JibOSwfn1LtM7V7eKxHgwfumU7jp6Jr3W1hskNgfa5z4NP3V7c+Vra9TzDf8gbCgDeZEXvq67X+EDTaaqPVHmQJj9qI5U6vdbdd8KrImXD+vV1UXc/nzqf/Hw3Jd09r66KlHuUJHteDAN6geE/5BMFAG/yTO8rirvcFbA8FNMnW97jUaLcu3jEgqw3QNqnMx0f1q8PufzjF7b88fKlPjvh6vjykPnHRV4NA7rB8B/yjQKANxlw0nqsZ5XrdebWztJpb/HGND8YGxuhM4f4fvfDWZ9w/7W4guRyIz9/1BhvhgHdYPgP+UYBwEE91Pm8J+tcMfr9RjauGaqwFdLlo96X1ST+6zly9LjhT5Bwx4vXBGeLnf9gAgUAB/Vy/2a1upyMlv7xKOA7Ez6qOoPf9T6ci0ecrmM82L3wmd5XtHewa1jHOLJdndPtIwSvhFwMTkqubyB4youdAbPBzn8wwR9/g8B3HDm6de8jnqw1qqRB351wiWrC/ioBp1TP0PmNcz1Z6469jw/7mJTL1+7W+KRU1UXcTfEnM+aH7/YxNQzI8B9MoADgkB7vWa1tKXdbA+8zuXSUfjr50xpV0uDJem7NqTpCXx37QYU8GKRbl9im1f3D30CpP+PupT7jYk2+eP3yRBcv05GkfsfdwKmXTAwDMvwHUygAOCTbcfQHj+4CSNLIknr9ZNKndHzlNM/WzMb82uP0H+Mv9uz1trfufTir49oGu12dtywU0wmGf5axUFRzKrPbzGiftgF3Pwev5XsYkOE/mEIBwGE91LVSL/dt8my92kilvjP+o/pEy3tUFop5tu5QlFgRXT7qXF05ZonCHv2vvz6xXU/1vJLVsb2ZfnVn+lyd/8IRCzy5i5Gt99afpGqX3+N3+wIqr+VzGJDhP5hEAcBhOXJ07c47lXEynq0Zsiy9v/Ed+uW0z2t+7XGudt8bquMrp+m6yZdpUf0cT9e9cc9SOS7G2DYmdrk6/9Sy0bqwaXgvE/LKlLLR+vCI012t4cjRxqS7n0Eu5GsYkOE/mEQBwFvamNypO9uf9HzdpkiNrhyzRL+c+nktqjtR5R7fEbBkaWbFJP1gwsf0vQmXaHxps6frP9u7Vs/0utsGd1XfBtc5LhwxX0ua5g3p9cVeOaJsrL49/iOuN0/amto77A2U8iFfw4AM/8Ekbx6Couj9ds9fdVzVVE2MtXi+9uiSRl0++jz968iz9XTvK1oeX6cX4q3aMzj8l8xErbCmlI3RCZVTtaD2eLWU1HmeV/rHZkm/2Hm363VW9m3QxS7XsGTpkuYzdGzlJP1214Nal9jmOteh1IQr9YGmU3VuwymezFC84EEByoV9w4AL69xtD304DP/BNAoAhiRlD+q7W27RtZM/k7Nn97FQVKfVzNy/e2BPul/bBvZqx0C7UvaA4vbBp8WrwxWqDperMVqtyaWjFMnDZPxvdj/o+q2JkvRK/xbtHuhUswdFZXbFVM2ePFU7Btq1pn+zutJxZVzuNbBPVbhMY2PNOqpsnKePbB7tftGztbx2b+czOS0ADP/BNAoAhmxrao+u23GnvjTm/LycrzpSrqMi43VU+fi8nG+oVsbX6y/tf/dkLUeOHupeqQ81zfdkPekf+y745euWh7NjoF1r+jabjnFI+4YBJ7v8muPBMPwHP2AGAMOyrOt5zzYIKkQd6V791/bbZDve7V93Z/uTGnC5KVAh+nP7310NUOZDroYBGf6DH1AAMGy/3f1X3d9pZstUkwactK7efKPaB3s8XbcrHdeyzhWerul3nem4HuxcbjrGW8rVMCDDf/ADCgCGzZGja3f8WU/2rDEdJW8yTkbf33qL1iW25mT93+1Z6voVzIXkht33F8Qn4FzsDMjwH/yCAoCsZBxb39lys5Z1efPWQD+zHUc/2f5/OS08Xem4bt6zNGfr+8kr/Zu11KO3TeaD1zsDMvwHv6AAIGsZ2frhttv1x7ZHTUfJmYyT0Y933KGleSg6d3Y8qefjr+X8PCYl7JR+uP0O3z/7fz0vdwZk+A9+QgGAK44c3bDrAf1sx51Ke7hboB8k7JSu3nKTlubp+bztOLpm2x89nzHwC0f/uJPi1Qum8smrYUCG/+AnFAB44q6Op3R56889+W68H+wYaNcVG36uZ13u9DdcXem4vrbp14pnEnk9bz78ZveD+lv3KtMxsuLVMCDDf/ATCgA8sz6xXZ9df60e7fLv5i5D8Wj3i7psw7XGBrU2pXbr6s2/U7/t7nXBfnJ722P6495HTcfImhfDgAz/wW8oAPBUn53U97f9QV/d9GttH2gzHWdYujN9+sG2W/X9rX8wPpG/un+TPr/hF2or8McBjhzdtGeZfrXrPtNRXHM7DMjwH/yGAoCceD7+mj752k/02z0Pqu8QW/j6RcaxdXf707r01R/pka4XTMfZb2Nql67Y8DOt7t9kOkpW+uykvrvlFt28Z5npKJ5Y279F6xPbszq2OxNn+A++k/tN03Oo7uIZpU46/BXTOXBwthy91LdJd7U/pa50XJPLRqssVGI61n624+jx3tX67tZbtKxrhQYc/w1n9dspPdS5UrZsHVk+Pi+vTvbCc73r9O+bf6tXEltMR/FURzquebWzhn3c7/Ys1Ut9G3OQCOZY93f/YVVB39bhXQDIuYSd0p/bn9D9nc9pQe1snV47W0eUjzOWJ55JamnXCt3d/lRBPKbIKKOb9zykh7pW6uMti3RS1QyFrPy9+nc4tqb26Ne7H9BTRbpJ1NO9a3Rf57NaVHfikI95vu813dn+RA5TAdmhACBvkvaA7ul4Wvd0PK3RJY16V91svb3qCE2Mjcz5BW3ASeu53nV6rHuVnupdU5Bfxdo50KFvbblZ40ub9YGGd+rUmqNz9mbG4XDk6KX+zfpL+9/1ZM/Lnr4nwY+u2/EXWbJ0Vt3b3vLXPte7Tt/deosyjjdvZQS85M+PEUM0aenimkyypMt0DrhTE67QzIpJmlkxSRPLRmpcrFE14UpXa3al42pN7tLaxBat6mvVmv7NBXnRP5xYKKqTqo7SCZXTNLNikievFB6qhJ3S6r6NeqFvgx7vfkl7Bjvzdm6/OLn6KH14xOmaVDryTf9u50CHbtv7qB7oeq7oC1FwWZdtPvvm60yncIMCAF+qDJdpTKxJ1eFylYVKVBEqU1m4RJGDjK302gnZstU12Ke2dLf2DnSrOxM3kNqsqnC5Rsca1RytVUWoTBXhmEIezfn2O0klMwNqT/do+0C79g52cWH7p/GlIzS1dKxqImWKZ5JqTe7UhuQOfj5Fr/ALAI8A4EvxTEJr+4trgCzXejP9Wtu/RWvFzy2fNif3aHNyj+kYwLAVxkgxAADwFAUAAIAAogAAABBAFAAAAAKIAgAAQABRAAAACCAKAAAAAUQBAAAggCgAAAAEEAUAAIAAogAAABBAFAAAAAKIAgAAQABRAAAACKCCLgDR/irbdAYAQAA5TsFffwq6AKxL9fZLckznAAAEiyOn13QGtwq6AOj82zOS+k3HAAAES8gKUQB8YKvpAACAYHGkLaYzuFXwBcCSXjWdAQAQLKV2yWumM7hV8AVAll4wHQEAECjr151zA48ATHPs0N9MZwAABMojpgN4oeALQCaZfEpS3HQOAEAwOI61zHQGLxR8Adh2/u0JOfqL6RwAgEDoS8Wse02H8ELBFwBJchzrRtMZAADFz7F0++4zbuozncMLRVEAtpxz81LJWmk6BwCgqDm2pR+bDuGVoigAkmTJucZ0BgBA8XIs3bXt3b9fbTqHV4qmAGx6z+9vcxw9ZjoHAKAoDYQz1pWmQ3ipaAqALDmWk7lCUtp0FABAcXGkH2085+Z1pnN4qXgKgKTN59y60pK+YToHAKCorCgJd3zTdAivFVUBkKRNK6ZeI+l+0zkAAEWh0w6nl6xfdH/KdBCvWaYD5MKouz9RHlXfMkknmc4CAChYSduyFm59z82Pmw6SC0V3B0CSdpz9v/2RwdD7JGuV6SwAgIKUcBwtLtaLv1SkdwD2abptcWVFefRPjmOdbjoLAKBgdNmW9d5ivvhLRV4AJEmPzI1MiI/5d0fO11WkdzwAAJ5ZkbGtC7adc/N600FyrfgLwD+Nv+eid0vOdXI0wXQWAIDfOCk5+lFlcvCbL59/+4DpNPkQmAIgSWNuW1wWKot+2ZL1b5JqTOcBABjnSM6d4VDkytZ33/iq6TD5FKgCsM+U+y6sHrCdT8mxLrWkqabzAADyrkfSHY5j/3jLe//wsukwJgSyALzehHs/PMexM++WQvMk+22SFTOdCQCQE+ssx/qbbTlL7cTAvdvOvz1hOpBJgS8AB7htcXhceXR82LGmZCynRo5VK8vhZwQABchyrLhtWfGwZW8ZsCtf3XH2//abzgQAAAAAAAAAAAAAAAAAAAAAAAAAAAAAAAAAAAAAAAAAAAAAAAAAAAAAAAAAAAAAAAAAAAAAAAAAAAAAAAAAAAAAAAAAAAAAAAAAAAAAAAAAAAAAAAAAAAAAAAAAAAAAAAAAAAAAAAAAAAAAAAAAAAAAAAAAAAAAQLb+H5mM75202YbjAAAAAElFTkSuQmCC;" parent="4PjAWpCSvwtjcIhG53Dn-1" vertex="1">
          <mxGeometry x="449" y="618.5" width="93" height="93" as="geometry" />
        </mxCell>
        <mxCell id="0avxfFM__Q6RW_4fw3Kn-0" style="edgeStyle=orthogonalEdgeStyle;rounded=0;orthogonalLoop=1;jettySize=auto;html=1;entryX=0;entryY=0.5;entryDx=0;entryDy=0;entryPerimeter=0;" parent="4PjAWpCSvwtjcIhG53Dn-1" source="4PjAWpCSvwtjcIhG53Dn-6" target="4PjAWpCSvwtjcIhG53Dn-8" edge="1">
          <mxGeometry relative="1" as="geometry" />
        </mxCell>
        <mxCell id="0avxfFM__Q6RW_4fw3Kn-1" style="edgeStyle=orthogonalEdgeStyle;rounded=0;orthogonalLoop=1;jettySize=auto;html=1;entryX=0;entryY=0.5;entryDx=0;entryDy=0;entryPerimeter=0;" parent="4PjAWpCSvwtjcIhG53Dn-1" source="4PjAWpCSvwtjcIhG53Dn-8" target="4PjAWpCSvwtjcIhG53Dn-15" edge="1">
          <mxGeometry relative="1" as="geometry" />
        </mxCell>
        <mxCell id="KaqfRVuTtZ5ZwJ2o9W-u-1" value="" style="shape=image;verticalLabelPosition=bottom;labelBackgroundColor=default;verticalAlign=top;aspect=fixed;imageAspect=0;image=data:image/png,iVBORw0KGgoAAAANSUhEUgAAAgAAAAIACAMAAADDpiTIAAAAA3NCSVQICAjb4U/gAAAACXBIWXMAABbUAAAW1AGaOz6wAAAAGXRFWHRTb2Z0d2FyZQB3d3cuaW5rc2NhcGUub3Jnm+48GgAAAwBQTFRF////AAAAAAAAAAAAAAAAAAAAAAAAAAAAAAAAAAAAAAAAAAAAAAAAAAAAAAAAAAAAAAAAAAAAAAAAAAAAAAAAAAAAAAAAAAAAAAAAAAAAAAAAAAAAAAAAAAAAAAAAAAAAAAAAAAAAAAAAAAAAAAAAAAAAAAAAAAAAAAAAAAAAAAAAAAAAAAAAAAAAAAAAAAAAAAAAAAAAAAAAAAAAAAAAAAAAAAAAAAAAAAAAAAAAAAAAAAAAAAAAAAAAAAAAAAAAAAAAAAAAAAAAAAAAAAAAAAAAAAAAAAAAAAAAAAAAAAAAAAAAAAAAAAAAAAAAAAAAAAAAAAAAAAAAAAAAAAAAAAAAAAAAAAAAAAAAAAAAAAAAAAAAAAAAAAAAAAAAAAAAAAAAAAAAAAAAAAAAAAAAAAAAAAAAAAAAAAAAAAAAAAAAAAAAAAAAAAAAAAAAAAAAAAAAAAAAAAAAAAAAAAAAAAAAAAAAAAAAAAAAAAAAAAAAAAAAAAAAAAAAAAAAAAAAAAAAAAAAAAAAAAAAAAAAAAAAAAAAAAAAAAAAAAAAAAAAAAAAAAAAAAAAAAAAAAAAAAAAAAAAAAAAAAAAAAAAAAAAAAAAAAAAAAAAAAAAAAAAAAAAAAAAAAAAAAAAAAAAAAAAAAAAAAAAAAAAAAAAAAAAAAAAAAAAAAAAAAAAAAAAAAAAAAAAAAAAAAAAAAAAAAAAAAAAAAAAAAAAAAAAAAAAAAAAAAAAAAAAAAAAAAAAAAAAAAAAAAAAAAAAAAAAAAAAAAAAAAAAAAAAAAAAAAAAAAAAAAAAAAAAAAAAAAAAAAAAAAAAAAAAAAAAAAAAAAAAAAAAAAAAAAAAAAAAAAAAAAAAAAAAAAAAAAAAAAAAAAAAAAAAAAAAAAAAAAAAAAAAAAAAAAAAAAAAAAAAAAAAAAAAAAAAAAAAAAAAAAAAAAAAAAAAAAAAAAAAAAAAAAAAAAAAAAAAAAAAAAAAAAAAAAAAAAAAAAAAAAAAAAAAAAAAAAAAAAAAAAAAAAAACyO34QAAAP90Uk5TAAECAwQFBgcICQoLDA0ODxAREhMUFRYXGBkaGxwdHh8gISIjJCUmJygpKissLS4vMDEyMzQ1Njc4OTo7PD0+P0BBQkNERUZHSElKS0xNTk9QUVJTVFVWV1hZWltcXV5fYGFiY2RlZmdoaWprbG1ub3BxcnN0dXZ3eHl6e3x9fn+AgYKDhIWGh4iJiouMjY6PkJGSk5SVlpeYmZqbnJ2en6ChoqOkpaanqKmqq6ytrq+wsbKztLW2t7i5uru8vb6/wMHCw8TFxsfIycrLzM3Oz9DR0tPU1dbX2Nna29zd3t/g4eLj5OXm5+jp6uvs7e7v8PHy8/T19vf4+fr7/P3+6wjZNQAAHexJREFUGBntwQuAjnXeN/Dvdc00M5gxzkIGrXUIRSU9W1PpqK1IOklIki2rrUjZDnSwhfKqfTDDzNUB2Z6ldJDUKiVKFFqFiNIih5nWzBhzvL/Pu++zz7u7bdz39btO/+u6/58PoB1VduvOPXtfMXDEXQ9OnvH8omWrNn6973BNyZ6vPn1/yUuFT08aP3rYNZfm9vh5iwxo0dLwjEET560pZoJi372bP7ZflwxoYZd9+sAHX/joIEVi3/5p1pi+ndOhhY/R9br7n1u1ny6o3fnOzLsuPwFaWKScPubVYrptx7PDToSmurSzxr9VQq/8Zf7IztBUVaf3xHfL6bV9C0efYkJTTFaf362qpF+KXxvTMwWaIozcp9bW0G8lb407EVrwuk/ZxaB8dEdzaEFq/+BmBqrmnWHZ0ILR4s5PqICKl6+uA81vDW9ZXktVlDzfJxWaf+pe92ol1bJ/xlkGND8cd9m8UqromydOgea1nCkHqa4//6ouNA+dvbCGaiue0gaaN9KGfMoQqFl4DjT3NZ/4PcPis5vSobnqxIJKhsm+8VnQXNPh+WqGTdED9aG5ovP8GobRDxMbQHOs20u1DKtDjzaC5sjJL8cYZiWPN4Im1rKwlmFXfFcaNJG6E8oYBduugmafOWw3o2JlT2g2nb+eERKbnwPNhg6vM2KO/C4TWoLSJ1Ywer7tCy0h521hNC1qBS2uJs8xskpGm9CO7aaDjLK1PaAdQ8f3GHE10zKhHYV5bwWj79ve0H5Su5VMCrFpGdD+3fBSJosvekD7kWavMYlU3Z8C7Z9duZ/JZXV7aP9flsWkUzYS2t91/5rJ6JVsaH9z8xEmp20nQ0NGAZNW+RAkvXafMpnlpSO5XVbM5PZJGyQx89EYk93BPkhaDd6mxtoHkaTabab2Ny+kIRn12kftf7zXEMlnQDm1/7W5HZLN2Bi1f9h/JpJKykxq/6J8AJJI5pvUfiQ2Fkmj+Xpq/26GgeTQeisDdHj3lnXvvf7i7KceHvurQf3OP+viq4aOuu+xpwv/682V67d/X80AzU1FMmj/DQNRtuGPj9+c2wLHlNr+0tHPLN1WzUC8nIbo67qXPivbuPDx4ee0gA2pP7/0jt8v3V5Nny2ri6g7vYh+2jV3REeIpf3ivqUl9NPK+oi2c0rom22FQ9rCsZTT7l5cRN+sa4wo61NOX8Q2zby+JVxjdBv10l76Y1MLRFf/Svrg+xn9m8B9HW55pYI+2N4GUXVxFT3312cvSoFXsoe9U0PPbW+BaOpVRo+V/7F/OrzVfPRqem1TY0TRSUX0VPXSwVnwQ7vxn9Nb6+ojenL+Qg/FPritCfzTddIOemllXURN0630zp7ftobfziyopHeWpSFastbRM1tvSUcQWkw+RM+8nIooSV9Or3zc30RQ6o/bQ6/MNRAdKYvokSXnIlDpt2yhR2YgOubQE9UvdEPgzP4f0Rv3ICoepxfKpudADecsidEDsQGIhjH0QPGDjaCOrnNr6b7yMxEFQ2N0XW1eY6jltNV03/52CL++1XTdqlOhHGPoXrpuc0OEXbfDdNuewQZUVP/JKrrtvTSEW/ZXdFnV1CyoqtPbdNsLCDXjFbpsWUeorP9OuuxBhNm9dNeOK6G4jAnldFVtH4RX7xq6qfyhDKivzSK66mAbhFWrfXTT0hyEw4Xf0k2fpCOcjltNF1XdYyAsGr5CN+UhnJ6hi3acgTD5dQVdNARhNJAueikb4dJ9C91TfjLCp0sZXVN+KzyQ2f38vjfcOmbC1FnzFv/p402fffDmf1nP/G786GHXXJp7Ygocqvc83bMtG2GTtYWu2dQFrkrr1Hfs7BV7eCyVXy6eMjy3ORwYXErXvIKwWUjXzKkDt6Tnjnp66fYaJuzQ2vkTBnaGTIfP6JqRCJexdMuh6+COOuc/vOIIRfYuGNEeAunP0C1l7REm51TTJZ+cCBdkXvK7DyvpyHcvDGsD2/oV0SWrUxAeWbvokunHwamMy6asqaYrdhTe2Ar2tP6YLrkf4TGT7ojdBYdSLnr2EF31+bhWsKPuErqjqgfCIjdGV1TdAGd6Pf093Vf7p6GZSFzqc3THFxkIh4ytdEXpxXCi86Pb6ZXD8y5JQaKMyXTHNITDE3TF/p6QO2HsZ/TW3qe6I1F3xeiGWG+Ewak1dMPODhDLfSNGH3x+T3MkZlAV3fBtJtSXuoFu2NgCQsaVH9EvZQ/VQ0IuLqMbpkF9v6UbVmRDJm34Fvppz3ATieh5gC6o6QHVdaqgCxalQyR73B76bXE9JKLDTrpgrQm1mavogjwTEi0nH2IAPjsBiWixkS64A2obTRdMhMQJBZUMxp5uSET2+3SupBVU1qaUzo2HQMYDhxmYb5ogERnv07mXobK36NzTELhqJ4P0bioSkb2RzvWFuobSuQUGbOu6nAGbjoS02EnHvs2EqpoU0bF30mBXw9/XMGix7khIhwN07HdQ1XQ6ti4TNqXcdpAKWILE9CyjU0dyoKa2lXRqWzPYdO5GquEXSMzFVXRqPtT0Ap3a2w721M2nKt5CggbF6FCsJ1TUrZYOHeoOe075ksqobogE3UWnVkJFb9Chit6w544KKuQGJGoynboK6smlQ7VXw5amS6iUBUiU8Rwd2pYG5ayiQ7fDlov3Ui0HkbDUJXToLqimHx16FHakTY1RNRlIWN2P6UxxI6gl5Qs6s8yADR3WUT1tkbjWRXTmcahlGJ3Z2ww2DCmjgnrBhn50pqQRVJKxi47UXggbHqOSLoUdz9CZR6GSMXRmEhKXNpdqOhN2pH9GRw41gDqyD9KRValIWPa7VFRb2NKhlI5MhDom0ZHiHCSs9SaqKgP2DKYjP9SHKpofpiP9kbDuu6mqItj1PB15AKp4hI78JxJ2SQmV9TLsqreFThRlQQ3p++jEhnQkang11TUUtnWvoBPjoYahdKKsIxL1CBVW0xj2/ZpO7EuHEj6jE0ORqHyqbAUkXqETN0EFuXRiLhL1JJV2OSQafksH1kMFC+nAniwk6H4q7T3IXEgnzkHwcmrowGAkaBSVFjsdQovowEIEbzIdWGUgMTfGqLS5kGpTTrmaNgha3WLK1fZAYvpW0wslny549I6br7n07O4/a16vYc5JvS7od+Ovxs34064Y7dmYBbEJdGAKgjaSDuQhMb2P0GU7Fz1+c25zHE2dk6++//mPK5mg73Mgl7GTcsV1EbAvKFfUGAnpWUo3bS8ckoNE1Llg0upqxnekF5zoTwd+hWBdSAduR0K6FNE122cPOgF2ZPaZ/EkNj2l3LzjzNuX+jGC9TrkNKUhEu910yXdTe0CiwfAVMR7V6hZwqFMV5U5BkNrHKJeLRNTbRFcUzz7PhFib+7fwJ1VOS4NjT1LuCQTpacrNR0Lm0gWVf+ibBod6PrOfP1bzbFu4oP5ein1jIDgZhyhW2gqJGEnnDk1uATekXla4j/9k+/ROcMdQyp2F4PSn3H1IxKkVdGrPuPpwjXn2EwtX7Sj/6+bl8+7uCNcYqyk2A8FZQLGv0pCABl/ToS3D0xACp9VSan8qglKnlGIDkIjFdObPVxoIh7kU64OgDKDYVhMJuIeOFI1KQVh0jVHqeQTlJYqNQAJyq+lAze8bIUSWUKqkDoJR9zCl9qYjvma76cCfuiJUzqHY1QjGtRS7F/GZyyn3dX+EzUeUehnBWEipQ9mIbyLl8usidPpTqiIbQahXTqkpiK9zFaWKByCEzC2UGoYgXE+pypaIbwWlPmiNULqFUu8gCC9TqhDxDaFQzUMpCKf0PRSqaQ7/ZR2hUKwT4mq4nzLfnIXQGkepO+C/QZRajPjyKbO8AcKr/iEKfQT/vUqp/0BcZ8Yo8vxxCLPJlDoRfqtfQaGViCtlA0UeQbi1qKTQOPjtOkpdjrjupkT1zQi7Agothd9mUmi3iXhOKKVAycUIvTMpVJICn31BoWmIaxEFdp+CCNhBodPhr6aU6ol4fkmB3e0QBZModDf8NYBC2xCPuZn2FXVBJHSl0GL46xkKPYJ4rqV9pWcgIj6nzEEDvtpIoc6Iw9hI2yrOR1SMp1BX+KlRjDIbEE9f2lbdD5HRjkK3w0/9KDQO8XxCu2KDESGrKfMH+GkaZWI5iOMS2vYbRMloyuyBnz6lzIeIZyXtmotIaV5DmfbwT3YtZUYhjnNp16Z6iJZ3KHMz/HMZZaqbIo53aFNpJ0TMMMo8B/9MocxbiKMX7RqIqMmuoMgO+GcNZYYijtdp0wxEzyuUOQF+yaqmTFMcW3fatDYd0XMLZW6AXy6izJeIYwHtKW6LCOpAmTz45U7K5OHYMspoz82IpL0U+RJ+yafMQBzbZbTnAwOR9BJlmsInH1CmFY5tNm2p6oJoGkWZC+GTAxT5GnHsoS2PI6K6UeZ2+KMJZSwcWyZt2VkXEWUUUeT/wB9nU+YmHNvPactliKzFFHkD/hhBmRNxbLm0YxGi626KbIU/plHkO8RxLW0oOwHRdRpFqlLhi6UUmY84rqQNUxFhKSUUaQ9ffEORkYijFxN35HhE2VKKXAo/1I1RpBPiaM3E/R6Rdh9F7oAfelBkH+I5LsZEVbVGpP2CIr+HH26gyGuI63MmqgDRllZNiWXww6MUeRJxPc4E1fwMEbeNEjvgh4UUGYm4zmaC5iHq3qRETRp8sIkiFyCulCImJHYSou5pinSCD0ookoP4HmNC5iLyfk2RK+C9NIocMRFfgx+YgB+aI/IuocgYeK8lRb5AIsYzAbch+tpRJA/e60aRxUhEve8Y1ycmoi+lkhLL4b3eFJmKhPQ8wjhqTkUy2EyJXfDeNRQZicQMYRxPISm8RolYBjx3G0XOR4Km8ZieNJAUnqJIC3juAYq0RqIm8Ohqf4MkMZIiP4fnplPiiIGEXX+ER3HkaiSL8ynSA56bR4lNsOHMzfxJB3KRNFpTJBeee4sSi2FH6q++57/59s56SB5GOSUuhefWUiIP9mQ+9DX/xZ8HpyKpfEuJa+C5nZR4ErZ1vX/NEf7N4c8XTb7UQJL5ghLD4LlSSkyASIPO55/bykAyWkOJ0fBaOkXGQLNnOSXGw2stKXIrNHtepcQkeK0rRW6AZs98SjwNr51MkSug2ZNPiUJ4rStFekOz5ylKvASvnUSR06HZ8zAllsBrnSjSCZo991DifXitA0VaQbPnNkp8Cq+1p0g2NHsGU+IreO1EiqRAs6c/JfbAa20pUQ7NposoUQKv5VDiADSbzqJEDbx2AiVKoNl0PiUOw2stKVFrQLOnLyX2wWstKFIPmj03UOJreK05RY6HZs8ISmyE15pSpD00e+6ixCp4rTFFekCz50FKLIPXGlIkF5o9kymxCF7LoMgvodkzgxLPw3MllLgWmj3PU2IGPLedEsOh2bOIEpPhudWU+A00e5ZR4kF4bjElHoBmzypK3AXPzabEE9Ds2UiJEfDcY5SYAc2erykxEJ67gxIvQrOnmBJXwHPXU2INNFsaUqQ3PNebEkXQbOlFkZ7wXBeKNIJmx40U6QzPNaVIL2h2PEyR1vCcWUOJQdDseJEi2fDePkpMhGbHWkoUwwd/psR8aHb8lRIfwwfLKbEGmg3NKDIXPniREsXQbDiLIg/BBw9TpDG0xN1EkYHwwTUU6QUtcZMochp80JkiN0JL3B8pUh8+SK2kxMPQEreBEvvgi42UmA8tcWWU+BC+mE+JzdAS1pEiFnxxH0WaQUvUCIqMhy8up8gAaImaS5Gr4Yu2FHkGWqJ2UeQU+MIopcQGaAlqS5FYXfjjY0rUNoCWmCEU+Qt8UkCRK6AlppAi78End1JkKrTEbKNIPnxyIUXWQEtIS8qMhU+aU6Q6E1oirqdMP/jlAEUuhpaImZRpD7+8TZHHoCViE0X2wjfjKbISWgKaxCjyX/BNL4pUZECLrz9lfg3fpJZQ5CJo8c2gzMnwzxsUKYAWV8r3FCk24J+7KfJDGrR4LqLMa/BRd8r0gxbPs5QZCx8ZBynyB2hxpP+VMmfATwspcjgT2rH1p0xZKvw0ijKDoB3bHynzNnzVmTJvQDumrHLKPAB/7aFIVWNoxzKYQufAX/MpMxLasSylTEUG/DWcMiugHUOTasqshM/aUaa2FbSju41Ck+C3byhzN7Sj+4BCl8BvBZRZB+2oWscoU5MFv11CoZOgHc1vKbQWvkvdTxkL2lGk76HQk/DfDMpUtoT2026hVC78l0uhqdB+krmVQrsM+M/YRZmSbGg/pT+lpiAIUyl0H7Sf8jGluiMIp1Jobzq0f3cupTYjGFspNALav1tCqQcRjIkU2mpC+7FuFGuPYHSi1FXQfuwFSn2CoKyn0BpoP5JTTak7EZRxlDoP2r+aTqnaFghKToxCb0L7F43KKLUcwfmQUidD+2cPUuwWBGcUpV6D9k8aF1OqsiGC06yKUn2g/UMexV5FkOZRamsatP91ai3FrkOQTqPYOGh/Z6yiWGldBOp9SpW2hPY/BlNuHoJ1JcXmQft/svZQ7jIEy9xOsbOh/c1Uyh08DgEbTbH1JjSgYxXlpiBomT9Q7DZowDLK1eQgcFMoVtQI2pV0YCGC17qaYrOQ9DJ20IGzoYAFFKvtjmT3EB34FCo4g3IfIsnllNOBIVDCh5S7DUnNWEoHvk+DEgZQ7kg3JLN76MREqCFlB+W+rIvkdUYVHahsDkXcSQcKkbSyd9CJAqgi6wAdGIhk9RKdqD4RyriDDpT8DMnpVjryPNRx3Nd0YF0aklGXcjpR0wEKuY5OTEMSqrOJjsyHSoy1dOJyJJ85dKS2M5TSm04caIVkcx2deQmKWUInVqQguZx4iI7EukEx3WrpxAQkleM+oTMvQznP0omaC5BMptOZ2pOhnBOO0IlD3ZE87qJDhVDQE3RkbzskixtidKasJRTUoIiObGuG5HBxFR2aACXdRWfWZSIZ9CylQ7vrQknpO+nMO2mIvg776dQwKGoQHVpgIOpa7KRT600oythAh6Yj4rI30rHzoaxBdOo+RFr6Cjr2OtTVsIZODUOEmYvoWEUHKOwjOlV9OaIrj85NhMpepWPlv0BUTaRzW9KhsvfpXPEvEE3j6YLzoLTP6YLyyxFBxtN0wXNQWvpf6YbqYYictAV0wcEmUNpguuQ+REzmO3TDTVBa/W10y3QDUdJsHd3wHpRmvEz3LEhDdLTbRjdUdITKjJl00zuZiIrue+mKe6EyYybdta4ZoqH3IbpipQmFGbPotm3tEAVXV9AVpe2gMGMW3be3O8Lv9lq6YzgUZsyiFw5dgJAzHqVLXoPCjFn0Rs2EFIRZs2V0yf5mUJcxi55Z0QrhdeFeuuVKqMuYRQ8duBwhlTqplm6xoC5jFr01LQ1hlLOKrvk6C8oyZtFr636G8OlfTNcc6Q5lGbPovZKBCJn0/6SLboayjFn0RWFdhEnHDXRRAZRlzKJPvuyG8BhaRhd9mgFVGbPomyO3ISSy5tJNxe2gKmMW/fRhd4SAMXgP3RS7DKoyZtFftbMaQXU9VtFdj0JVRh59V3SbCZU1zqulu942oSgjj0FYfzaUlXJ7EV22uQEUZeQxIPNaQk25G+i2fe2gKCOPgSkdlwb1tJpP15X3gqKMPAZpax8oJu2+UrouNgCKMvIYsNdOhkLMAV/RA2OhKCOPwXvzPCgifcRWemEmFGXkUQlrrjIRvOx799ITb6ZATUYeVbF1RDqC1XLKIXpjfSbUZORRIXvvy0ZwOhVW0iNbm0NNRh7VUjK1JYLxH4tj9Mo3raEmI4/KqbROgu/My1fSO3vbQ01GHpW07u5W8FPPabvpoaKuUJORR1XVrhjZGP7o/Mg2eqrkdKjJyKPKqt4YlAmv5YzbQI+VnwM1GflU3eE/9EuDd5qO+jBGr1X2gZqMfIbBDwUXZcALTYe+VU3vVfWHmox8hkXFyscuzoSbWg3M+5K+KLsYajLyGSrVa6Ze0QBuOPEm62v6pagX1GTkM3xqNzwzoBmc6DRy/nf00V9OgpqMfIbV5vkP39irMWwycy4Y+eRr++ivrTlQk5HPkCteM3/ioF6NEJfR+vyRUxd/cYQBWNcUajLyGRFFa16c8cQDvxl+7S9ze7Q/vp4BICW7VafTe19xw61jJjyZt3jTEQZmeRbUZOQzompLDpRTFYvSoSYjn5r35qRATUY+Ne89DkUZ+dQ8FxsDRRn51DxXPRSKMvKpee5wXyjKyKfmua+6QVHGbGqeeyUbijJmU/Nazb0GFGXMpua1fb2hKmM2Na+tbgVVGbOpee2Z46AqYzY1j5UNhLKM2dQ8tqULlGXMpuaxhVlQljGbmreqx0Jdxmxq3tp1DtRlzKbmqdjMLKjLmE3NU1tzoTBjNjUv1TyRAYUZs6l5acOpUJkxm5qHKn6bCpUZc6h5aFUnKM2Yw8BV7d7wzvoYo6h0tAmlGXMYtD1jsvF/NRn0KSPnrTZQmzGHQXu3Gf7OuG47I6VoKBRnzGHQrBT8w3F3HGBkVE5vAsUZcxg0y8S/qD+pnJFQ+0JbqM6Yw6BZJn6sVUENw++NblCeMYdBs0z8hC6vM+RW5UJ9xhwGzTLx0879hCH2RT+EgDGHQbNMHI1x7XaG1K5hKQgBYw6DZpk4huNGH2AIHRyTgTAw5jBololjy7pzB0Pm8KRshIIxh0GzTMSVMuBDhsi+R5ojHIw5DJplIiFnLKhmOHw2NB0hYcxh0CwTiWo95Qcqr2ZhLkLDKGDQLBM2ZI7eTqUVT85BeBgFDJplwh7zyveprC9G1kWIGAUMmmXCvtPmVVFBsdcvRKgYBQyaZUKk2agPY1TLoafbI1yMAgbNMiGWM249lVG6oH8GQsYoYNAsE450mriVCjj80oA6CB2jgEGzTDh26tRdDFT5wmvrIoSMAgbNMuEGI3fGfgbkyMvX10MoGQUMmmXCLamXFHxD31W8OigLIWUUMGiWCVe1Gz5/D/3zxczr6iO0jAIGzTLhvs6jFh6k52IbnxnQFGFmFDBolglvGN3vfqOEnqn9dFq/Rgg5o4BBs0x4KLXX+LcP0HXVa6Zclo3wMwoYNMuE55pfeGfBx6V0x4EP8u+8KAuRYBQwaJYJnxhtL79v/sZKisW+WTptxNlNEB1GIYNmmfBXaudrHn5x+ab9tbShZNPCR2/oURcRYxQyaJaJgKQcf/JFg+6e/Oybn35XyZ9QunPtW/OmP3DbNb27tUxDJBmFDJplQgUNjm/ZqnVO23Y/a//zjp1O6tLt5K4t0xF5RiGDZpnQgmIUMmiWCS0oRiGDZpnQgmIUMmiWCS0oRiGDZpnQgmIUMmiWCS0oRiGDZpnQgmIUMmiWCS0oRiGDZpnQgmIUMmiWCS0oRiGDZpnQgmIUMmiWCS0wUxg0y4QWmJEMmmVCC0yfGgbMMqEF5pQSBswyoQWm1XcMmGVCC0zmegbMMqEFJmUJA2aZ0IIzkwGzTGjBGcKAWSa04DQ+wGBZJrQAPctgWSa0AJ3HYFkmtAClb2GgLBNakCYwUJYJLUgdKxgky4QWqPcYJMuEFqihDJJlQgtUyi4GyDKhBesqBsgyoQXsXQbHMqEFrAuDY5nQgjaLgbFMaEHLLmNQLBNa4O5kUCwTWuCMrxgQy4QWvD4MiGVCU8ALDIZlQlPBdgbCMqGpoCkDYZnQlNCXQbBMaGp4nAGwTGiKWEH/WSY0RaSU0XeWCU0VPeg7y4SmjNvpN8uEpo459JllQlPIi/SXZUJTyUL6yjKhKeU1+skyoanlLfrIMqEp5l36xzKhqWYVfWOZ0JSzln6xTGjq2UifWCY0BW2iPywTmoqW0ReWCU1Js+gHy4SmpnvoA8uEpqir6T3LhKaq9vScZUJT1y56zDKhKew5essyoalsCD1lmdCU1qKWHrJMaIpbSu9YJjTVXU3PWCY05aUdoEcsE1oIPEVvWCa0MDj+ML1gmdDCYRI9YJnQQiK7iK6zTGihMZZus0xo4ZHyMd1lmdDCpH0Z3WSZ0MLlVrrIMqGFzSK6ZooBLXTqrKY7akZCC6PGW+iGkj7QwqnNHjr33SnQwqrrfjq1vhW08Oq2n84syYQWZt3204mZKdDCreseih0YAi302myh0LONoUVA49WU2HIetGios4i2VUxIhxYZt5bRnvc6QouS9h/Thl1DoUVMytgiJujdq1KgRU/2pMOMr2xWF2gRdfxTB3hsX92ZDS3C0q5eWsuj2f5CHwNa1LUY8twu/ljZisf7NoWWLNpffc+sZZs2rl317luvLXxxzu09UqBFxn8D8jI/iZTXmXkAAAAASUVORK5CYII=;" vertex="1" parent="4PjAWpCSvwtjcIhG53Dn-1">
          <mxGeometry x="18" y="613" width="25" height="25" as="geometry" />
        </mxCell>
        <mxCell id="cHlt6XvXjapsiLMhFMaN-0" value="" style="shape=image;verticalLabelPosition=bottom;labelBackgroundColor=default;verticalAlign=top;aspect=fixed;imageAspect=0;image=data:image/png,iVBORw0KGgoAAAANSUhEUgAAAgAAAAIACAMAAADDpiTIAAAAA3NCSVQICAjb4U/gAAAACXBIWXMAABbUAAAW1AGaOz6wAAAAGXRFWHRTb2Z0d2FyZQB3d3cuaW5rc2NhcGUub3Jnm+48GgAAAwBQTFRF////AAAAAAAAAAAAAAAAAAAAAAAAAAAAAAAAAAAAAAAAAAAAAAAAAAAAAAAAAAAAAAAAAAAAAAAAAAAAAAAAAAAAAAAAAAAAAAAAAAAAAAAAAAAAAAAAAAAAAAAAAAAAAAAAAAAAAAAAAAAAAAAAAAAAAAAAAAAAAAAAAAAAAAAAAAAAAAAAAAAAAAAAAAAAAAAAAAAAAAAAAAAAAAAAAAAAAAAAAAAAAAAAAAAAAAAAAAAAAAAAAAAAAAAAAAAAAAAAAAAAAAAAAAAAAAAAAAAAAAAAAAAAAAAAAAAAAAAAAAAAAAAAAAAAAAAAAAAAAAAAAAAAAAAAAAAAAAAAAAAAAAAAAAAAAAAAAAAAAAAAAAAAAAAAAAAAAAAAAAAAAAAAAAAAAAAAAAAAAAAAAAAAAAAAAAAAAAAAAAAAAAAAAAAAAAAAAAAAAAAAAAAAAAAAAAAAAAAAAAAAAAAAAAAAAAAAAAAAAAAAAAAAAAAAAAAAAAAAAAAAAAAAAAAAAAAAAAAAAAAAAAAAAAAAAAAAAAAAAAAAAAAAAAAAAAAAAAAAAAAAAAAAAAAAAAAAAAAAAAAAAAAAAAAAAAAAAAAAAAAAAAAAAAAAAAAAAAAAAAAAAAAAAAAAAAAAAAAAAAAAAAAAAAAAAAAAAAAAAAAAAAAAAAAAAAAAAAAAAAAAAAAAAAAAAAAAAAAAAAAAAAAAAAAAAAAAAAAAAAAAAAAAAAAAAAAAAAAAAAAAAAAAAAAAAAAAAAAAAAAAAAAAAAAAAAAAAAAAAAAAAAAAAAAAAAAAAAAAAAAAAAAAAAAAAAAAAAAAAAAAAAAAAAAAAAAAAAAAAAAAAAAAAAAAAAAAAAAAAAAAAAAAAAAAAAAAAAAAAAAAAAAAAAAAAAAAAAAAAAAAAAAAAAAAAAAAAAAAAAAAAAAAAAAAAAAAAAAAAAAAAAAAAAAAAAAAAAAAAAAAAAAAAAAAAAAAAAAAAAAAAAAAAAAAAAAAAAAAAAAAAAAAAAAAAAAAAAAAAAAACyO34QAAAP90Uk5TAAECAwQFBgcICQoLDA0ODxAREhMUFRYXGBkaGxwdHh8gISIjJCUmJygpKissLS4vMDEyMzQ1Njc4OTo7PD0+P0BBQkNERUZHSElKS0xNTk9QUVJTVFVWV1hZWltcXV5fYGFiY2RlZmdoaWprbG1ub3BxcnN0dXZ3eHl6e3x9fn+AgYKDhIWGh4iJiouMjY6PkJGSk5SVlpeYmZqbnJ2en6ChoqOkpaanqKmqq6ytrq+wsbKztLW2t7i5uru8vb6/wMHCw8TFxsfIycrLzM3Oz9DR0tPU1dbX2Nna29zd3t/g4eLj5OXm5+jp6uvs7e7v8PHy8/T19vf4+fr7/P3+6wjZNQAAHexJREFUGBntwQuAjnXeN/Dvdc00M5gxzkIGrXUIRSU9W1PpqK1IOklIki2rrUjZDnSwhfKqfTDDzNUB2Z6ldJDUKiVKFFqFiNIih5nWzBhzvL/Pu++zz7u7bdz39btO/+u6/58PoB1VduvOPXtfMXDEXQ9OnvH8omWrNn6973BNyZ6vPn1/yUuFT08aP3rYNZfm9vh5iwxo0dLwjEET560pZoJi372bP7ZflwxoYZd9+sAHX/joIEVi3/5p1pi+ndOhhY/R9br7n1u1ny6o3fnOzLsuPwFaWKScPubVYrptx7PDToSmurSzxr9VQq/8Zf7IztBUVaf3xHfL6bV9C0efYkJTTFaf362qpF+KXxvTMwWaIozcp9bW0G8lb407EVrwuk/ZxaB8dEdzaEFq/+BmBqrmnWHZ0ILR4s5PqICKl6+uA81vDW9ZXktVlDzfJxWaf+pe92ol1bJ/xlkGND8cd9m8UqromydOgea1nCkHqa4//6ouNA+dvbCGaiue0gaaN9KGfMoQqFl4DjT3NZ/4PcPis5vSobnqxIJKhsm+8VnQXNPh+WqGTdED9aG5ovP8GobRDxMbQHOs20u1DKtDjzaC5sjJL8cYZiWPN4Im1rKwlmFXfFcaNJG6E8oYBduugmafOWw3o2JlT2g2nb+eERKbnwPNhg6vM2KO/C4TWoLSJ1Ywer7tCy0h521hNC1qBS2uJs8xskpGm9CO7aaDjLK1PaAdQ8f3GHE10zKhHYV5bwWj79ve0H5Su5VMCrFpGdD+3fBSJosvekD7kWavMYlU3Z8C7Z9duZ/JZXV7aP9flsWkUzYS2t91/5rJ6JVsaH9z8xEmp20nQ0NGAZNW+RAkvXafMpnlpSO5XVbM5PZJGyQx89EYk93BPkhaDd6mxtoHkaTabab2Ny+kIRn12kftf7zXEMlnQDm1/7W5HZLN2Bi1f9h/JpJKykxq/6J8AJJI5pvUfiQ2Fkmj+Xpq/26GgeTQeisDdHj3lnXvvf7i7KceHvurQf3OP+viq4aOuu+xpwv/682V67d/X80AzU1FMmj/DQNRtuGPj9+c2wLHlNr+0tHPLN1WzUC8nIbo67qXPivbuPDx4ee0gA2pP7/0jt8v3V5Nny2ri6g7vYh+2jV3REeIpf3ivqUl9NPK+oi2c0rom22FQ9rCsZTT7l5cRN+sa4wo61NOX8Q2zby+JVxjdBv10l76Y1MLRFf/Svrg+xn9m8B9HW55pYI+2N4GUXVxFT3312cvSoFXsoe9U0PPbW+BaOpVRo+V/7F/OrzVfPRqem1TY0TRSUX0VPXSwVnwQ7vxn9Nb6+ojenL+Qg/FPritCfzTddIOemllXURN0630zp7ftobfziyopHeWpSFastbRM1tvSUcQWkw+RM+8nIooSV9Or3zc30RQ6o/bQ6/MNRAdKYvokSXnIlDpt2yhR2YgOubQE9UvdEPgzP4f0Rv3ICoepxfKpudADecsidEDsQGIhjH0QPGDjaCOrnNr6b7yMxEFQ2N0XW1eY6jltNV03/52CL++1XTdqlOhHGPoXrpuc0OEXbfDdNuewQZUVP/JKrrtvTSEW/ZXdFnV1CyoqtPbdNsLCDXjFbpsWUeorP9OuuxBhNm9dNeOK6G4jAnldFVtH4RX7xq6qfyhDKivzSK66mAbhFWrfXTT0hyEw4Xf0k2fpCOcjltNF1XdYyAsGr5CN+UhnJ6hi3acgTD5dQVdNARhNJAueikb4dJ9C91TfjLCp0sZXVN+KzyQ2f38vjfcOmbC1FnzFv/p402fffDmf1nP/G786GHXXJp7Ygocqvc83bMtG2GTtYWu2dQFrkrr1Hfs7BV7eCyVXy6eMjy3ORwYXErXvIKwWUjXzKkDt6Tnjnp66fYaJuzQ2vkTBnaGTIfP6JqRCJexdMuh6+COOuc/vOIIRfYuGNEeAunP0C1l7REm51TTJZ+cCBdkXvK7DyvpyHcvDGsD2/oV0SWrUxAeWbvokunHwamMy6asqaYrdhTe2Ar2tP6YLrkf4TGT7ojdBYdSLnr2EF31+bhWsKPuErqjqgfCIjdGV1TdAGd6Pf093Vf7p6GZSFzqc3THFxkIh4ytdEXpxXCi86Pb6ZXD8y5JQaKMyXTHNITDE3TF/p6QO2HsZ/TW3qe6I1F3xeiGWG+Ewak1dMPODhDLfSNGH3x+T3MkZlAV3fBtJtSXuoFu2NgCQsaVH9EvZQ/VQ0IuLqMbpkF9v6UbVmRDJm34Fvppz3ATieh5gC6o6QHVdaqgCxalQyR73B76bXE9JKLDTrpgrQm1mavogjwTEi0nH2IAPjsBiWixkS64A2obTRdMhMQJBZUMxp5uSET2+3SupBVU1qaUzo2HQMYDhxmYb5ogERnv07mXobK36NzTELhqJ4P0bioSkb2RzvWFuobSuQUGbOu6nAGbjoS02EnHvs2EqpoU0bF30mBXw9/XMGix7khIhwN07HdQ1XQ6ti4TNqXcdpAKWILE9CyjU0dyoKa2lXRqWzPYdO5GquEXSMzFVXRqPtT0Ap3a2w721M2nKt5CggbF6FCsJ1TUrZYOHeoOe075ksqobogE3UWnVkJFb9Chit6w544KKuQGJGoynboK6smlQ7VXw5amS6iUBUiU8Rwd2pYG5ayiQ7fDlov3Ui0HkbDUJXToLqimHx16FHakTY1RNRlIWN2P6UxxI6gl5Qs6s8yADR3WUT1tkbjWRXTmcahlGJ3Z2ww2DCmjgnrBhn50pqQRVJKxi47UXggbHqOSLoUdz9CZR6GSMXRmEhKXNpdqOhN2pH9GRw41gDqyD9KRValIWPa7VFRb2NKhlI5MhDom0ZHiHCSs9SaqKgP2DKYjP9SHKpofpiP9kbDuu6mqItj1PB15AKp4hI78JxJ2SQmV9TLsqreFThRlQQ3p++jEhnQkang11TUUtnWvoBPjoYahdKKsIxL1CBVW0xj2/ZpO7EuHEj6jE0ORqHyqbAUkXqETN0EFuXRiLhL1JJV2OSQafksH1kMFC+nAniwk6H4q7T3IXEgnzkHwcmrowGAkaBSVFjsdQovowEIEbzIdWGUgMTfGqLS5kGpTTrmaNgha3WLK1fZAYvpW0wslny549I6br7n07O4/a16vYc5JvS7od+Ovxs34064Y7dmYBbEJdGAKgjaSDuQhMb2P0GU7Fz1+c25zHE2dk6++//mPK5mg73Mgl7GTcsV1EbAvKFfUGAnpWUo3bS8ckoNE1Llg0upqxnekF5zoTwd+hWBdSAduR0K6FNE122cPOgF2ZPaZ/EkNj2l3LzjzNuX+jGC9TrkNKUhEu910yXdTe0CiwfAVMR7V6hZwqFMV5U5BkNrHKJeLRNTbRFcUzz7PhFib+7fwJ1VOS4NjT1LuCQTpacrNR0Lm0gWVf+ibBod6PrOfP1bzbFu4oP5ein1jIDgZhyhW2gqJGEnnDk1uATekXla4j/9k+/ROcMdQyp2F4PSn3H1IxKkVdGrPuPpwjXn2EwtX7Sj/6+bl8+7uCNcYqyk2A8FZQLGv0pCABl/ToS3D0xACp9VSan8qglKnlGIDkIjFdObPVxoIh7kU64OgDKDYVhMJuIeOFI1KQVh0jVHqeQTlJYqNQAJyq+lAze8bIUSWUKqkDoJR9zCl9qYjvma76cCfuiJUzqHY1QjGtRS7F/GZyyn3dX+EzUeUehnBWEipQ9mIbyLl8usidPpTqiIbQahXTqkpiK9zFaWKByCEzC2UGoYgXE+pypaIbwWlPmiNULqFUu8gCC9TqhDxDaFQzUMpCKf0PRSqaQ7/ZR2hUKwT4mq4nzLfnIXQGkepO+C/QZRajPjyKbO8AcKr/iEKfQT/vUqp/0BcZ8Yo8vxxCLPJlDoRfqtfQaGViCtlA0UeQbi1qKTQOPjtOkpdjrjupkT1zQi7Agothd9mUmi3iXhOKKVAycUIvTMpVJICn31BoWmIaxEFdp+CCNhBodPhr6aU6ol4fkmB3e0QBZModDf8NYBC2xCPuZn2FXVBJHSl0GL46xkKPYJ4rqV9pWcgIj6nzEEDvtpIoc6Iw9hI2yrOR1SMp1BX+KlRjDIbEE9f2lbdD5HRjkK3w0/9KDQO8XxCu2KDESGrKfMH+GkaZWI5iOMS2vYbRMloyuyBnz6lzIeIZyXtmotIaV5DmfbwT3YtZUYhjnNp16Z6iJZ3KHMz/HMZZaqbIo53aFNpJ0TMMMo8B/9MocxbiKMX7RqIqMmuoMgO+GcNZYYijtdp0wxEzyuUOQF+yaqmTFMcW3fatDYd0XMLZW6AXy6izJeIYwHtKW6LCOpAmTz45U7K5OHYMspoz82IpL0U+RJ+yafMQBzbZbTnAwOR9BJlmsInH1CmFY5tNm2p6oJoGkWZC+GTAxT5GnHsoS2PI6K6UeZ2+KMJZSwcWyZt2VkXEWUUUeT/wB9nU+YmHNvPactliKzFFHkD/hhBmRNxbLm0YxGi626KbIU/plHkO8RxLW0oOwHRdRpFqlLhi6UUmY84rqQNUxFhKSUUaQ9ffEORkYijFxN35HhE2VKKXAo/1I1RpBPiaM3E/R6Rdh9F7oAfelBkH+I5LsZEVbVGpP2CIr+HH26gyGuI63MmqgDRllZNiWXww6MUeRJxPc4E1fwMEbeNEjvgh4UUGYm4zmaC5iHq3qRETRp8sIkiFyCulCImJHYSou5pinSCD0ookoP4HmNC5iLyfk2RK+C9NIocMRFfgx+YgB+aI/IuocgYeK8lRb5AIsYzAbch+tpRJA/e60aRxUhEve8Y1ycmoi+lkhLL4b3eFJmKhPQ8wjhqTkUy2EyJXfDeNRQZicQMYRxPISm8RolYBjx3G0XOR4Km8ZieNJAUnqJIC3juAYq0RqIm8Ohqf4MkMZIiP4fnplPiiIGEXX+ER3HkaiSL8ynSA56bR4lNsOHMzfxJB3KRNFpTJBeee4sSi2FH6q++57/59s56SB5GOSUuhefWUiIP9mQ+9DX/xZ8HpyKpfEuJa+C5nZR4ErZ1vX/NEf7N4c8XTb7UQJL5ghLD4LlSSkyASIPO55/bykAyWkOJ0fBaOkXGQLNnOSXGw2stKXIrNHtepcQkeK0rRW6AZs98SjwNr51MkSug2ZNPiUJ4rStFekOz5ylKvASvnUSR06HZ8zAllsBrnSjSCZo991DifXitA0VaQbPnNkp8Cq+1p0g2NHsGU+IreO1EiqRAs6c/JfbAa20pUQ7NposoUQKv5VDiADSbzqJEDbx2AiVKoNl0PiUOw2stKVFrQLOnLyX2wWstKFIPmj03UOJreK05RY6HZs8ISmyE15pSpD00e+6ixCp4rTFFekCz50FKLIPXGlIkF5o9kymxCF7LoMgvodkzgxLPw3MllLgWmj3PU2IGPLedEsOh2bOIEpPhudWU+A00e5ZR4kF4bjElHoBmzypK3AXPzabEE9Ds2UiJEfDcY5SYAc2erykxEJ67gxIvQrOnmBJXwHPXU2INNFsaUqQ3PNebEkXQbOlFkZ7wXBeKNIJmx40U6QzPNaVIL2h2PEyR1vCcWUOJQdDseJEi2fDePkpMhGbHWkoUwwd/psR8aHb8lRIfwwfLKbEGmg3NKDIXPniREsXQbDiLIg/BBw9TpDG0xN1EkYHwwTUU6QUtcZMochp80JkiN0JL3B8pUh8+SK2kxMPQEreBEvvgi42UmA8tcWWU+BC+mE+JzdAS1pEiFnxxH0WaQUvUCIqMhy8up8gAaImaS5Gr4Yu2FHkGWqJ2UeQU+MIopcQGaAlqS5FYXfjjY0rUNoCWmCEU+Qt8UkCRK6AlppAi78End1JkKrTEbKNIPnxyIUXWQEtIS8qMhU+aU6Q6E1oirqdMP/jlAEUuhpaImZRpD7+8TZHHoCViE0X2wjfjKbISWgKaxCjyX/BNL4pUZECLrz9lfg3fpJZQ5CJo8c2gzMnwzxsUKYAWV8r3FCk24J+7KfJDGrR4LqLMa/BRd8r0gxbPs5QZCx8ZBynyB2hxpP+VMmfATwspcjgT2rH1p0xZKvw0ijKDoB3bHynzNnzVmTJvQDumrHLKPAB/7aFIVWNoxzKYQufAX/MpMxLasSylTEUG/DWcMiugHUOTasqshM/aUaa2FbSju41Ck+C3byhzN7Sj+4BCl8BvBZRZB+2oWscoU5MFv11CoZOgHc1vKbQWvkvdTxkL2lGk76HQk/DfDMpUtoT2026hVC78l0uhqdB+krmVQrsM+M/YRZmSbGg/pT+lpiAIUyl0H7Sf8jGluiMIp1Jobzq0f3cupTYjGFspNALav1tCqQcRjIkU2mpC+7FuFGuPYHSi1FXQfuwFSn2CoKyn0BpoP5JTTak7EZRxlDoP2r+aTqnaFghKToxCb0L7F43KKLUcwfmQUidD+2cPUuwWBGcUpV6D9k8aF1OqsiGC06yKUn2g/UMexV5FkOZRamsatP91ai3FrkOQTqPYOGh/Z6yiWGldBOp9SpW2hPY/BlNuHoJ1JcXmQft/svZQ7jIEy9xOsbOh/c1Uyh08DgEbTbH1JjSgYxXlpiBomT9Q7DZowDLK1eQgcFMoVtQI2pV0YCGC17qaYrOQ9DJ20IGzoYAFFKvtjmT3EB34FCo4g3IfIsnllNOBIVDCh5S7DUnNWEoHvk+DEgZQ7kg3JLN76MREqCFlB+W+rIvkdUYVHahsDkXcSQcKkbSyd9CJAqgi6wAdGIhk9RKdqD4RyriDDpT8DMnpVjryPNRx3Nd0YF0aklGXcjpR0wEKuY5OTEMSqrOJjsyHSoy1dOJyJJ85dKS2M5TSm04caIVkcx2deQmKWUInVqQguZx4iI7EukEx3WrpxAQkleM+oTMvQznP0omaC5BMptOZ2pOhnBOO0IlD3ZE87qJDhVDQE3RkbzskixtidKasJRTUoIiObGuG5HBxFR2aACXdRWfWZSIZ9CylQ7vrQknpO+nMO2mIvg776dQwKGoQHVpgIOpa7KRT600oythAh6Yj4rI30rHzoaxBdOo+RFr6Cjr2OtTVsIZODUOEmYvoWEUHKOwjOlV9OaIrj85NhMpepWPlv0BUTaRzW9KhsvfpXPEvEE3j6YLzoLTP6YLyyxFBxtN0wXNQWvpf6YbqYYictAV0wcEmUNpguuQ+REzmO3TDTVBa/W10y3QDUdJsHd3wHpRmvEz3LEhDdLTbRjdUdITKjJl00zuZiIrue+mKe6EyYybdta4ZoqH3IbpipQmFGbPotm3tEAVXV9AVpe2gMGMW3be3O8Lv9lq6YzgUZsyiFw5dgJAzHqVLXoPCjFn0Rs2EFIRZs2V0yf5mUJcxi55Z0QrhdeFeuuVKqMuYRQ8duBwhlTqplm6xoC5jFr01LQ1hlLOKrvk6C8oyZtFr636G8OlfTNcc6Q5lGbPovZKBCJn0/6SLboayjFn0RWFdhEnHDXRRAZRlzKJPvuyG8BhaRhd9mgFVGbPomyO3ISSy5tJNxe2gKmMW/fRhd4SAMXgP3RS7DKoyZtFftbMaQXU9VtFdj0JVRh59V3SbCZU1zqulu942oSgjj0FYfzaUlXJ7EV22uQEUZeQxIPNaQk25G+i2fe2gKCOPgSkdlwb1tJpP15X3gqKMPAZpax8oJu2+UrouNgCKMvIYsNdOhkLMAV/RA2OhKCOPwXvzPCgifcRWemEmFGXkUQlrrjIRvOx799ITb6ZATUYeVbF1RDqC1XLKIXpjfSbUZORRIXvvy0ZwOhVW0iNbm0NNRh7VUjK1JYLxH4tj9Mo3raEmI4/KqbROgu/My1fSO3vbQ01GHpW07u5W8FPPabvpoaKuUJORR1XVrhjZGP7o/Mg2eqrkdKjJyKPKqt4YlAmv5YzbQI+VnwM1GflU3eE/9EuDd5qO+jBGr1X2gZqMfIbBDwUXZcALTYe+VU3vVfWHmox8hkXFyscuzoSbWg3M+5K+KLsYajLyGSrVa6Ze0QBuOPEm62v6pagX1GTkM3xqNzwzoBmc6DRy/nf00V9OgpqMfIbV5vkP39irMWwycy4Y+eRr++ivrTlQk5HPkCteM3/ioF6NEJfR+vyRUxd/cYQBWNcUajLyGRFFa16c8cQDvxl+7S9ze7Q/vp4BICW7VafTe19xw61jJjyZt3jTEQZmeRbUZOQzompLDpRTFYvSoSYjn5r35qRATUY+Ne89DkUZ+dQ8FxsDRRn51DxXPRSKMvKpee5wXyjKyKfmua+6QVHGbGqeeyUbijJmU/Nazb0GFGXMpua1fb2hKmM2Na+tbgVVGbOpee2Z46AqYzY1j5UNhLKM2dQ8tqULlGXMpuaxhVlQljGbmreqx0Jdxmxq3tp1DtRlzKbmqdjMLKjLmE3NU1tzoTBjNjUv1TyRAYUZs6l5acOpUJkxm5qHKn6bCpUZc6h5aFUnKM2Yw8BV7d7wzvoYo6h0tAmlGXMYtD1jsvF/NRn0KSPnrTZQmzGHQXu3Gf7OuG47I6VoKBRnzGHQrBT8w3F3HGBkVE5vAsUZcxg0y8S/qD+pnJFQ+0JbqM6Yw6BZJn6sVUENw++NblCeMYdBs0z8hC6vM+RW5UJ9xhwGzTLx0879hCH2RT+EgDGHQbNMHI1x7XaG1K5hKQgBYw6DZpk4huNGH2AIHRyTgTAw5jBololjy7pzB0Pm8KRshIIxh0GzTMSVMuBDhsi+R5ojHIw5DJplIiFnLKhmOHw2NB0hYcxh0CwTiWo95Qcqr2ZhLkLDKGDQLBM2ZI7eTqUVT85BeBgFDJplwh7zyveprC9G1kWIGAUMmmXCvtPmVVFBsdcvRKgYBQyaZUKk2agPY1TLoafbI1yMAgbNMiGWM249lVG6oH8GQsYoYNAsE450mriVCjj80oA6CB2jgEGzTDh26tRdDFT5wmvrIoSMAgbNMuEGI3fGfgbkyMvX10MoGQUMmmXCLamXFHxD31W8OigLIWUUMGiWCVe1Gz5/D/3zxczr6iO0jAIGzTLhvs6jFh6k52IbnxnQFGFmFDBolglvGN3vfqOEnqn9dFq/Rgg5o4BBs0x4KLXX+LcP0HXVa6Zclo3wMwoYNMuE55pfeGfBx6V0x4EP8u+8KAuRYBQwaJYJnxhtL79v/sZKisW+WTptxNlNEB1GIYNmmfBXaudrHn5x+ab9tbShZNPCR2/oURcRYxQyaJaJgKQcf/JFg+6e/Oybn35XyZ9QunPtW/OmP3DbNb27tUxDJBmFDJplQgUNjm/ZqnVO23Y/a//zjp1O6tLt5K4t0xF5RiGDZpnQgmIUMmiWCS0oRiGDZpnQgmIUMmiWCS0oRiGDZpnQgmIUMmiWCS0oRiGDZpnQgmIUMmiWCS0oRiGDZpnQgmIUMmiWCS0oRiGDZpnQgmIUMmiWCS0wUxg0y4QWmJEMmmVCC0yfGgbMMqEF5pQSBswyoQWm1XcMmGVCC0zmegbMMqEFJmUJA2aZ0IIzkwGzTGjBGcKAWSa04DQ+wGBZJrQAPctgWSa0AJ3HYFkmtAClb2GgLBNakCYwUJYJLUgdKxgky4QWqPcYJMuEFqihDJJlQgtUyi4GyDKhBesqBsgyoQXsXQbHMqEFrAuDY5nQgjaLgbFMaEHLLmNQLBNa4O5kUCwTWuCMrxgQy4QWvD4MiGVCU8ALDIZlQlPBdgbCMqGpoCkDYZnQlNCXQbBMaGp4nAGwTGiKWEH/WSY0RaSU0XeWCU0VPeg7y4SmjNvpN8uEpo459JllQlPIi/SXZUJTyUL6yjKhKeU1+skyoanlLfrIMqEp5l36xzKhqWYVfWOZ0JSzln6xTGjq2UifWCY0BW2iPywTmoqW0ReWCU1Js+gHy4SmpnvoA8uEpqir6T3LhKaq9vScZUJT1y56zDKhKew5essyoalsCD1lmdCU1qKWHrJMaIpbSu9YJjTVXU3PWCY05aUdoEcsE1oIPEVvWCa0MDj+ML1gmdDCYRI9YJnQQiK7iK6zTGihMZZus0xo4ZHyMd1lmdDCpH0Z3WSZ0MLlVrrIMqGFzSK6ZooBLXTqrKY7akZCC6PGW+iGkj7QwqnNHjr33SnQwqrrfjq1vhW08Oq2n84syYQWZt3204mZKdDCreseih0YAi302myh0LONoUVA49WU2HIetGios4i2VUxIhxYZt5bRnvc6QouS9h/Thl1DoUVMytgiJujdq1KgRU/2pMOMr2xWF2gRdfxTB3hsX92ZDS3C0q5eWsuj2f5CHwNa1LUY8twu/ljZisf7NoWWLNpffc+sZZs2rl317luvLXxxzu09UqBFxn8D8jI/iZTXmXkAAAAASUVORK5CYII=;" vertex="1" parent="4PjAWpCSvwtjcIhG53Dn-1">
          <mxGeometry x="-727" y="893" width="25" height="25" as="geometry" />
        </mxCell>
        <mxCell id="cHlt6XvXjapsiLMhFMaN-1" value="Ver detalhes&amp;nbsp;" style="text;html=1;align=center;verticalAlign=middle;whiteSpace=wrap;rounded=0;" vertex="1" parent="4PjAWpCSvwtjcIhG53Dn-1">
          <mxGeometry x="-706" y="899" width="88" height="28" as="geometry" />
        </mxCell>
        <mxCell id="cHlt6XvXjapsiLMhFMaN-2" value="Legenda" style="text;html=1;align=center;verticalAlign=middle;whiteSpace=wrap;rounded=0;fontStyle=1" vertex="1" parent="4PjAWpCSvwtjcIhG53Dn-1">
          <mxGeometry x="-756" y="851" width="60" height="30" as="geometry" />
        </mxCell>
      </root>
    </mxGraphModel>
  </diagram>
  <diagram id="dEd_5x-Dby5oJ5JY3EwZ" name="Serviço de validações">
    <mxGraphModel dx="2439" dy="479" grid="0" gridSize="10" guides="1" tooltips="1" connect="1" arrows="1" fold="1" page="0" pageScale="1" pageWidth="827" pageHeight="1169" math="0" shadow="0">
      <root>
        <mxCell id="0" />
        <mxCell id="1" parent="0" />
        <mxCell id="LeKAQuKKO7skneQGJhTF-17" style="edgeStyle=orthogonalEdgeStyle;rounded=0;orthogonalLoop=1;jettySize=auto;html=1;entryX=0.5;entryY=0;entryDx=0;entryDy=0;entryPerimeter=0;curved=1;" parent="1" source="LeKAQuKKO7skneQGJhTF-13" target="LeKAQuKKO7skneQGJhTF-16" edge="1">
          <mxGeometry relative="1" as="geometry" />
        </mxCell>
        <object placeholders="1" c4Name="DEV/QA" c4Type="Person" c4Description="Responsável pela homologação dos cenarios de testes" label="&lt;font style=&quot;font-size: 16px&quot;&gt;&lt;b&gt;%c4Name%&lt;/b&gt;&lt;/font&gt;&lt;div&gt;[%c4Type%]&lt;/div&gt;&lt;br&gt;&lt;div&gt;&lt;font style=&quot;font-size: 11px&quot;&gt;&lt;font color=&quot;#cccccc&quot;&gt;%c4Description%&lt;/font&gt;&lt;/div&gt;" id="LeKAQuKKO7skneQGJhTF-13">
          <mxCell style="html=1;fontSize=11;dashed=0;whiteSpace=wrap;fillColor=#083F75;strokeColor=#06315C;fontColor=#ffffff;shape=mxgraph.c4.person2;align=center;metaEdit=1;points=[[0.5,0,0],[1,0.5,0],[1,0.75,0],[0.75,1,0],[0.5,1,0],[0.25,1,0],[0,0.75,0],[0,0.5,0]];resizable=0;" parent="1" vertex="1">
            <mxGeometry x="-756" y="480" width="200" height="180" as="geometry" />
          </mxCell>
        </object>
        <object placeholders="1" c4Name="Engine validator" c4Type="SystemScopeBoundary" c4Application="Validador de logs da execução de cenários de testes do Motor de conformidade" label="&lt;font style=&quot;font-size: 16px&quot;&gt;&lt;b&gt;&lt;div style=&quot;text-align: left&quot;&gt;%c4Name%&lt;/div&gt;&lt;/b&gt;&lt;/font&gt;&lt;div style=&quot;text-align: left&quot;&gt;[%c4Application%]&lt;/div&gt;" id="LeKAQuKKO7skneQGJhTF-15">
          <mxCell style="rounded=1;fontSize=11;whiteSpace=wrap;html=1;dashed=1;arcSize=20;fillColor=none;strokeColor=#666666;fontColor=#333333;labelBackgroundColor=none;align=left;verticalAlign=bottom;labelBorderColor=none;spacingTop=0;spacing=10;dashPattern=8 4;metaEdit=1;rotatable=0;perimeter=rectanglePerimeter;noLabel=0;labelPadding=0;allowArrows=0;connectable=0;expand=0;recursiveResize=0;editable=1;pointerEvents=0;absoluteArcSize=1;points=[[0.25,0,0],[0.5,0,0],[0.75,0,0],[1,0.25,0],[1,0.5,0],[1,0.75,0],[0.75,1,0],[0.5,1,0],[0.25,1,0],[0,0.75,0],[0,0.5,0],[0,0.25,0]];" parent="1" vertex="1">
            <mxGeometry x="-534" y="459" width="1665" height="639" as="geometry" />
          </mxCell>
        </object>
        <mxCell id="7SdNgmDDBE8yBlOPd0A3-4" style="edgeStyle=orthogonalEdgeStyle;rounded=0;orthogonalLoop=1;jettySize=auto;html=1;" parent="1" source="LeKAQuKKO7skneQGJhTF-16" target="7SdNgmDDBE8yBlOPd0A3-1" edge="1">
          <mxGeometry relative="1" as="geometry" />
        </mxCell>
        <object placeholders="1" c4Name="Recepção de arquivos" c4Type="Container" c4Description="Recepciona arquivos de log e arquivo da especificação da API" label="&lt;font style=&quot;font-size: 16px&quot;&gt;&lt;b&gt;%c4Name%&lt;/b&gt;&lt;/font&gt;&lt;div&gt;&lt;/div&gt;&lt;br&gt;&lt;div&gt;&lt;font style=&quot;font-size: 14px&quot;&gt;&lt;font &gt;%c4Description%&lt;/font&gt;&lt;/div&gt;" id="LeKAQuKKO7skneQGJhTF-16">
          <mxCell style="rounded=1;whiteSpace=wrap;html=1;fontSize=11;labelBackgroundColor=none;fillColor=#23A2D9;fontColor=#ffffff;align=center;arcSize=10;strokeColor=#0E7DAD;metaEdit=1;resizable=0;points=[[0.25,0,0],[0.5,0,0],[0.75,0,0],[1,0.25,0],[1,0.5,0],[1,0.75,0],[0.75,1,0],[0.5,1,0],[0.25,1,0],[0,0.75,0],[0,0.5,0],[0,0.25,0]];" parent="1" vertex="1">
            <mxGeometry x="-510" y="622" width="240" height="120" as="geometry" />
          </mxCell>
        </object>
        <mxCell id="LeKAQuKKO7skneQGJhTF-18" value="Realiza upload dos arquivos de log e do arquivo da especificação da api" style="text;html=1;align=center;verticalAlign=middle;whiteSpace=wrap;rounded=0;" parent="1" vertex="1">
          <mxGeometry x="-530.75" y="516" width="205.5" height="64" as="geometry" />
        </mxCell>
        <object placeholders="1" c4Name="Validação de schema" c4Type="Container" c4Description="Valida request e response através da especificação da API" label="&lt;font style=&quot;font-size: 16px&quot;&gt;&lt;b&gt;%c4Name%&lt;/b&gt;&lt;/font&gt;&lt;div&gt;&lt;/div&gt;&lt;br&gt;&lt;div&gt;&lt;font style=&quot;font-size: 14px&quot;&gt;&lt;font &gt;%c4Description%&lt;/font&gt;&lt;/div&gt;" link="data:page/id,GjP_CtnLfWP7tgh8tDcY" id="LeKAQuKKO7skneQGJhTF-25">
          <mxCell style="rounded=1;whiteSpace=wrap;html=1;fontSize=11;labelBackgroundColor=none;fillColor=#23A2D9;fontColor=#ffffff;align=center;arcSize=10;strokeColor=#0E7DAD;metaEdit=1;resizable=0;points=[[0.25,0,0],[0.5,0,0],[0.75,0,0],[1,0.25,0],[1,0.5,0],[1,0.75,0],[0.75,1,0],[0.5,1,0],[0.25,1,0],[0,0.75,0],[0,0.5,0],[0,0.25,0]];verticalAlign=middle;fontFamily=Helvetica;" parent="1" vertex="1">
            <mxGeometry x="-233" y="853" width="240" height="120" as="geometry" />
          </mxCell>
        </object>
        <object placeholders="1" c4Name="Validação de sequencia" c4Type="Container" c4Technology="e.g. SpringBoot, ElasticSearch, etc." c4Description="Valida sequencia da execução das itens do log baseado no sumario do cenário" label="&lt;font style=&quot;font-size: 16px&quot;&gt;&lt;b&gt;%c4Name%&lt;/b&gt;&lt;/font&gt;&lt;div&gt;&lt;/div&gt;&lt;br&gt;&lt;div&gt;&lt;font style=&quot;font-size: 14px&quot;&gt;&lt;font &gt;%c4Description%&lt;/font&gt;&lt;/div&gt;" link="data:page/id,3QteBEmTiDwL6ACKbh2g" id="LeKAQuKKO7skneQGJhTF-26">
          <mxCell style="rounded=1;whiteSpace=wrap;html=1;fontSize=11;labelBackgroundColor=none;fillColor=#23A2D9;fontColor=#ffffff;align=center;arcSize=10;strokeColor=#0E7DAD;metaEdit=1;resizable=0;points=[[0.25,0,0],[0.5,0,0],[0.75,0,0],[1,0.25,0],[1,0.5,0],[1,0.75,0],[0.75,1,0],[0.5,1,0],[0.25,1,0],[0,0.75,0],[0,0.5,0],[0,0.25,0]];verticalAlign=middle;fontFamily=Helvetica;" parent="1" vertex="1">
            <mxGeometry x="34" y="853" width="240" height="120" as="geometry" />
          </mxCell>
        </object>
        <object placeholders="1" c4Name="Validação de status code" c4Type="Container" c4Description="Verifica status code recebido pela execução de uma operação com o esperado pelo sumario do cenário" label="&lt;font style=&quot;font-size: 16px&quot;&gt;&lt;b&gt;%c4Name%&lt;/b&gt;&lt;/font&gt;&lt;div&gt;&lt;/div&gt;&lt;br&gt;&lt;div&gt;&lt;font style=&quot;font-size: 14px&quot;&gt;&lt;font &gt;%c4Description%&lt;/font&gt;&lt;/div&gt;" link="data:page/id,EQgmJDx0UmEzZQA2SyTF" id="LeKAQuKKO7skneQGJhTF-27">
          <mxCell style="rounded=1;whiteSpace=wrap;html=1;fontSize=11;labelBackgroundColor=none;fillColor=#23A2D9;fontColor=#ffffff;align=center;arcSize=10;strokeColor=#0E7DAD;metaEdit=1;resizable=0;points=[[0.25,0,0],[0.5,0,0],[0.75,0,0],[1,0.25,0],[1,0.5,0],[1,0.75,0],[0.75,1,0],[0.5,1,0],[0.25,1,0],[0,0.75,0],[0,0.5,0],[0,0.25,0]];verticalAlign=middle;fontFamily=Helvetica;" parent="1" vertex="1">
            <mxGeometry x="303" y="853" width="240" height="120" as="geometry" />
          </mxCell>
        </object>
        <object placeholders="1" c4Name="Validação de regras de negocio" c4Type="Container" c4Description="Verifica validações negociais no sumario do cenário contemplado pela execução das operações." label="&lt;font style=&quot;font-size: 16px&quot;&gt;&lt;b&gt;%c4Name%&lt;/b&gt;&lt;/font&gt;&lt;div&gt;&lt;/div&gt;&lt;br&gt;&lt;div&gt;&lt;font style=&quot;font-size: 14px&quot;&gt;&lt;font &gt;%c4Description%&lt;/font&gt;&lt;/div&gt;" link="data:page/id,ZDgUGs8557kluPzGpwOa" id="LeKAQuKKO7skneQGJhTF-28">
          <mxCell style="rounded=1;whiteSpace=wrap;html=1;fontSize=11;labelBackgroundColor=none;fillColor=#23A2D9;fontColor=#ffffff;align=center;arcSize=10;strokeColor=#0E7DAD;metaEdit=1;resizable=0;points=[[0.25,0,0],[0.5,0,0],[0.75,0,0],[1,0.25,0],[1,0.5,0],[1,0.75,0],[0.75,1,0],[0.5,1,0],[0.25,1,0],[0,0.75,0],[0,0.5,0],[0,0.25,0]];verticalAlign=middle;fontFamily=Helvetica;spacingTop=7;" parent="1" vertex="1">
            <mxGeometry x="571" y="853" width="240" height="120" as="geometry" />
          </mxCell>
        </object>
        <mxCell id="LeKAQuKKO7skneQGJhTF-57" style="edgeStyle=orthogonalEdgeStyle;rounded=0;orthogonalLoop=1;jettySize=auto;html=1;entryX=0;entryY=0.5;entryDx=0;entryDy=0;" parent="1" source="LeKAQuKKO7skneQGJhTF-33" target="LeKAQuKKO7skneQGJhTF-39" edge="1">
          <mxGeometry relative="1" as="geometry" />
        </mxCell>
        <object placeholders="1" c4Name="Serviço de Relatório" c4Type="Container" c4Description="Monta relatório com todos os pontos de validações executados e exporta para o formato CSV" label="&lt;font style=&quot;font-size: 16px&quot;&gt;&lt;b&gt;%c4Name%&lt;/b&gt;&lt;/font&gt;&lt;div&gt;&lt;/div&gt;&lt;br&gt;&lt;div&gt;&lt;font style=&quot;font-size: 14px&quot;&gt;&lt;font &gt;%c4Description%&lt;/font&gt;&lt;/div&gt;" id="LeKAQuKKO7skneQGJhTF-33">
          <mxCell style="rounded=1;whiteSpace=wrap;html=1;fontSize=11;labelBackgroundColor=none;fillColor=#23A2D9;fontColor=#ffffff;align=center;arcSize=10;strokeColor=#0E7DAD;metaEdit=1;resizable=0;points=[[0.25,0,0],[0.5,0,0],[0.75,0,0],[1,0.25,0],[1,0.5,0],[1,0.75,0],[0.75,1,0],[0.5,1,0],[0.25,1,0],[0,0.75,0],[0,0.5,0],[0,0.25,0]];" parent="1" vertex="1">
            <mxGeometry x="867" y="622" width="240" height="120" as="geometry" />
          </mxCell>
        </object>
        <mxCell id="LeKAQuKKO7skneQGJhTF-39" value="" style="shape=image;verticalLabelPosition=bottom;labelBackgroundColor=default;verticalAlign=top;aspect=fixed;imageAspect=0;image=data:image/png,iVBORw0KGgoAAAANSUhEUgAAAgAAAAIACAYAAAD0eNT6AAAACXBIWXMAAA7DAAAOwwHHb6hkAAAAGXRFWHRTb2Z0d2FyZQB3d3cuaW5rc2NhcGUub3Jnm+48GgAAIABJREFUeJzt3XmcHHW9/f9TvUzPvk9msu8JEEggIBEQSWIIEEUEDUFBroLLdUG4bqhcvbjLvS7XH6jcq6ICIgJXZQcTFkH2hEACIYFksu+zT89090x31fcPTX4EkjDTVd2f6q7X8z8epD51MpDU6ap3f0oCAAAAAAAAAAAAAAAAAAAAAAAAAAAAAAAAAAAAAAAAAAAAAAAAAAAAAAAAAAAAAAAAAAAAAAAAAAAAAAAAAAAAAAAAAAAAAAAAAAAAAAAAAAAAAAAAAAAAAAAAAAAAAAAAAAAAAAAAAAAAAAAAAAAAAAAAABQwy3QA5M7WrVvLOm271HQOIIgG9qbtE06Y3G06B3AoFIAC5zhOaG3rthlWSPNk6W1yNF3SBEkNkkJm0wHB1dET197OHicaCveXxqLLwqX6t9NmzdpoOhewDwWgQK1t3T7dseyPWNKHJI0znQfAgTp64trd1rX/n8PhkF1ZWXrN/BNmfc1gLGA/CkCBWbNpx+ywk7nKkd4nPuEDvvXGAiBJliVVV5T/Yv6cWZ82FAvYjwJQIF7Ztq0hNOh8z5E+Ji78gO8drADs01BT+bl3nnDMtXmOBByAC0kBWLtp2zxr0FnlSJ8Q/82AgtcV7//vZStWzzSdA8HGxcTnXtm47atynGWSRpnOAsAbmYwdGkwkH1m+fHnUdBYEFwXApxzHsda1bvuhJed74r8TUHSSqXR9dzpyr+kcCC4uLD61btO2nziW8wXTOQDkTm9/8vS/LX+ZP+cwggLgQ2tbt3xd0uWmcwDILcdx1BOPX/Pwsy/PMJ0FwUMB8JlXNm45Q5Z1tekcAPIjnbHDqYHE4y+//HKJ6SwIFgqAj6xubW22ZN0o/rsAgZJMDdbt6h28x3QOBAsXGh+JWJH/lDTCdA4A+cc8APKNAuATr2zadpIl68OmcwAwg3kA5BsFwCcsx/mG2JkRCDTmAZBPFAAfWNe6bZakM0znAGAe8wDIFwqAH4Scj4lP/wD+iXkA5AMFwLDly5dHHUdLTOcA4B/MAyAfKACGVdU1zZHUZDoHAH9hHgC5RgEwzLGsuaYzAPAn5gGQSxQAw6yQNcd0BgD+1dufPP2R5166wnQOFB8KgGGOo+mmMwDwL8dx1NvX96NlK1bPNJ0FxYUCYJDjOCFJE0znAOBvmYwdGkwkH1m+fHnUdBYUDwqAQevXr6+UxB9oAG8pmUrXd6cj95rOgeJBATAoE4tVms4AoHAwDwAvUQAMstMRPv0DGDLmAeAlCgAAFJB/zAOkHmV/ALhFAQCAAsP+APACBQAAChDvC4BbFAAAKECO46g7Hv9P5gGQLQoAABQo5gHgBgUAAAoY8wDIFgUAAAoc8wDIBgUAAAoc8wDIBgUAAIoA8wAYLgoAABQJ5gEwHBQAACgizANgqCgAAFBEmAfAUFEAAKDIMA+AoaAAAEARYh4Ab4UCAABFinkAHA4FAACKFPMAOBwKAAAUMeYBcCgUAAAocswD4GAoAAAQAMwD4I0oAAAQAMwD4I0oAAAQEMwD4PUoAAAQIMwDYB8KAAAEDPMAkCgAABA4zANAogAAQCAxDwAKAAAEFPMAwUYBAIAAYx4guCgAABBgzAMEFwUAAAIuk7FD6cTgI4884kRMZ0H+UAAAAEqkUvV2+Yv3ms6B/KEAAAAkSb19yYXMAwQHBQAAIIl5gKChAAAA9mMeIDgoAACAAzAPEAwUAADAmzAPUPwoAACAN2EeoPhRAAAAB8U8QHGjAAAADol5gOJFAQAAHBbzAMWJAgAAOCzmAYoTBQAA8JaYByg+FAAAwJAwD1BcKAAAgCFjHqB4UAAAAEPGPEDxoAAAAIaFeYDiQAEAAAwb8wCFjwIAAMgK8wCFjQIAAMgK8wCFjQIAAMga8wCFiwIAAHCFeYDCRAEAALjGPEDhoQAAAFxjHqDwUAAAAJ5gHqCwUAAAAJ5hHqBwUAAAIAcs0wEM6oknFz6+fM3lpnPg8CgAAJADlhXkCuCoM977Y+YB/I0CAAA5EAp0AWAeoBBQAAAgB8LhsOkIxjEP4G8UAADIgZIoH3wl9gfwMwoAAORAJByWFQr2YwDpH/sD9MT7rnn4hRdmmM6CA1EAACAHLEsqj5WYjuEL6UwmPBC3H2MewF8oAACQIxWlMdMRfIN5AP+hAABAjlRVlpuO4CvMA/gLBQAAcqQkGlFpSdR0DN/gfQH+QgEAgByqq6k0HcFX2B/APygAAJBDNVUVikS41r0e8wD+QAEAgByyJDXVVZmO4Tu8L8A8CgAA5FhNZYXK+ErgG/C+ANMoAACQY5YljWyqC/z7Ad4ok7FDmeTAw8wDmEEBAIA8iJVE1dxQYzqG7/QnBxqYBzCDOmrQmtYd40NWZpPpHH6UsgfVlu5WfyZlOgoOIWKFVBepUk2kQhZ/lQzZrrZOdfb0mY7hM5Yaa6qvOPWEo35qOkmQ8KfWIArAgQactO7teFrLulZqfWK76TgYoupIueZUHanzG0/TuNgI03F8z3Ec7djTqZ6+ftNRfCUSDmcqaktmzT/22JdNZwkKCoBBFID/38bkTn1zy03aOdBhOgqyFFZYHxoxXxeOmM8dgbfgOI52t3Wps5c7Aa9XFot1xAaPa543z0qbzhIEzADAuNbkTv1b6/Vc/AtcRhndtGepfrHjbtNRfM+yLLU01amxrloWg4H7sT9AflEAYFTKHtQ3t9yohM2z/mJxZ8eTerT7RdMxCkJTXbXGtTQqEgmbjuIbPfHEwr+tWLPEdI4goADAqHs6ntaugU7TMeCxG3Y/oIxs0zEKQnlZTJPHNqu+ppIHJ/+USCSuM50hCCgAMGpp5wrTEZADuwc6tSreajpGwQhZITU31GryuJGqq64I/H4BidRA49MrVh1vOkexowDAmHgmoY2pXaZjIEde6t9oOkLBiUbCamms09TxI9XSVKfyspiC2gUSti4ynaHYsfsSjGkf7DUdATnUlu4xHaFghUIh1VVVqK6qQo7tqD+VUiqVVmpwUIPpjBzHke0U9yOWcMhqMJ2h2FEAYEwsxHvSi1lM/Pf1ghWyVFFWqooy00nyy5LWmM5Q7HgEAGMaolUqseigxWpkrN50BACHQQGAMVErouMqp5iOgRw5seoI0xEAHAYFAEYtbnyn6QjIgbdXHaXRJY2mYwA4DAoAjDqmYpLm1x5nOgY8VBku1SdGLjIdA8BboADAuCtGnadjKyebjgEPlIViumrchXz6BwoABQDGxUJRfW/CpbqgaR5DgQXsqPLx+u/Jn9bsiqmmowAYAv62hS+EFdJHm8/Qe+tP0mM9q7W6b6M60r1KO7wUzM+qwxUaF2vSSdVHaVYFd3GAQkIBgK80RKt1bsMpOrfhFNNRAKCo8QgAAIAAogAAABBAFAAAAAKIAgAAQABRAAAACCAKAAAAAUQBAAAggCgAAAAEEAUAAIAAogAAABBAFAAAAAKIAgAAQABRAAAACCAKAAAAAUQBAAAggCgAAAAEEAUAAIAAogAAABBAFAAAAAKIAgAAQABRAAAACCAKAAAAAUQBAAAggCgAAAAEEAUAAIAAogAAABBAFAAAAAKIAgAAQABRAAAACCAKAAAAARQxHQA4mI50rzoGe+SYDgLkUEW4VM0ldQrzWQwGUADgGwk7pTvaHtfDXSu1Y6DddBwgLypCpZpTfaQuaJyn8aUjTMdBgFAA4Atr+7fom1tuUke613QUIK/67KQe7lqpv3W/qH8ZsVDnN50mS5bpWAgA7jvBuLWJrfrypl9y8UegZRxbN+x+QL/d/VfTURAQFAAYlbBT+vaWm5SyB01HAXzhj3sf1fL4q6ZjIAAoADDqzvYn1TbYYzoG4BuOHP1q1/2mYyAAKAAwalnXStMRAN/ZmNyp1uRO0zFQ5CgAMKY306+tqT2mYwC+9HLfZtMRUOQoADCmY5ChP+BQ2jPdpiOgyFEAYExpqMR0BMC3yqyY6QgochQAGNMQrVYsFDUdA/ClUbEG0xFQ5CgAMCZihXV85VTTMQDfiVphHV85zXQMFDkKAIxa0jSPXc+AN3hP/dtVHuIRAHKLAgCjjigbq7PqTjQdA/CNlpI6XTjiXaZjIAAoADDuM6Peq5OqjzIdAzCuKVKjb437qKrC5aajIAAoADAuYoX1jbEf1qUtZ6kiVGo6DpB3liydVjNT1065jDcCIm94GyB8IWRZOr/xNC2qO1FP967Rqr6N6kj3KmPbpqMBOVMTrdDEWLNOrp6hsTEu/MgvCgB8pTJcpgW1x2tB7fGmowBAUeMRAAAAAUQBAAAggCgAAAAEEAUAAIAAogAAABBAFAAAAAKIAgAAQABRAAAACCAKAAAAAUQBAAAggCgAAAAEEAUAAIAAogAAABBAFAAAAAKIAgAAQABRAAAACCAKAAAAAUQBAAAggCgAAAAEEAUAAIAAogAAABBAFAAAAAKIAgAAQABRAAAACCAKAAAAAUQBAAAggCgAAAAEEAUAAIAAogAAABBAFAAAAAIoYjoA8Ea242j7wF51puNKK2M6DpAz1aFyjY41qiwUMx0FAUQBgG90Z+K6de/f9HDXSnWl46bjAHkRtcKaXTlNF46Yr+llY03HQYBQAOALK+Pr9d2tt6g30286CpBXg05Gz/S+omd71+r8ptP0kRFnKGRZpmMhAJgBgHGr+lp11aYbuPgj0Bw5+uPeR3X9zrtNR0FAUABgVDyT1He23KKMbNNRAF+4s+NJPdHzsukYCAAKAIz6c/vj6s7wvB94vRt2PyBHjukYKHIUABj1cNeLpiMAvrMttVfrEztMx0CRowDAmO5Mn3YMtJmOAfjSmsRm0xFQ5CgAMKZrkFv/wKF0DPaajoAiRwGAMeVhNj8BDqUiXGo6AoocBQDG1Eer2QENOIQxJU2mI6DIUQBgTFghnVg13XQMwHdioahmV04xHQNFjgIAoy5omseuZ8AbvK/hFJWGSkzHQJGjAMCoSaUjdW7DKaZjAL4xLtakDzbNMx0DAUABgHGXNi/SgtrZpmMAxo0qadS3xn+U2RjkBS8DgnFhK6QvjTlfMyrG63e7l/ImQAROWGGdUXeCLm05U5XhMtNxEBA8fH2D5v9aWKGEPSlk23WOpQpJlbk611FN0yt/ftbXbsjV+oUoZQ9qRfw1vdTfqvZ0r2yb7VBRvKoi5ZoYa9Hba45UU6TGdBxfsaSvTp849gemcxSzwN8BaLl67oSQQu9xZJ0maY76Mv98IbclK8fXntfaNmzP7RkKTywU1cnVR+nk6qNMRwGAohbIAjDj6sUl7VbHBy1HH5N0imPsTgjj7wAAM4JVAG5bHG55pfMTHU7HVy1HY03HsSgAAABDAlMAmr81b05oTcf1ko41nWUfixkMAIAhQfgaoDXym++6PGyHHpePLv6SZFlWEH7+AAAfKuo7ABOunluaUvgWOTrXj7PkIStEAQAAGFG0BaDxmlOqUonwXZLmms5yKCHuAAAADCnOC9D/HB+NJkpvl48v/pJkWaGw6QwAgGAqygIwcmftdZLOMJ3jrYS5AwAAMKToLkCjvrngHEmfMJ1jKMJWuGgfwQAA/K2oCsCoq+c2Oo79S9M5hioUClEAAABGFFUBsBX5D8lqMp1jqELMAAAADCmaAjDm6rlTQnI+aTrHcFhiBgAAYEbR3ILOKPxFSVHTOQAAKARF8Ql0zNVn1Eu6yHQOAAAKRVEUANvKXCipwnQOAAAKRXEUAMf5oOkMAAAUkoIvAE1Xz22xpLebzgEAQCEp+AIQtULzxGt1AQAYloIvAHJ0qukIAAAUmoIvAI6so01nAACg0BR8AZA03XQAAAAKTaEXAEtSg+kQAAAUmoIuAM3/tbBcEvvpAwAwTAVdAHb3DaQkOaZzAABQaAq6AOjqR9OS+k3HAACg0BR2AXBkSWo3HQMAgEJT0AVg0rLF1VZ5lE2AAAAYpoIuAJIUqioZazoDAACFpuALgFURNR0BAICCU/gFoDomy+IpAAAAw1H4BSBsyarkLgAAAMNR8AVAkkKNZaYjAABQUIqjANSVyooUxW8FAIC8KI6rpmUp1FxhOgUAAAWjOAqApHBzuaxo0fx2AADIqeK5YlqWwmOrTacAAKAgFE8B0D9mAUJ1paZjAADge0VVACQpMr5aivGGYAAADqfoCoDCIUWn1Enh4vutAQDglaK8SlqlEUWn10sRdggEAOBgirIASJJVFlF0WgPfDAAA4CCK+upolUUUPaJBIV4YBADAAYq6AEiSSsIKT69XuKVC4okAAACSglAAJFmWpfDoKkWPbFSoqsR0nNdxTAcAAARUIArAPlZZRJFp9YpOq5flgyKQtjMDpjMAAIIpYjqACVZViaJV9XIGMrLbk7J7klJfWo6T30/kqcxgQpL5JgIACJxAFoB9rJKwwiMrFB5ZIdmO7MSglEzLSdlSxj54IXCUVtrZ4dh2hzLqk2w76wClEefWtkeayqzYyGgoXOvitwIARSHj2ImEM7B7bf+WcePu+dAnsl7IVsJSqN+xnK5IKLy1rrl044oT/nfQw6gFr6DH4iYtXVyTSZZ0mc4BAPC9tGStseQ8ajtaWpUc+OvL598e6MewFAAAQBB1SPpDxrb+e9s5N683HcYECgAAIMgyknW7HOtrm99700bTYfIpUN8CAADgDcKSc4Es++Xx91z0dT0yNzCzcRQAAACkMjnOtybERz857p4PTTIdJh8oAAAA/JMjvc1yrGcm3v2hE01nyTUKAAAAB2q0ZT007p4PLTAdJJcoAAAAvFml5Vh3jr/nopNNB8kVCgAAAAdXLse5c8KfL5hgOkguUAAAADi0RkXCt824bXHRbdtOAQAA4DAc6W195SVXmc7hNQoAAABvwXGcKyfde/E00zm8RAEAAOAtWbGMnf6e6RReogAAADAk1nnj7vrgDNMpvEIBAABgaCzLsq4wHcIrFAAAAIbMOn/MbYvLTKfwAgUAAIChqw6XxhaZDuEFCgAAAMPghJzTTWfwAgUAAIBhsBxnnukMXqAAAAAwLNbUptsWV5pO4RYFAACA4bHKY+GppkO4RQEAAGCYrFBkvOkMblEAAAAYJtuxq0xncIsCAADAMIVCYgYAAICgcZxQ2HQGtygAAAAEEAUAAIAAogAAABBAFAAAAAKIAgAAQABRAAAACCAKAAAAAUQBAAAggCgAAAAEEAUAAIAAogAAABBAFAAAAAKIAgAAQABRAAAACKCI6QDAwcRCUY2KNqg2WqlSK6pYuETlVulBf61t2epPpxS3+9We7tGegW4l7FSeE5sXC0U1uqRRLSV1KrNiioVKPFs7o4wSmQF1pHu0NdWm7kzcs7Xdqo9U6cjy8aoJl6vPTmpTarc2J3ebjpU3I0vqNal0pGrCleqzE3otsV07BtpNx0IBoADAuLJQTDMrJmlWxSRNLB2pMbEGNUVrZcnKes3dA51qTe3Sq/1b9ULfBq3r36aMMh6mNi9ihfW2quk6vmKaZlZM0rjSJlc/s+HozsS1Or5JL/Sv19+7X1JnOv+FYGbFJF3cfLqOLp/wpt/39oE2/WHPw3qoe6Vsx8l7tnyYU3WELhpxuqaVjX7Tv9uY3Knf73lYj/esNpAMhSI/f1vkyKSli2syyZIu0zkwfCOidVpQe5zmVB+pqaWjFLbCOT1fwk7pmZ61eqxnlZ7rXacBJ53T8+XSyJJ6nddwqubVzlJVuNx0HGUcWyv71usv7U9oee+rcpTbC27IsvSREQt1ftPctyw8z/S+ou9vvbWo7giFFdJnR5+jRXVz3vLXPty1Uj/Z/n8F/f+7f1mXbT775utMp3CDAoC8KbEiOq12lhbWHq+jyycqZJn5368706cHO5fr3o6ntWug00iGbDRFanRJy5k6rWaWwpY/x3c2JHfoV7vu0/Px9Tk7x0ebz9AFTfOG/Ouf73tN/77xt0VzB+jy0ecO6eK/z9+7X9J3tv4+58UseAq/AOT2Y1eO1V08o9RJh79iOgcOrzRUorPr366vjb1QC2pnq7mkTpahi/++PDPKJ+ic+lM0oaxZrYmd6s30G8vzVkKWpfc3vlNfH3eRppaNMVachqI+UqUFtbM1MdaiVf2tStoDnq5/dPkEfX7MB4b1qGNkSYP67ZTW9G/2NIsJJ1UfpY+3vHtYx4wrHaFdAx1qTe7MUaqgsu7v/sOqZ02ncIMZAORMWCG9v/FULW48TdUR87eq3yhkWXpn9UydUn207mx7QjftWaZ+n90qro1U6ktjztcJldNMRxmWd9QcrWMqJ+g/t96m5fFXPVv3ohELsppzWNI4V/d2PFPQjwIsWfqXEadndeyHR5yuZV0ruQuAA/jzPiIK3syKSfrFlCt0actZvrz4v15YIZ3XeKpumPYlnVJ9tOk4+42LNem6yZ8tuIv/PjXhSn1r/Ef0nvq3e7JebaRSMysmZXVsdaRc82pmeZLDlKPLJ2hi6cisjm0uqdP0sjEeJ0KhowDAU2WhmL40ZrH+c+LHNb50hOk4w1IXqdQ3xl2kL41ZrPJQzGiWaaWj9aOJn1JTtNZoDrfCVkiXjXqfLmya73qtyaWjXM0+nFl/ousMJi1ymX/yQb4tgGCjAMAz40tH6KeTPq0Ftcfn7etoubCg9nhdN+UyYwVmVEmjvj3ho76/czIcFzcv1HmNp7paoyZS4er46WVjNKVAL4LVkXK9o+YYV2vUufz5ofhQAOCJRXVzdN3kz2l8abPpKJ4YXdKon0z6tGZXTsnreasj5bpm4qWqjVTm9bz58PHmRTqp+qisj+/LJFxnWFT3NtdrmHB67WyVWO5GtuKZpEdpUCwoAHBtSeNcXT76XNd/QflNRahU3x7/UZ1WMzMv57Nk6fOjPqAR0bq8nC/fQpalL44+X80l2f3+WhM7XQ+xza89TmWGH+9k44xa948vNvAtALwBBQBZC1shXT76PF3ScqbpKDkTscK6cswFmlub+wGys+pPdPUJuRBUhkv1xdGLs3pEtDfdrQ2JHa7OXxaKFdww4DHlE10/jopnElrTt8mbQCgaFABkJWRZ+vKYJVpUV9iDVUMRtkL68pglmlN1RM7OURUu10eaF+ZsfT+ZWTEp60L1YOdy1+cvtGFAt8N/krS063llZHuQBsWEAoCsfLrlHM0tsE9SboQV0lVjL8zZENlFI96lmnBwhrQubTlL0Sy2f36oa6XrzYUKaRjQi+E/SXqgo6D3q0GOUAAwbBeNWKCzG7z5bnchiYWiunrchz0f0KuOlOvMAh1Oy1ZTpEYLamcP+7g+O6nHut2/4KZQhgG9GP57qX+TNqWC83ZEDB0FAMMyt2aWPjxigekYxjRFa/WlMed7+jXH99afpFIPX91bKN6f5dcC7+t0/2m2UIYBvRj+49M/DqW4xraRU6NKGnXF6PPydr6EndK2VJv2DHYqnkkq6Qy86fZvzIqqKlKuqlCZGqM1Gh9rzvmLck6onKaz69+uuzqecr2WJUvvyuKT8OG0D/ZobWKL2tI9nuzFH1FYtdFKjSsZoSllozwrP2NjIzS9bKzWJbYO67hX+jdrQ3KHJpeOyvrcZaGY5tbM1P2dz2W9Rq55M/yX1GO8EhiHQAHAkJRYEV019oM5/dSUdjJ6rnedlsdf1Yt9rdqa2jPsNcpCMU0tG60TKqdpft1xaorU5CCp9LGWRXo2vtb12wSnlY3RqJIGTzKt6d+s3+x+UKv7NuZsz/emaK2WNM7VooYTFfbgBuLcmpnDLgCS9EDHc/rMqHNcnfus+jm+LgDeDP+tUMoe9CANihEFAENycfPCnA1O7R7o1J/a/66Hu1eqJ+3urXwJO6VVfa1a1deq3+35q46tmKIPjpivY8oneBP2n2KhqP615WxdveVGV+vMrvJmo6Fb9z6i3+35q2wnty972TvYpet2/kWP9azS18de5Hq3wtlV06Rd9w77uIe6VurSlrNcPTrZNwy4PrE96zVyheE/5AMzAHhL40ubdV7jOzxftyPdqx9uv10fffWH+kv7E64v/m+UcWytiL+qL7Zer6u33KjtA22ern9S9VE63uWLemaWT3ad4462x/Sb3Q/m/OL/eqv6WvX1Lb/VoJN2tc742AjVhIc/VFnsw4AM/yEfKAA4LEuWLhv1Pk9u9+7jyNFd7U/pY6/+SEs7VyijjGdrH8pTPWv06fX/n5Z1rfB03X9pzu71rPtMKm1xdfzG1C7dsPsBV2tka23/Fv1+70Ou1rBkaXKWb7gr5mFAhv+QDxQAHNbc2lk6pnyiZ+v1Zvp19eab9LOdd6rPzu/e5El7QP+17Xb9ePsdyjjelI7pZWN1YpYbBFWGS11/pfD3ux9SxjG3wcuf255Q3OUe/aNLs5uB2DcM6Ma+YUA/YfgP+UIBwCFZsvTBxnmerbd7oFOf2/BzPd27xrM1s/Fg53J9f+utnu2MtqRpblbHNUXcveo3ZQ/q2fhaV2u4lbQH9FzvOldruPk5PNDhfojvrPo5rtfwEsN/yBcKAA7plJoZnr3db3Nyt65o/bl2ePwcPluP96zWNVtv9WRa/ujyCTqyfPywjyuPlLo675bUHl/8Jf9a0t0QnZtb8MW2MyDDf8gnCgAOaYlHn/73prt11ebfqCPd68l6Xvlb9yr9X9vjnqy1OItNbWIuh7y60nFXx3ul02WO8nD2k/zFNgzI8B/yiQKAgzqyfLymefCpKGGn9LWNv9LewS4PUnnvhl0PaE3/ZtfrnFQ1Q43R6mEdY7n845eP4cmhsF3PILjbWKiYhgEZ/kM+UQBwUKfXHufJOtdu/4u2pPZ6slYuZGTrp9v/5HqQLmRZOrU6v8NkXm5HXMiKZRiQ4T/kGwUAbxK1wjrNgzf9Pd6zWg91r/QgUW5tSu3W0k73Xw+cWj68OyYJO+XqfEF8f8ChFMMwIMN/yDcKAN7kxKojVRkuc7VGwk7pf3bc41Gi3Ltx71INuNzUpi5cNaxf35Nxt/FRU9Tdtwi84vbuieMFK0FNAAAXKElEQVTBBkaFPgzI8B9MoADgTU6omup6jTvaHtfedLcHafKjfbBHD3W5u1sRt4d3Qe91ufPhqJIGNQxz7iAXulwOd3oxHFrow4AM/8EECgDe5NgKd/vTJ+0B3d3u/k15+XZH22OuttNdnxjec+i4nXC9IdGCGm/fJJiNTak9rn4f2bz06WAKeRiQ4T+YQAHAAZoiNa7fTvfXzhXqzvR5lCh/tqX26pneV7I61nYcPdHz8rCOyTi2WpO7sjrfPuc1vkMVIXf7CbjVm+nX6r5NWR2bka2ne73ZzKhQhwEZ/oMpFAAc4OhK99v+Lut63oMkZvxq9/1ZveDmse5V2pbFtx1e7t807GNerzZSqc+NOtfVGl74495HszrurvYn1etyFuL1CnEYkOE/mEIBwAHGl7jb+W/HQHtW73f3i22pvbpp97JhHbN3sEs/33lXVufzYg+CubWz9PGWRUa/Fvh832u6t+PpYR2zObl72D/rt1Jow4AM/8EkCgAOMKa00dXxL/St9yiJOX9se1S37H14SNsE7x7o1Fc2/TrrRx4v9rV68mKiDzS+U/8x/mLVuXy5kBs/23mX7ut4Zki/dkNyh67a/BvPXwhVaMOADP/BJAoADjCmxF0BeLGv1aMkZv1u91/1lU2/0vrEwfe5T9mD+lPb4/rMhmuzuvW/T1c6rmdcvkxnn5OqjtTvpl2pT408W+NiTZ6sORwZx9ZPd/xZ39pys7Yf4p0P8UxSN+9Zpis2/Dxnu0MW0jAgw38wyV31RNEZ6XIAcKPLoTY/eSG+QZ+JX6vxpc2aXjZG9ZFqpewBbR9o16q+Vte3mvd5oPNZnVx9lCdrxUJRva/hFL2v4RSt7t+o+zqe1d+7V7ve42A4nuh5SU/0vKQpZaN1ZPlY1Ueq1ZtJaFNyl17q25jzLPuGASeXjsp6jX3DgPd3up8pOBSG/2AaBQD7hRV2tbtcxrG1M9XuYSJ/2Jzcrc3J3N1iXR5/VXsHuzzf2OeY8ok6pnyiPtVytpZ1rdD9nc/mdVvm9Ynth7yDkmsPdDynz4w6x9UaZ9XPyWkBYPgPpvEIAPuVuXgrm/SPr4Pl85Nmscg4tm7cszRn61dHynVe46n65dQv6LrJl2lR3RzFQtGcnc8P/D4MyPAf/IACgP3cPvPsd7m3fZAt63pe6xLbcn6eqWWjdfnoc3XL9Kt0+ehzNTHWkvNzmuDVMOBZORoGZPgPfkABwH5lLj8Vpjx6Jh5EtuPoFzvvHtI3D7xQGS7Voro5un7qFUV7V8CLYcB35WgYkOE/+AEFAPtZlrv/Hew8XbyK1Sv9m/Wntr/n/bzFelfArzsDMvwHv6AAAD7y69336/n4a0bOXYx3Bfy4MyDDf/ALCgDgIxnH1jXb/piz78gP1b67AjdP+6o+2fJuI/sKeMFvw4AM/8FPKACAz3Sl4/rixv/RjgHzX6ks9G8Q+G0YkOE/+AkFAPChXQOd+kLr9b76i75QZwX8NAzI8B/8hAIA+FRHuldXbvylVvtse+XXzwr8cNInNb/2ONefanPJL8OADP/BbygAgI91peP68qZf6le77svqNcW5dkz5RF05ZoluPuIrWtI0Ly/752fDD8OADP/BbygAgM/ZjqPb2x7TZeuv08t9m0zHOaiacKUuaT5DN02/Uhc2zffdHQHTw4AM/8GPKABAgdiY2qXPb7xeX2i9Xs/0vmI6zkFVhct1cfNC/WzK5zQ1R9voZsP0MCDDf/AjCgBQYF7q36RvbP6dvtB6vR7tetGXjwbGxUbop5M/oyVNc2XJMh1HktlhQIb/4Ef+uk8HYMhe6t+kl/o3qXJnqd5ZPUvnNJ6sCbFm07H2CyukS5rPVEtJna7d8RfZjtmdIk29JpjhP/gVdwCAAhfPJHVf5zP65Gs/0Wc3XKv7Op/x1aDYoro5unLMBQr74K8bb4YBh/dpnuE/+JX5P5EAPPNaYrt+uv3P+vC6H+iXu+7T9oE205EkSXNrZunzY95vOoZHw4BjhzwMyPAf/IwCABSh7kyf7mh7TJe8+kPf3BVYUHu83ttwktEM+R4GZPgPfkYBAIqcn+4K/OvIszWjYoKx80vSvZ3PuF5jqMOAXgz/3c+nf+QIBQD7OY7t6viQT6a9cXB+uCsQVkhfHL1YUSuc1/O+3tr+LXnZGdCr4b/HGf5DjlAAsF/Sdvd1slioxKMkyLV9dwU+tO67+un2P+f1FvOokgad3XBy3s53MPkYBmT4D35HAcB+CTvl6ni/bgOLQ9v3DYJ/fe2/9eWNv9Sj3fnZV+DCpnepJlyR8/McSq6HARn+QyGgAGC//kzS1fHV4XKjt3aRPUeOXuzboO9v/YMuWPudnN8VqAyX6t0u99Z3I9fDgAz/oRCwERD2y8hWyh7M+n3vYSukUbEGbU7u8TiZWaNLGnVM5UTVhCuUsFPalmzTqv5WpZ1MTs7XGK3WMRWT1BipVtqxtX2gTS/2bcjbreB9dwXu73xWMysmaVH9iTqleoaiHu/vf2bd23Rr2yPGNgi6t/MZLaw73tUa76o9Tr/adf+b7p4x/IdCQAHAAXYOdrjaTW5CrKVoCsCsism6tOVMTS8b+6Z/152J64HO5bp1zyPqd/noZJ/pZWN0cfNCHV859U3b5ybslO7ueFq37HnY9aOaodp3V+DFvg2qCVfq9LrZWlR/okaXNHqyfnNJnY6tmKLn4695st5w7RsG9HpnQIb/UCh4BIADbEvudXX8rIpJHiUx68Km+bpm4scOevGX/vH2uyWNc3X9lCs0Jtbk+nxLGufqJ5M+pRMqpx107/yyUEznN56mn025zLML8HB0Z+K6o+0xfey1H+l7W29RR7rXk3Xn1RzryTrZysUwIMN/KBQUABxg24C7AnBs5RSPkpjzgcZ36uLmhUN6iU1zSZ2umfBx1UYqsz7fBU3zdEnLmQoPYX5idEmjfjDxUlfnc8N2HP2te5U+tf6nrr9KJ0kzKsZ7kCp7Xg8DMvyHQkIBwAE2p9zdvh9d0uir18AO17hYky5pPmNYxzRGq/XZUedkdb4pZaN18YgFwzpmRLROnxj57qzO55WudFxXbbpB7YM9rtYZVdJgrMxI3g8DMvyHQkIBwAFW9210vcaC2tkeJDHj4uaFQ/ok/kbvqD46q+e+H2ycl9X55tccq6Zo7bCP81JnOq7/3XWvqzUsWTryEI9Z8sXLnQEZ/kMhoQDgAHsHu7RjoN3VGgvrTlBluNSjRPkzqqRBJ1fNyOpYS5ZOrh7esaWhEp1YfUTW5ztlmOfLhcd6Vmn3QKerNZpKzBaZtf1btDG509UaZaGYPjvqHA+G/xIM/yFvKAB4kxf7Wl0dXx6K6Zx6szu9ZeP9jacqbGX/R2JibOSwfn1LtM7V7eKxHgwfumU7jp6Jr3W1hskNgfa5z4NP3V7c+Vra9TzDf8gbCgDeZEXvq67X+EDTaaqPVHmQJj9qI5U6vdbdd8KrImXD+vV1UXc/nzqf/Hw3Jd09r66KlHuUJHteDAN6geE/5BMFAG/yTO8rirvcFbA8FNMnW97jUaLcu3jEgqw3QNqnMx0f1q8PufzjF7b88fKlPjvh6vjykPnHRV4NA7rB8B/yjQKANxlw0nqsZ5XrdebWztJpb/HGND8YGxuhM4f4fvfDWZ9w/7W4guRyIz9/1BhvhgHdYPgP+UYBwEE91Pm8J+tcMfr9RjauGaqwFdLlo96X1ST+6zly9LjhT5Bwx4vXBGeLnf9gAgUAB/Vy/2a1upyMlv7xKOA7Ez6qOoPf9T6ci0ecrmM82L3wmd5XtHewa1jHOLJdndPtIwSvhFwMTkqubyB4youdAbPBzn8wwR9/g8B3HDm6de8jnqw1qqRB351wiWrC/ioBp1TP0PmNcz1Z6469jw/7mJTL1+7W+KRU1UXcTfEnM+aH7/YxNQzI8B9MoADgkB7vWa1tKXdbA+8zuXSUfjr50xpV0uDJem7NqTpCXx37QYU8GKRbl9im1f3D30CpP+PupT7jYk2+eP3yRBcv05GkfsfdwKmXTAwDMvwHUygAOCTbcfQHj+4CSNLIknr9ZNKndHzlNM/WzMb82uP0H+Mv9uz1trfufTir49oGu12dtywU0wmGf5axUFRzKrPbzGiftgF3Pwev5XsYkOE/mEIBwGE91LVSL/dt8my92kilvjP+o/pEy3tUFop5tu5QlFgRXT7qXF05ZonCHv2vvz6xXU/1vJLVsb2ZfnVn+lyd/8IRCzy5i5Gt99afpGqX3+N3+wIqr+VzGJDhP5hEAcBhOXJ07c47lXEynq0Zsiy9v/Ed+uW0z2t+7XGudt8bquMrp+m6yZdpUf0cT9e9cc9SOS7G2DYmdrk6/9Sy0bqwaXgvE/LKlLLR+vCI012t4cjRxqS7n0Eu5GsYkOE/mEQBwFvamNypO9uf9HzdpkiNrhyzRL+c+nktqjtR5R7fEbBkaWbFJP1gwsf0vQmXaHxps6frP9u7Vs/0utsGd1XfBtc5LhwxX0ua5g3p9cVeOaJsrL49/iOuN0/amto77A2U8iFfw4AM/8Ekbx6Couj9ds9fdVzVVE2MtXi+9uiSRl0++jz968iz9XTvK1oeX6cX4q3aMzj8l8xErbCmlI3RCZVTtaD2eLWU1HmeV/rHZkm/2Hm363VW9m3QxS7XsGTpkuYzdGzlJP1214Nal9jmOteh1IQr9YGmU3VuwymezFC84EEByoV9w4AL69xtD304DP/BNAoAhiRlD+q7W27RtZM/k7Nn97FQVKfVzNy/e2BPul/bBvZqx0C7UvaA4vbBp8WrwxWqDperMVqtyaWjFMnDZPxvdj/o+q2JkvRK/xbtHuhUswdFZXbFVM2ePFU7Btq1pn+zutJxZVzuNbBPVbhMY2PNOqpsnKePbB7tftGztbx2b+czOS0ADP/BNAoAhmxrao+u23GnvjTm/LycrzpSrqMi43VU+fi8nG+oVsbX6y/tf/dkLUeOHupeqQ81zfdkPekf+y745euWh7NjoF1r+jabjnFI+4YBJ7v8muPBMPwHP2AGAMOyrOt5zzYIKkQd6V791/bbZDve7V93Z/uTGnC5KVAh+nP7310NUOZDroYBGf6DH1AAMGy/3f1X3d9pZstUkwactK7efKPaB3s8XbcrHdeyzhWerul3nem4HuxcbjrGW8rVMCDDf/ADCgCGzZGja3f8WU/2rDEdJW8yTkbf33qL1iW25mT93+1Z6voVzIXkht33F8Qn4FzsDMjwH/yCAoCsZBxb39lys5Z1efPWQD+zHUc/2f5/OS08Xem4bt6zNGfr+8kr/Zu11KO3TeaD1zsDMvwHv6AAIGsZ2frhttv1x7ZHTUfJmYyT0Y933KGleSg6d3Y8qefjr+X8PCYl7JR+uP0O3z/7fz0vdwZk+A9+QgGAK44c3bDrAf1sx51Ke7hboB8k7JSu3nKTlubp+bztOLpm2x89nzHwC0f/uJPi1Qum8smrYUCG/+AnFAB44q6Op3R56889+W68H+wYaNcVG36uZ13u9DdcXem4vrbp14pnEnk9bz78ZveD+lv3KtMxsuLVMCDDf/ATCgA8sz6xXZ9df60e7fLv5i5D8Wj3i7psw7XGBrU2pXbr6s2/U7/t7nXBfnJ722P6495HTcfImhfDgAz/wW8oAPBUn53U97f9QV/d9GttH2gzHWdYujN9+sG2W/X9rX8wPpG/un+TPr/hF2or8McBjhzdtGeZfrXrPtNRXHM7DMjwH/yGAoCceD7+mj752k/02z0Pqu8QW/j6RcaxdXf707r01R/pka4XTMfZb2Nql67Y8DOt7t9kOkpW+uykvrvlFt28Z5npKJ5Y279F6xPbszq2OxNn+A++k/tN03Oo7uIZpU46/BXTOXBwthy91LdJd7U/pa50XJPLRqssVGI61n624+jx3tX67tZbtKxrhQYc/w1n9dspPdS5UrZsHVk+Pi+vTvbCc73r9O+bf6tXEltMR/FURzquebWzhn3c7/Ys1Ut9G3OQCOZY93f/YVVB39bhXQDIuYSd0p/bn9D9nc9pQe1snV47W0eUjzOWJ55JamnXCt3d/lRBPKbIKKOb9zykh7pW6uMti3RS1QyFrPy9+nc4tqb26Ne7H9BTRbpJ1NO9a3Rf57NaVHfikI95vu813dn+RA5TAdmhACBvkvaA7ul4Wvd0PK3RJY16V91svb3qCE2Mjcz5BW3ASeu53nV6rHuVnupdU5Bfxdo50KFvbblZ40ub9YGGd+rUmqNz9mbG4XDk6KX+zfpL+9/1ZM/Lnr4nwY+u2/EXWbJ0Vt3b3vLXPte7Tt/deosyjjdvZQS85M+PEUM0aenimkyypMt0DrhTE67QzIpJmlkxSRPLRmpcrFE14UpXa3al42pN7tLaxBat6mvVmv7NBXnRP5xYKKqTqo7SCZXTNLNikievFB6qhJ3S6r6NeqFvgx7vfkl7Bjvzdm6/OLn6KH14xOmaVDryTf9u50CHbtv7qB7oeq7oC1FwWZdtPvvm60yncIMCAF+qDJdpTKxJ1eFylYVKVBEqU1m4RJGDjK302gnZstU12Ke2dLf2DnSrOxM3kNqsqnC5Rsca1RytVUWoTBXhmEIezfn2O0klMwNqT/do+0C79g52cWH7p/GlIzS1dKxqImWKZ5JqTe7UhuQOfj5Fr/ALAI8A4EvxTEJr+4trgCzXejP9Wtu/RWvFzy2fNif3aHNyj+kYwLAVxkgxAADwFAUAAIAAogAAABBAFAAAAAKIAgAAQABRAAAACCAKAAAAAUQBAAAggCgAAAAEEAUAAIAAogAAABBAFAAAAAKIAgAAQABRAAAACKCCLgDR/irbdAYAQAA5TsFffwq6AKxL9fZLckznAAAEiyOn13QGtwq6AOj82zOS+k3HAAAES8gKUQB8YKvpAACAYHGkLaYzuFXwBcCSXjWdAQAQLKV2yWumM7hV8AVAll4wHQEAECjr151zA48ATHPs0N9MZwAABMojpgN4oeALQCaZfEpS3HQOAEAwOI61zHQGLxR8Adh2/u0JOfqL6RwAgEDoS8Wse02H8ELBFwBJchzrRtMZAADFz7F0++4zbuozncMLRVEAtpxz81LJWmk6BwCgqDm2pR+bDuGVoigAkmTJucZ0BgBA8XIs3bXt3b9fbTqHV4qmAGx6z+9vcxw9ZjoHAKAoDYQz1pWmQ3ipaAqALDmWk7lCUtp0FABAcXGkH2085+Z1pnN4qXgKgKTN59y60pK+YToHAKCorCgJd3zTdAivFVUBkKRNK6ZeI+l+0zkAAEWh0w6nl6xfdH/KdBCvWaYD5MKouz9RHlXfMkknmc4CAChYSduyFm59z82Pmw6SC0V3B0CSdpz9v/2RwdD7JGuV6SwAgIKUcBwtLtaLv1SkdwD2abptcWVFefRPjmOdbjoLAKBgdNmW9d5ivvhLRV4AJEmPzI1MiI/5d0fO11WkdzwAAJ5ZkbGtC7adc/N600FyrfgLwD+Nv+eid0vOdXI0wXQWAIDfOCk5+lFlcvCbL59/+4DpNPkQmAIgSWNuW1wWKot+2ZL1b5JqTOcBABjnSM6d4VDkytZ33/iq6TD5FKgCsM+U+y6sHrCdT8mxLrWkqabzAADyrkfSHY5j/3jLe//wsukwJgSyALzehHs/PMexM++WQvMk+22SFTOdCQCQE+ssx/qbbTlL7cTAvdvOvz1hOpBJgS8AB7htcXhceXR82LGmZCynRo5VK8vhZwQABchyrLhtWfGwZW8ZsCtf3XH2//abzgQAAAAAAAAAAAAAAAAAAAAAAAAAAAAAAAAAAAAAAAAAAAAAAAAAAAAAAAAAAAAAAAAAAAAAAAAAAAAAAAAAAAAAAAAAAAAAAAAAAAAAAAAAAAAAAAAAAAAAAAAAAAAAAAAAAAAAAAAAAAAAAAAAAAAAAAAAAAAAQLb+H5mM75202YbjAAAAAElFTkSuQmCC;" parent="1" vertex="1">
          <mxGeometry x="1156" y="635.5" width="93" height="93" as="geometry" />
        </mxCell>
        <object placeholders="1" c4Name="Serviço de Validações" c4Type="ContainerScopeBoundary" c4Application="Serviço de Validações" label="&lt;font style=&quot;font-size: 16px&quot;&gt;&lt;b&gt;&lt;div style=&quot;text-align: left&quot;&gt;%c4Name%&lt;/div&gt;&lt;/b&gt;&lt;/font&gt;&lt;div style=&quot;text-align: left&quot;&gt;[%c4Application%]&lt;/div&gt;" id="LeKAQuKKO7skneQGJhTF-42">
          <mxCell style="rounded=1;fontSize=11;whiteSpace=wrap;html=1;dashed=1;arcSize=20;fillColor=none;strokeColor=#666666;fontColor=#333333;labelBackgroundColor=none;align=left;verticalAlign=bottom;labelBorderColor=none;spacingTop=0;spacing=10;dashPattern=8 4;metaEdit=1;rotatable=0;perimeter=rectanglePerimeter;noLabel=0;labelPadding=0;allowArrows=0;connectable=0;expand=0;recursiveResize=0;editable=1;pointerEvents=0;absoluteArcSize=1;points=[[0.25,0,0],[0.5,0,0],[0.75,0,0],[1,0.25,0],[1,0.5,0],[1,0.75,0],[0.75,1,0],[0.5,1,0],[0.25,1,0],[0,0.75,0],[0,0.5,0],[0,0.25,0]];" parent="1" vertex="1">
            <mxGeometry x="-252" y="574" width="1091" height="470" as="geometry" />
          </mxCell>
        </object>
        <mxCell id="7SdNgmDDBE8yBlOPd0A3-11" style="edgeStyle=orthogonalEdgeStyle;rounded=0;orthogonalLoop=1;jettySize=auto;html=1;exitX=0.5;exitY=1;exitDx=0;exitDy=0;exitPerimeter=0;" parent="1" source="7SdNgmDDBE8yBlOPd0A3-1" target="LeKAQuKKO7skneQGJhTF-27" edge="1">
          <mxGeometry relative="1" as="geometry" />
        </mxCell>
        <object placeholders="1" c4Name="Orquestrador" c4Type="Container" c4Description="Valida request e response através da especificação da API" label="&lt;font style=&quot;font-size: 16px&quot;&gt;&lt;b&gt;%c4Name%&lt;/b&gt;&lt;/font&gt;&lt;div&gt;&lt;/div&gt;&lt;br&gt;&lt;div&gt;&lt;font style=&quot;font-size: 14px&quot;&gt;&lt;font &gt;%c4Description%&lt;/font&gt;&lt;/div&gt;" id="7SdNgmDDBE8yBlOPd0A3-1">
          <mxCell style="rounded=1;whiteSpace=wrap;html=1;fontSize=11;labelBackgroundColor=none;fillColor=#23A2D9;fontColor=#ffffff;align=center;arcSize=10;strokeColor=#0E7DAD;metaEdit=1;resizable=0;points=[[0.25,0,0],[0.5,0,0],[0.75,0,0],[1,0.25,0],[1,0.5,0],[1,0.75,0],[0.75,1,0],[0.5,1,0],[0.25,1,0],[0,0.75,0],[0,0.5,0],[0,0.25,0]];verticalAlign=middle;fontFamily=Helvetica;" parent="1" vertex="1">
            <mxGeometry x="155" y="622" width="240" height="120" as="geometry" />
          </mxCell>
        </object>
        <mxCell id="7SdNgmDDBE8yBlOPd0A3-6" style="edgeStyle=orthogonalEdgeStyle;rounded=0;orthogonalLoop=1;jettySize=auto;html=1;entryX=0;entryY=0.5;entryDx=0;entryDy=0;entryPerimeter=0;" parent="1" source="7SdNgmDDBE8yBlOPd0A3-1" target="LeKAQuKKO7skneQGJhTF-33" edge="1">
          <mxGeometry relative="1" as="geometry" />
        </mxCell>
        <mxCell id="7SdNgmDDBE8yBlOPd0A3-9" style="edgeStyle=orthogonalEdgeStyle;rounded=0;orthogonalLoop=1;jettySize=auto;html=1;entryX=0.5;entryY=0;entryDx=0;entryDy=0;entryPerimeter=0;exitX=0.5;exitY=1;exitDx=0;exitDy=0;exitPerimeter=0;" parent="1" source="7SdNgmDDBE8yBlOPd0A3-1" target="LeKAQuKKO7skneQGJhTF-25" edge="1">
          <mxGeometry relative="1" as="geometry" />
        </mxCell>
        <mxCell id="7SdNgmDDBE8yBlOPd0A3-10" style="edgeStyle=orthogonalEdgeStyle;rounded=0;orthogonalLoop=1;jettySize=auto;html=1;entryX=0.5;entryY=0;entryDx=0;entryDy=0;entryPerimeter=0;" parent="1" source="7SdNgmDDBE8yBlOPd0A3-1" target="LeKAQuKKO7skneQGJhTF-26" edge="1">
          <mxGeometry relative="1" as="geometry" />
        </mxCell>
        <mxCell id="7SdNgmDDBE8yBlOPd0A3-12" style="edgeStyle=orthogonalEdgeStyle;rounded=0;orthogonalLoop=1;jettySize=auto;html=1;entryX=0.5;entryY=0;entryDx=0;entryDy=0;entryPerimeter=0;exitX=0.5;exitY=1;exitDx=0;exitDy=0;exitPerimeter=0;" parent="1" source="7SdNgmDDBE8yBlOPd0A3-1" target="LeKAQuKKO7skneQGJhTF-28" edge="1">
          <mxGeometry relative="1" as="geometry" />
        </mxCell>
        <UserObject label="Voltar" link="data:page/id,confjWSqUAO5rBkNEaax" id="An3WC5S820ec74p5PbLO-1">
          <mxCell style="rounded=1;whiteSpace=wrap;html=1;fontStyle=1;" parent="1" vertex="1">
            <mxGeometry x="-720" y="1121" width="143" height="41" as="geometry" />
          </mxCell>
        </UserObject>
        <UserObject label="" link="data:page/id,confjWSqUAO5rBkNEaax" id="An3WC5S820ec74p5PbLO-2">
          <mxCell style="html=1;verticalLabelPosition=bottom;align=center;labelBackgroundColor=#ffffff;verticalAlign=top;strokeWidth=2;strokeColor=#0080F0;shadow=0;dashed=0;shape=mxgraph.ios7.icons.back;" parent="1" vertex="1">
            <mxGeometry x="-713" y="1128.75" width="30" height="25.5" as="geometry" />
          </mxCell>
        </UserObject>
        <UserObject label="" link="data:page/id,GjP_CtnLfWP7tgh8tDcY" id="PXmoGq0hGGlsqGOkekpb-1">
          <mxCell style="shape=image;verticalLabelPosition=bottom;labelBackgroundColor=default;verticalAlign=top;aspect=fixed;imageAspect=0;image=data:image/png,iVBORw0KGgoAAAANSUhEUgAAAgAAAAIACAMAAADDpiTIAAAAA3NCSVQICAjb4U/gAAAACXBIWXMAABbUAAAW1AGaOz6wAAAAGXRFWHRTb2Z0d2FyZQB3d3cuaW5rc2NhcGUub3Jnm+48GgAAAwBQTFRF////AAAAAAAAAAAAAAAAAAAAAAAAAAAAAAAAAAAAAAAAAAAAAAAAAAAAAAAAAAAAAAAAAAAAAAAAAAAAAAAAAAAAAAAAAAAAAAAAAAAAAAAAAAAAAAAAAAAAAAAAAAAAAAAAAAAAAAAAAAAAAAAAAAAAAAAAAAAAAAAAAAAAAAAAAAAAAAAAAAAAAAAAAAAAAAAAAAAAAAAAAAAAAAAAAAAAAAAAAAAAAAAAAAAAAAAAAAAAAAAAAAAAAAAAAAAAAAAAAAAAAAAAAAAAAAAAAAAAAAAAAAAAAAAAAAAAAAAAAAAAAAAAAAAAAAAAAAAAAAAAAAAAAAAAAAAAAAAAAAAAAAAAAAAAAAAAAAAAAAAAAAAAAAAAAAAAAAAAAAAAAAAAAAAAAAAAAAAAAAAAAAAAAAAAAAAAAAAAAAAAAAAAAAAAAAAAAAAAAAAAAAAAAAAAAAAAAAAAAAAAAAAAAAAAAAAAAAAAAAAAAAAAAAAAAAAAAAAAAAAAAAAAAAAAAAAAAAAAAAAAAAAAAAAAAAAAAAAAAAAAAAAAAAAAAAAAAAAAAAAAAAAAAAAAAAAAAAAAAAAAAAAAAAAAAAAAAAAAAAAAAAAAAAAAAAAAAAAAAAAAAAAAAAAAAAAAAAAAAAAAAAAAAAAAAAAAAAAAAAAAAAAAAAAAAAAAAAAAAAAAAAAAAAAAAAAAAAAAAAAAAAAAAAAAAAAAAAAAAAAAAAAAAAAAAAAAAAAAAAAAAAAAAAAAAAAAAAAAAAAAAAAAAAAAAAAAAAAAAAAAAAAAAAAAAAAAAAAAAAAAAAAAAAAAAAAAAAAAAAAAAAAAAAAAAAAAAAAAAAAAAAAAAAAAAAAAAAAAAAAAAAAAAAAAAAAAAAAAAAAAAAAAAAAAAAAAAAAAAAAAAAAAAAAAAAAAAAAAAAAAAAAAAAAAAAAAAAAAAAAAAAAAAAAAAAAAAAAAAAAAAAAAAAAAAAAAAAAAAAAAAAAAAAAAAAAAAAAAAAAAAAAAAAAAAAAAAAAAAAAACyO34QAAAP90Uk5TAAECAwQFBgcICQoLDA0ODxAREhMUFRYXGBkaGxwdHh8gISIjJCUmJygpKissLS4vMDEyMzQ1Njc4OTo7PD0+P0BBQkNERUZHSElKS0xNTk9QUVJTVFVWV1hZWltcXV5fYGFiY2RlZmdoaWprbG1ub3BxcnN0dXZ3eHl6e3x9fn+AgYKDhIWGh4iJiouMjY6PkJGSk5SVlpeYmZqbnJ2en6ChoqOkpaanqKmqq6ytrq+wsbKztLW2t7i5uru8vb6/wMHCw8TFxsfIycrLzM3Oz9DR0tPU1dbX2Nna29zd3t/g4eLj5OXm5+jp6uvs7e7v8PHy8/T19vf4+fr7/P3+6wjZNQAAHexJREFUGBntwQuAjnXeN/Dvdc00M5gxzkIGrXUIRSU9W1PpqK1IOklIki2rrUjZDnSwhfKqfTDDzNUB2Z6ldJDUKiVKFFqFiNIih5nWzBhzvL/Pu++zz7u7bdz39btO/+u6/58PoB1VduvOPXtfMXDEXQ9OnvH8omWrNn6973BNyZ6vPn1/yUuFT08aP3rYNZfm9vh5iwxo0dLwjEET560pZoJi372bP7ZflwxoYZd9+sAHX/joIEVi3/5p1pi+ndOhhY/R9br7n1u1ny6o3fnOzLsuPwFaWKScPubVYrptx7PDToSmurSzxr9VQq/8Zf7IztBUVaf3xHfL6bV9C0efYkJTTFaf362qpF+KXxvTMwWaIozcp9bW0G8lb407EVrwuk/ZxaB8dEdzaEFq/+BmBqrmnWHZ0ILR4s5PqICKl6+uA81vDW9ZXktVlDzfJxWaf+pe92ol1bJ/xlkGND8cd9m8UqromydOgea1nCkHqa4//6ouNA+dvbCGaiue0gaaN9KGfMoQqFl4DjT3NZ/4PcPis5vSobnqxIJKhsm+8VnQXNPh+WqGTdED9aG5ovP8GobRDxMbQHOs20u1DKtDjzaC5sjJL8cYZiWPN4Im1rKwlmFXfFcaNJG6E8oYBduugmafOWw3o2JlT2g2nb+eERKbnwPNhg6vM2KO/C4TWoLSJ1Ywer7tCy0h521hNC1qBS2uJs8xskpGm9CO7aaDjLK1PaAdQ8f3GHE10zKhHYV5bwWj79ve0H5Su5VMCrFpGdD+3fBSJosvekD7kWavMYlU3Z8C7Z9duZ/JZXV7aP9flsWkUzYS2t91/5rJ6JVsaH9z8xEmp20nQ0NGAZNW+RAkvXafMpnlpSO5XVbM5PZJGyQx89EYk93BPkhaDd6mxtoHkaTabab2Ny+kIRn12kftf7zXEMlnQDm1/7W5HZLN2Bi1f9h/JpJKykxq/6J8AJJI5pvUfiQ2Fkmj+Xpq/26GgeTQeisDdHj3lnXvvf7i7KceHvurQf3OP+viq4aOuu+xpwv/682V67d/X80AzU1FMmj/DQNRtuGPj9+c2wLHlNr+0tHPLN1WzUC8nIbo67qXPivbuPDx4ee0gA2pP7/0jt8v3V5Nny2ri6g7vYh+2jV3REeIpf3ivqUl9NPK+oi2c0rom22FQ9rCsZTT7l5cRN+sa4wo61NOX8Q2zby+JVxjdBv10l76Y1MLRFf/Svrg+xn9m8B9HW55pYI+2N4GUXVxFT3312cvSoFXsoe9U0PPbW+BaOpVRo+V/7F/OrzVfPRqem1TY0TRSUX0VPXSwVnwQ7vxn9Nb6+ojenL+Qg/FPritCfzTddIOemllXURN0630zp7ftobfziyopHeWpSFastbRM1tvSUcQWkw+RM+8nIooSV9Or3zc30RQ6o/bQ6/MNRAdKYvokSXnIlDpt2yhR2YgOubQE9UvdEPgzP4f0Rv3ICoepxfKpudADecsidEDsQGIhjH0QPGDjaCOrnNr6b7yMxEFQ2N0XW1eY6jltNV03/52CL++1XTdqlOhHGPoXrpuc0OEXbfDdNuewQZUVP/JKrrtvTSEW/ZXdFnV1CyoqtPbdNsLCDXjFbpsWUeorP9OuuxBhNm9dNeOK6G4jAnldFVtH4RX7xq6qfyhDKivzSK66mAbhFWrfXTT0hyEw4Xf0k2fpCOcjltNF1XdYyAsGr5CN+UhnJ6hi3acgTD5dQVdNARhNJAueikb4dJ9C91TfjLCp0sZXVN+KzyQ2f38vjfcOmbC1FnzFv/p402fffDmf1nP/G786GHXXJp7Ygocqvc83bMtG2GTtYWu2dQFrkrr1Hfs7BV7eCyVXy6eMjy3ORwYXErXvIKwWUjXzKkDt6Tnjnp66fYaJuzQ2vkTBnaGTIfP6JqRCJexdMuh6+COOuc/vOIIRfYuGNEeAunP0C1l7REm51TTJZ+cCBdkXvK7DyvpyHcvDGsD2/oV0SWrUxAeWbvokunHwamMy6asqaYrdhTe2Ar2tP6YLrkf4TGT7ojdBYdSLnr2EF31+bhWsKPuErqjqgfCIjdGV1TdAGd6Pf093Vf7p6GZSFzqc3THFxkIh4ytdEXpxXCi86Pb6ZXD8y5JQaKMyXTHNITDE3TF/p6QO2HsZ/TW3qe6I1F3xeiGWG+Ewak1dMPODhDLfSNGH3x+T3MkZlAV3fBtJtSXuoFu2NgCQsaVH9EvZQ/VQ0IuLqMbpkF9v6UbVmRDJm34Fvppz3ATieh5gC6o6QHVdaqgCxalQyR73B76bXE9JKLDTrpgrQm1mavogjwTEi0nH2IAPjsBiWixkS64A2obTRdMhMQJBZUMxp5uSET2+3SupBVU1qaUzo2HQMYDhxmYb5ogERnv07mXobK36NzTELhqJ4P0bioSkb2RzvWFuobSuQUGbOu6nAGbjoS02EnHvs2EqpoU0bF30mBXw9/XMGix7khIhwN07HdQ1XQ6ti4TNqXcdpAKWILE9CyjU0dyoKa2lXRqWzPYdO5GquEXSMzFVXRqPtT0Ap3a2w721M2nKt5CggbF6FCsJ1TUrZYOHeoOe075ksqobogE3UWnVkJFb9Chit6w544KKuQGJGoynboK6smlQ7VXw5amS6iUBUiU8Rwd2pYG5ayiQ7fDlov3Ui0HkbDUJXToLqimHx16FHakTY1RNRlIWN2P6UxxI6gl5Qs6s8yADR3WUT1tkbjWRXTmcahlGJ3Z2ww2DCmjgnrBhn50pqQRVJKxi47UXggbHqOSLoUdz9CZR6GSMXRmEhKXNpdqOhN2pH9GRw41gDqyD9KRValIWPa7VFRb2NKhlI5MhDom0ZHiHCSs9SaqKgP2DKYjP9SHKpofpiP9kbDuu6mqItj1PB15AKp4hI78JxJ2SQmV9TLsqreFThRlQQ3p++jEhnQkang11TUUtnWvoBPjoYahdKKsIxL1CBVW0xj2/ZpO7EuHEj6jE0ORqHyqbAUkXqETN0EFuXRiLhL1JJV2OSQafksH1kMFC+nAniwk6H4q7T3IXEgnzkHwcmrowGAkaBSVFjsdQovowEIEbzIdWGUgMTfGqLS5kGpTTrmaNgha3WLK1fZAYvpW0wslny549I6br7n07O4/a16vYc5JvS7od+Ovxs34064Y7dmYBbEJdGAKgjaSDuQhMb2P0GU7Fz1+c25zHE2dk6++//mPK5mg73Mgl7GTcsV1EbAvKFfUGAnpWUo3bS8ckoNE1Llg0upqxnekF5zoTwd+hWBdSAduR0K6FNE122cPOgF2ZPaZ/EkNj2l3LzjzNuX+jGC9TrkNKUhEu910yXdTe0CiwfAVMR7V6hZwqFMV5U5BkNrHKJeLRNTbRFcUzz7PhFib+7fwJ1VOS4NjT1LuCQTpacrNR0Lm0gWVf+ibBod6PrOfP1bzbFu4oP5ein1jIDgZhyhW2gqJGEnnDk1uATekXla4j/9k+/ROcMdQyp2F4PSn3H1IxKkVdGrPuPpwjXn2EwtX7Sj/6+bl8+7uCNcYqyk2A8FZQLGv0pCABl/ToS3D0xACp9VSan8qglKnlGIDkIjFdObPVxoIh7kU64OgDKDYVhMJuIeOFI1KQVh0jVHqeQTlJYqNQAJyq+lAze8bIUSWUKqkDoJR9zCl9qYjvma76cCfuiJUzqHY1QjGtRS7F/GZyyn3dX+EzUeUehnBWEipQ9mIbyLl8usidPpTqiIbQahXTqkpiK9zFaWKByCEzC2UGoYgXE+pypaIbwWlPmiNULqFUu8gCC9TqhDxDaFQzUMpCKf0PRSqaQ7/ZR2hUKwT4mq4nzLfnIXQGkepO+C/QZRajPjyKbO8AcKr/iEKfQT/vUqp/0BcZ8Yo8vxxCLPJlDoRfqtfQaGViCtlA0UeQbi1qKTQOPjtOkpdjrjupkT1zQi7Agothd9mUmi3iXhOKKVAycUIvTMpVJICn31BoWmIaxEFdp+CCNhBodPhr6aU6ol4fkmB3e0QBZModDf8NYBC2xCPuZn2FXVBJHSl0GL46xkKPYJ4rqV9pWcgIj6nzEEDvtpIoc6Iw9hI2yrOR1SMp1BX+KlRjDIbEE9f2lbdD5HRjkK3w0/9KDQO8XxCu2KDESGrKfMH+GkaZWI5iOMS2vYbRMloyuyBnz6lzIeIZyXtmotIaV5DmfbwT3YtZUYhjnNp16Z6iJZ3KHMz/HMZZaqbIo53aFNpJ0TMMMo8B/9MocxbiKMX7RqIqMmuoMgO+GcNZYYijtdp0wxEzyuUOQF+yaqmTFMcW3fatDYd0XMLZW6AXy6izJeIYwHtKW6LCOpAmTz45U7K5OHYMspoz82IpL0U+RJ+yafMQBzbZbTnAwOR9BJlmsInH1CmFY5tNm2p6oJoGkWZC+GTAxT5GnHsoS2PI6K6UeZ2+KMJZSwcWyZt2VkXEWUUUeT/wB9nU+YmHNvPactliKzFFHkD/hhBmRNxbLm0YxGi626KbIU/plHkO8RxLW0oOwHRdRpFqlLhi6UUmY84rqQNUxFhKSUUaQ9ffEORkYijFxN35HhE2VKKXAo/1I1RpBPiaM3E/R6Rdh9F7oAfelBkH+I5LsZEVbVGpP2CIr+HH26gyGuI63MmqgDRllZNiWXww6MUeRJxPc4E1fwMEbeNEjvgh4UUGYm4zmaC5iHq3qRETRp8sIkiFyCulCImJHYSou5pinSCD0ookoP4HmNC5iLyfk2RK+C9NIocMRFfgx+YgB+aI/IuocgYeK8lRb5AIsYzAbch+tpRJA/e60aRxUhEve8Y1ycmoi+lkhLL4b3eFJmKhPQ8wjhqTkUy2EyJXfDeNRQZicQMYRxPISm8RolYBjx3G0XOR4Km8ZieNJAUnqJIC3juAYq0RqIm8Ohqf4MkMZIiP4fnplPiiIGEXX+ER3HkaiSL8ynSA56bR4lNsOHMzfxJB3KRNFpTJBeee4sSi2FH6q++57/59s56SB5GOSUuhefWUiIP9mQ+9DX/xZ8HpyKpfEuJa+C5nZR4ErZ1vX/NEf7N4c8XTb7UQJL5ghLD4LlSSkyASIPO55/bykAyWkOJ0fBaOkXGQLNnOSXGw2stKXIrNHtepcQkeK0rRW6AZs98SjwNr51MkSug2ZNPiUJ4rStFekOz5ylKvASvnUSR06HZ8zAllsBrnSjSCZo991DifXitA0VaQbPnNkp8Cq+1p0g2NHsGU+IreO1EiqRAs6c/JfbAa20pUQ7NposoUQKv5VDiADSbzqJEDbx2AiVKoNl0PiUOw2stKVFrQLOnLyX2wWstKFIPmj03UOJreK05RY6HZs8ISmyE15pSpD00e+6ixCp4rTFFekCz50FKLIPXGlIkF5o9kymxCF7LoMgvodkzgxLPw3MllLgWmj3PU2IGPLedEsOh2bOIEpPhudWU+A00e5ZR4kF4bjElHoBmzypK3AXPzabEE9Ds2UiJEfDcY5SYAc2erykxEJ67gxIvQrOnmBJXwHPXU2INNFsaUqQ3PNebEkXQbOlFkZ7wXBeKNIJmx40U6QzPNaVIL2h2PEyR1vCcWUOJQdDseJEi2fDePkpMhGbHWkoUwwd/psR8aHb8lRIfwwfLKbEGmg3NKDIXPniREsXQbDiLIg/BBw9TpDG0xN1EkYHwwTUU6QUtcZMochp80JkiN0JL3B8pUh8+SK2kxMPQEreBEvvgi42UmA8tcWWU+BC+mE+JzdAS1pEiFnxxH0WaQUvUCIqMhy8up8gAaImaS5Gr4Yu2FHkGWqJ2UeQU+MIopcQGaAlqS5FYXfjjY0rUNoCWmCEU+Qt8UkCRK6AlppAi78End1JkKrTEbKNIPnxyIUXWQEtIS8qMhU+aU6Q6E1oirqdMP/jlAEUuhpaImZRpD7+8TZHHoCViE0X2wjfjKbISWgKaxCjyX/BNL4pUZECLrz9lfg3fpJZQ5CJo8c2gzMnwzxsUKYAWV8r3FCk24J+7KfJDGrR4LqLMa/BRd8r0gxbPs5QZCx8ZBynyB2hxpP+VMmfATwspcjgT2rH1p0xZKvw0ijKDoB3bHynzNnzVmTJvQDumrHLKPAB/7aFIVWNoxzKYQufAX/MpMxLasSylTEUG/DWcMiugHUOTasqshM/aUaa2FbSju41Ck+C3byhzN7Sj+4BCl8BvBZRZB+2oWscoU5MFv11CoZOgHc1vKbQWvkvdTxkL2lGk76HQk/DfDMpUtoT2026hVC78l0uhqdB+krmVQrsM+M/YRZmSbGg/pT+lpiAIUyl0H7Sf8jGluiMIp1Jobzq0f3cupTYjGFspNALav1tCqQcRjIkU2mpC+7FuFGuPYHSi1FXQfuwFSn2CoKyn0BpoP5JTTak7EZRxlDoP2r+aTqnaFghKToxCb0L7F43KKLUcwfmQUidD+2cPUuwWBGcUpV6D9k8aF1OqsiGC06yKUn2g/UMexV5FkOZRamsatP91ai3FrkOQTqPYOGh/Z6yiWGldBOp9SpW2hPY/BlNuHoJ1JcXmQft/svZQ7jIEy9xOsbOh/c1Uyh08DgEbTbH1JjSgYxXlpiBomT9Q7DZowDLK1eQgcFMoVtQI2pV0YCGC17qaYrOQ9DJ20IGzoYAFFKvtjmT3EB34FCo4g3IfIsnllNOBIVDCh5S7DUnNWEoHvk+DEgZQ7kg3JLN76MREqCFlB+W+rIvkdUYVHahsDkXcSQcKkbSyd9CJAqgi6wAdGIhk9RKdqD4RyriDDpT8DMnpVjryPNRx3Nd0YF0aklGXcjpR0wEKuY5OTEMSqrOJjsyHSoy1dOJyJJ85dKS2M5TSm04caIVkcx2deQmKWUInVqQguZx4iI7EukEx3WrpxAQkleM+oTMvQznP0omaC5BMptOZ2pOhnBOO0IlD3ZE87qJDhVDQE3RkbzskixtidKasJRTUoIiObGuG5HBxFR2aACXdRWfWZSIZ9CylQ7vrQknpO+nMO2mIvg776dQwKGoQHVpgIOpa7KRT600oythAh6Yj4rI30rHzoaxBdOo+RFr6Cjr2OtTVsIZODUOEmYvoWEUHKOwjOlV9OaIrj85NhMpepWPlv0BUTaRzW9KhsvfpXPEvEE3j6YLzoLTP6YLyyxFBxtN0wXNQWvpf6YbqYYictAV0wcEmUNpguuQ+REzmO3TDTVBa/W10y3QDUdJsHd3wHpRmvEz3LEhDdLTbRjdUdITKjJl00zuZiIrue+mKe6EyYybdta4ZoqH3IbpipQmFGbPotm3tEAVXV9AVpe2gMGMW3be3O8Lv9lq6YzgUZsyiFw5dgJAzHqVLXoPCjFn0Rs2EFIRZs2V0yf5mUJcxi55Z0QrhdeFeuuVKqMuYRQ8duBwhlTqplm6xoC5jFr01LQ1hlLOKrvk6C8oyZtFr636G8OlfTNcc6Q5lGbPovZKBCJn0/6SLboayjFn0RWFdhEnHDXRRAZRlzKJPvuyG8BhaRhd9mgFVGbPomyO3ISSy5tJNxe2gKmMW/fRhd4SAMXgP3RS7DKoyZtFftbMaQXU9VtFdj0JVRh59V3SbCZU1zqulu942oSgjj0FYfzaUlXJ7EV22uQEUZeQxIPNaQk25G+i2fe2gKCOPgSkdlwb1tJpP15X3gqKMPAZpax8oJu2+UrouNgCKMvIYsNdOhkLMAV/RA2OhKCOPwXvzPCgifcRWemEmFGXkUQlrrjIRvOx799ITb6ZATUYeVbF1RDqC1XLKIXpjfSbUZORRIXvvy0ZwOhVW0iNbm0NNRh7VUjK1JYLxH4tj9Mo3raEmI4/KqbROgu/My1fSO3vbQ01GHpW07u5W8FPPabvpoaKuUJORR1XVrhjZGP7o/Mg2eqrkdKjJyKPKqt4YlAmv5YzbQI+VnwM1GflU3eE/9EuDd5qO+jBGr1X2gZqMfIbBDwUXZcALTYe+VU3vVfWHmox8hkXFyscuzoSbWg3M+5K+KLsYajLyGSrVa6Ze0QBuOPEm62v6pagX1GTkM3xqNzwzoBmc6DRy/nf00V9OgpqMfIbV5vkP39irMWwycy4Y+eRr++ivrTlQk5HPkCteM3/ioF6NEJfR+vyRUxd/cYQBWNcUajLyGRFFa16c8cQDvxl+7S9ze7Q/vp4BICW7VafTe19xw61jJjyZt3jTEQZmeRbUZOQzompLDpRTFYvSoSYjn5r35qRATUY+Ne89DkUZ+dQ8FxsDRRn51DxXPRSKMvKpee5wXyjKyKfmua+6QVHGbGqeeyUbijJmU/Nazb0GFGXMpua1fb2hKmM2Na+tbgVVGbOpee2Z46AqYzY1j5UNhLKM2dQ8tqULlGXMpuaxhVlQljGbmreqx0Jdxmxq3tp1DtRlzKbmqdjMLKjLmE3NU1tzoTBjNjUv1TyRAYUZs6l5acOpUJkxm5qHKn6bCpUZc6h5aFUnKM2Yw8BV7d7wzvoYo6h0tAmlGXMYtD1jsvF/NRn0KSPnrTZQmzGHQXu3Gf7OuG47I6VoKBRnzGHQrBT8w3F3HGBkVE5vAsUZcxg0y8S/qD+pnJFQ+0JbqM6Yw6BZJn6sVUENw++NblCeMYdBs0z8hC6vM+RW5UJ9xhwGzTLx0879hCH2RT+EgDGHQbNMHI1x7XaG1K5hKQgBYw6DZpk4huNGH2AIHRyTgTAw5jBololjy7pzB0Pm8KRshIIxh0GzTMSVMuBDhsi+R5ojHIw5DJplIiFnLKhmOHw2NB0hYcxh0CwTiWo95Qcqr2ZhLkLDKGDQLBM2ZI7eTqUVT85BeBgFDJplwh7zyveprC9G1kWIGAUMmmXCvtPmVVFBsdcvRKgYBQyaZUKk2agPY1TLoafbI1yMAgbNMiGWM249lVG6oH8GQsYoYNAsE450mriVCjj80oA6CB2jgEGzTDh26tRdDFT5wmvrIoSMAgbNMuEGI3fGfgbkyMvX10MoGQUMmmXCLamXFHxD31W8OigLIWUUMGiWCVe1Gz5/D/3zxczr6iO0jAIGzTLhvs6jFh6k52IbnxnQFGFmFDBolglvGN3vfqOEnqn9dFq/Rgg5o4BBs0x4KLXX+LcP0HXVa6Zclo3wMwoYNMuE55pfeGfBx6V0x4EP8u+8KAuRYBQwaJYJnxhtL79v/sZKisW+WTptxNlNEB1GIYNmmfBXaudrHn5x+ab9tbShZNPCR2/oURcRYxQyaJaJgKQcf/JFg+6e/Oybn35XyZ9QunPtW/OmP3DbNb27tUxDJBmFDJplQgUNjm/ZqnVO23Y/a//zjp1O6tLt5K4t0xF5RiGDZpnQgmIUMmiWCS0oRiGDZpnQgmIUMmiWCS0oRiGDZpnQgmIUMmiWCS0oRiGDZpnQgmIUMmiWCS0oRiGDZpnQgmIUMmiWCS0oRiGDZpnQgmIUMmiWCS0wUxg0y4QWmJEMmmVCC0yfGgbMMqEF5pQSBswyoQWm1XcMmGVCC0zmegbMMqEFJmUJA2aZ0IIzkwGzTGjBGcKAWSa04DQ+wGBZJrQAPctgWSa0AJ3HYFkmtAClb2GgLBNakCYwUJYJLUgdKxgky4QWqPcYJMuEFqihDJJlQgtUyi4GyDKhBesqBsgyoQXsXQbHMqEFrAuDY5nQgjaLgbFMaEHLLmNQLBNa4O5kUCwTWuCMrxgQy4QWvD4MiGVCU8ALDIZlQlPBdgbCMqGpoCkDYZnQlNCXQbBMaGp4nAGwTGiKWEH/WSY0RaSU0XeWCU0VPeg7y4SmjNvpN8uEpo459JllQlPIi/SXZUJTyUL6yjKhKeU1+skyoanlLfrIMqEp5l36xzKhqWYVfWOZ0JSzln6xTGjq2UifWCY0BW2iPywTmoqW0ReWCU1Js+gHy4SmpnvoA8uEpqir6T3LhKaq9vScZUJT1y56zDKhKew5essyoalsCD1lmdCU1qKWHrJMaIpbSu9YJjTVXU3PWCY05aUdoEcsE1oIPEVvWCa0MDj+ML1gmdDCYRI9YJnQQiK7iK6zTGihMZZus0xo4ZHyMd1lmdDCpH0Z3WSZ0MLlVrrIMqGFzSK6ZooBLXTqrKY7akZCC6PGW+iGkj7QwqnNHjr33SnQwqrrfjq1vhW08Oq2n84syYQWZt3204mZKdDCreseih0YAi302myh0LONoUVA49WU2HIetGios4i2VUxIhxYZt5bRnvc6QouS9h/Thl1DoUVMytgiJujdq1KgRU/2pMOMr2xWF2gRdfxTB3hsX92ZDS3C0q5eWsuj2f5CHwNa1LUY8twu/ljZisf7NoWWLNpffc+sZZs2rl317luvLXxxzu09UqBFxn8D8jI/iZTXmXkAAAAASUVORK5CYII=;" vertex="1" parent="1">
            <mxGeometry x="-25" y="859" width="25" height="25" as="geometry" />
          </mxCell>
        </UserObject>
        <UserObject label="" link="data:page/id,3QteBEmTiDwL6ACKbh2g" id="PXmoGq0hGGlsqGOkekpb-2">
          <mxCell style="shape=image;verticalLabelPosition=bottom;labelBackgroundColor=default;verticalAlign=top;aspect=fixed;imageAspect=0;image=data:image/png,iVBORw0KGgoAAAANSUhEUgAAAgAAAAIACAMAAADDpiTIAAAAA3NCSVQICAjb4U/gAAAACXBIWXMAABbUAAAW1AGaOz6wAAAAGXRFWHRTb2Z0d2FyZQB3d3cuaW5rc2NhcGUub3Jnm+48GgAAAwBQTFRF////AAAAAAAAAAAAAAAAAAAAAAAAAAAAAAAAAAAAAAAAAAAAAAAAAAAAAAAAAAAAAAAAAAAAAAAAAAAAAAAAAAAAAAAAAAAAAAAAAAAAAAAAAAAAAAAAAAAAAAAAAAAAAAAAAAAAAAAAAAAAAAAAAAAAAAAAAAAAAAAAAAAAAAAAAAAAAAAAAAAAAAAAAAAAAAAAAAAAAAAAAAAAAAAAAAAAAAAAAAAAAAAAAAAAAAAAAAAAAAAAAAAAAAAAAAAAAAAAAAAAAAAAAAAAAAAAAAAAAAAAAAAAAAAAAAAAAAAAAAAAAAAAAAAAAAAAAAAAAAAAAAAAAAAAAAAAAAAAAAAAAAAAAAAAAAAAAAAAAAAAAAAAAAAAAAAAAAAAAAAAAAAAAAAAAAAAAAAAAAAAAAAAAAAAAAAAAAAAAAAAAAAAAAAAAAAAAAAAAAAAAAAAAAAAAAAAAAAAAAAAAAAAAAAAAAAAAAAAAAAAAAAAAAAAAAAAAAAAAAAAAAAAAAAAAAAAAAAAAAAAAAAAAAAAAAAAAAAAAAAAAAAAAAAAAAAAAAAAAAAAAAAAAAAAAAAAAAAAAAAAAAAAAAAAAAAAAAAAAAAAAAAAAAAAAAAAAAAAAAAAAAAAAAAAAAAAAAAAAAAAAAAAAAAAAAAAAAAAAAAAAAAAAAAAAAAAAAAAAAAAAAAAAAAAAAAAAAAAAAAAAAAAAAAAAAAAAAAAAAAAAAAAAAAAAAAAAAAAAAAAAAAAAAAAAAAAAAAAAAAAAAAAAAAAAAAAAAAAAAAAAAAAAAAAAAAAAAAAAAAAAAAAAAAAAAAAAAAAAAAAAAAAAAAAAAAAAAAAAAAAAAAAAAAAAAAAAAAAAAAAAAAAAAAAAAAAAAAAAAAAAAAAAAAAAAAAAAAAAAAAAAAAAAAAAAAAAAAAAAAAAAAAAAAAAAAAAAAAAAAAAAAAAAAAAAAAAAAAAAAAAAAAAAAAAAAAAAAAAAAAAAAAAAAAAAAAAAAAAAAAAAAAAAAAAAAAAAAAAAAACyO34QAAAP90Uk5TAAECAwQFBgcICQoLDA0ODxAREhMUFRYXGBkaGxwdHh8gISIjJCUmJygpKissLS4vMDEyMzQ1Njc4OTo7PD0+P0BBQkNERUZHSElKS0xNTk9QUVJTVFVWV1hZWltcXV5fYGFiY2RlZmdoaWprbG1ub3BxcnN0dXZ3eHl6e3x9fn+AgYKDhIWGh4iJiouMjY6PkJGSk5SVlpeYmZqbnJ2en6ChoqOkpaanqKmqq6ytrq+wsbKztLW2t7i5uru8vb6/wMHCw8TFxsfIycrLzM3Oz9DR0tPU1dbX2Nna29zd3t/g4eLj5OXm5+jp6uvs7e7v8PHy8/T19vf4+fr7/P3+6wjZNQAAHexJREFUGBntwQuAjnXeN/Dvdc00M5gxzkIGrXUIRSU9W1PpqK1IOklIki2rrUjZDnSwhfKqfTDDzNUB2Z6ldJDUKiVKFFqFiNIih5nWzBhzvL/Pu++zz7u7bdz39btO/+u6/58PoB1VduvOPXtfMXDEXQ9OnvH8omWrNn6973BNyZ6vPn1/yUuFT08aP3rYNZfm9vh5iwxo0dLwjEET560pZoJi372bP7ZflwxoYZd9+sAHX/joIEVi3/5p1pi+ndOhhY/R9br7n1u1ny6o3fnOzLsuPwFaWKScPubVYrptx7PDToSmurSzxr9VQq/8Zf7IztBUVaf3xHfL6bV9C0efYkJTTFaf362qpF+KXxvTMwWaIozcp9bW0G8lb407EVrwuk/ZxaB8dEdzaEFq/+BmBqrmnWHZ0ILR4s5PqICKl6+uA81vDW9ZXktVlDzfJxWaf+pe92ol1bJ/xlkGND8cd9m8UqromydOgea1nCkHqa4//6ouNA+dvbCGaiue0gaaN9KGfMoQqFl4DjT3NZ/4PcPis5vSobnqxIJKhsm+8VnQXNPh+WqGTdED9aG5ovP8GobRDxMbQHOs20u1DKtDjzaC5sjJL8cYZiWPN4Im1rKwlmFXfFcaNJG6E8oYBduugmafOWw3o2JlT2g2nb+eERKbnwPNhg6vM2KO/C4TWoLSJ1Ywer7tCy0h521hNC1qBS2uJs8xskpGm9CO7aaDjLK1PaAdQ8f3GHE10zKhHYV5bwWj79ve0H5Su5VMCrFpGdD+3fBSJosvekD7kWavMYlU3Z8C7Z9duZ/JZXV7aP9flsWkUzYS2t91/5rJ6JVsaH9z8xEmp20nQ0NGAZNW+RAkvXafMpnlpSO5XVbM5PZJGyQx89EYk93BPkhaDd6mxtoHkaTabab2Ny+kIRn12kftf7zXEMlnQDm1/7W5HZLN2Bi1f9h/JpJKykxq/6J8AJJI5pvUfiQ2Fkmj+Xpq/26GgeTQeisDdHj3lnXvvf7i7KceHvurQf3OP+viq4aOuu+xpwv/682V67d/X80AzU1FMmj/DQNRtuGPj9+c2wLHlNr+0tHPLN1WzUC8nIbo67qXPivbuPDx4ee0gA2pP7/0jt8v3V5Nny2ri6g7vYh+2jV3REeIpf3ivqUl9NPK+oi2c0rom22FQ9rCsZTT7l5cRN+sa4wo61NOX8Q2zby+JVxjdBv10l76Y1MLRFf/Svrg+xn9m8B9HW55pYI+2N4GUXVxFT3312cvSoFXsoe9U0PPbW+BaOpVRo+V/7F/OrzVfPRqem1TY0TRSUX0VPXSwVnwQ7vxn9Nb6+ojenL+Qg/FPritCfzTddIOemllXURN0630zp7ftobfziyopHeWpSFastbRM1tvSUcQWkw+RM+8nIooSV9Or3zc30RQ6o/bQ6/MNRAdKYvokSXnIlDpt2yhR2YgOubQE9UvdEPgzP4f0Rv3ICoepxfKpudADecsidEDsQGIhjH0QPGDjaCOrnNr6b7yMxEFQ2N0XW1eY6jltNV03/52CL++1XTdqlOhHGPoXrpuc0OEXbfDdNuewQZUVP/JKrrtvTSEW/ZXdFnV1CyoqtPbdNsLCDXjFbpsWUeorP9OuuxBhNm9dNeOK6G4jAnldFVtH4RX7xq6qfyhDKivzSK66mAbhFWrfXTT0hyEw4Xf0k2fpCOcjltNF1XdYyAsGr5CN+UhnJ6hi3acgTD5dQVdNARhNJAueikb4dJ9C91TfjLCp0sZXVN+KzyQ2f38vjfcOmbC1FnzFv/p402fffDmf1nP/G786GHXXJp7Ygocqvc83bMtG2GTtYWu2dQFrkrr1Hfs7BV7eCyVXy6eMjy3ORwYXErXvIKwWUjXzKkDt6Tnjnp66fYaJuzQ2vkTBnaGTIfP6JqRCJexdMuh6+COOuc/vOIIRfYuGNEeAunP0C1l7REm51TTJZ+cCBdkXvK7DyvpyHcvDGsD2/oV0SWrUxAeWbvokunHwamMy6asqaYrdhTe2Ar2tP6YLrkf4TGT7ojdBYdSLnr2EF31+bhWsKPuErqjqgfCIjdGV1TdAGd6Pf093Vf7p6GZSFzqc3THFxkIh4ytdEXpxXCi86Pb6ZXD8y5JQaKMyXTHNITDE3TF/p6QO2HsZ/TW3qe6I1F3xeiGWG+Ewak1dMPODhDLfSNGH3x+T3MkZlAV3fBtJtSXuoFu2NgCQsaVH9EvZQ/VQ0IuLqMbpkF9v6UbVmRDJm34Fvppz3ATieh5gC6o6QHVdaqgCxalQyR73B76bXE9JKLDTrpgrQm1mavogjwTEi0nH2IAPjsBiWixkS64A2obTRdMhMQJBZUMxp5uSET2+3SupBVU1qaUzo2HQMYDhxmYb5ogERnv07mXobK36NzTELhqJ4P0bioSkb2RzvWFuobSuQUGbOu6nAGbjoS02EnHvs2EqpoU0bF30mBXw9/XMGix7khIhwN07HdQ1XQ6ti4TNqXcdpAKWILE9CyjU0dyoKa2lXRqWzPYdO5GquEXSMzFVXRqPtT0Ap3a2w721M2nKt5CggbF6FCsJ1TUrZYOHeoOe075ksqobogE3UWnVkJFb9Chit6w544KKuQGJGoynboK6smlQ7VXw5amS6iUBUiU8Rwd2pYG5ayiQ7fDlov3Ui0HkbDUJXToLqimHx16FHakTY1RNRlIWN2P6UxxI6gl5Qs6s8yADR3WUT1tkbjWRXTmcahlGJ3Z2ww2DCmjgnrBhn50pqQRVJKxi47UXggbHqOSLoUdz9CZR6GSMXRmEhKXNpdqOhN2pH9GRw41gDqyD9KRValIWPa7VFRb2NKhlI5MhDom0ZHiHCSs9SaqKgP2DKYjP9SHKpofpiP9kbDuu6mqItj1PB15AKp4hI78JxJ2SQmV9TLsqreFThRlQQ3p++jEhnQkang11TUUtnWvoBPjoYahdKKsIxL1CBVW0xj2/ZpO7EuHEj6jE0ORqHyqbAUkXqETN0EFuXRiLhL1JJV2OSQafksH1kMFC+nAniwk6H4q7T3IXEgnzkHwcmrowGAkaBSVFjsdQovowEIEbzIdWGUgMTfGqLS5kGpTTrmaNgha3WLK1fZAYvpW0wslny549I6br7n07O4/a16vYc5JvS7od+Ovxs34064Y7dmYBbEJdGAKgjaSDuQhMb2P0GU7Fz1+c25zHE2dk6++//mPK5mg73Mgl7GTcsV1EbAvKFfUGAnpWUo3bS8ckoNE1Llg0upqxnekF5zoTwd+hWBdSAduR0K6FNE122cPOgF2ZPaZ/EkNj2l3LzjzNuX+jGC9TrkNKUhEu910yXdTe0CiwfAVMR7V6hZwqFMV5U5BkNrHKJeLRNTbRFcUzz7PhFib+7fwJ1VOS4NjT1LuCQTpacrNR0Lm0gWVf+ibBod6PrOfP1bzbFu4oP5ein1jIDgZhyhW2gqJGEnnDk1uATekXla4j/9k+/ROcMdQyp2F4PSn3H1IxKkVdGrPuPpwjXn2EwtX7Sj/6+bl8+7uCNcYqyk2A8FZQLGv0pCABl/ToS3D0xACp9VSan8qglKnlGIDkIjFdObPVxoIh7kU64OgDKDYVhMJuIeOFI1KQVh0jVHqeQTlJYqNQAJyq+lAze8bIUSWUKqkDoJR9zCl9qYjvma76cCfuiJUzqHY1QjGtRS7F/GZyyn3dX+EzUeUehnBWEipQ9mIbyLl8usidPpTqiIbQahXTqkpiK9zFaWKByCEzC2UGoYgXE+pypaIbwWlPmiNULqFUu8gCC9TqhDxDaFQzUMpCKf0PRSqaQ7/ZR2hUKwT4mq4nzLfnIXQGkepO+C/QZRajPjyKbO8AcKr/iEKfQT/vUqp/0BcZ8Yo8vxxCLPJlDoRfqtfQaGViCtlA0UeQbi1qKTQOPjtOkpdjrjupkT1zQi7Agothd9mUmi3iXhOKKVAycUIvTMpVJICn31BoWmIaxEFdp+CCNhBodPhr6aU6ol4fkmB3e0QBZModDf8NYBC2xCPuZn2FXVBJHSl0GL46xkKPYJ4rqV9pWcgIj6nzEEDvtpIoc6Iw9hI2yrOR1SMp1BX+KlRjDIbEE9f2lbdD5HRjkK3w0/9KDQO8XxCu2KDESGrKfMH+GkaZWI5iOMS2vYbRMloyuyBnz6lzIeIZyXtmotIaV5DmfbwT3YtZUYhjnNp16Z6iJZ3KHMz/HMZZaqbIo53aFNpJ0TMMMo8B/9MocxbiKMX7RqIqMmuoMgO+GcNZYYijtdp0wxEzyuUOQF+yaqmTFMcW3fatDYd0XMLZW6AXy6izJeIYwHtKW6LCOpAmTz45U7K5OHYMspoz82IpL0U+RJ+yafMQBzbZbTnAwOR9BJlmsInH1CmFY5tNm2p6oJoGkWZC+GTAxT5GnHsoS2PI6K6UeZ2+KMJZSwcWyZt2VkXEWUUUeT/wB9nU+YmHNvPactliKzFFHkD/hhBmRNxbLm0YxGi626KbIU/plHkO8RxLW0oOwHRdRpFqlLhi6UUmY84rqQNUxFhKSUUaQ9ffEORkYijFxN35HhE2VKKXAo/1I1RpBPiaM3E/R6Rdh9F7oAfelBkH+I5LsZEVbVGpP2CIr+HH26gyGuI63MmqgDRllZNiWXww6MUeRJxPc4E1fwMEbeNEjvgh4UUGYm4zmaC5iHq3qRETRp8sIkiFyCulCImJHYSou5pinSCD0ookoP4HmNC5iLyfk2RK+C9NIocMRFfgx+YgB+aI/IuocgYeK8lRb5AIsYzAbch+tpRJA/e60aRxUhEve8Y1ycmoi+lkhLL4b3eFJmKhPQ8wjhqTkUy2EyJXfDeNRQZicQMYRxPISm8RolYBjx3G0XOR4Km8ZieNJAUnqJIC3juAYq0RqIm8Ohqf4MkMZIiP4fnplPiiIGEXX+ER3HkaiSL8ynSA56bR4lNsOHMzfxJB3KRNFpTJBeee4sSi2FH6q++57/59s56SB5GOSUuhefWUiIP9mQ+9DX/xZ8HpyKpfEuJa+C5nZR4ErZ1vX/NEf7N4c8XTb7UQJL5ghLD4LlSSkyASIPO55/bykAyWkOJ0fBaOkXGQLNnOSXGw2stKXIrNHtepcQkeK0rRW6AZs98SjwNr51MkSug2ZNPiUJ4rStFekOz5ylKvASvnUSR06HZ8zAllsBrnSjSCZo991DifXitA0VaQbPnNkp8Cq+1p0g2NHsGU+IreO1EiqRAs6c/JfbAa20pUQ7NposoUQKv5VDiADSbzqJEDbx2AiVKoNl0PiUOw2stKVFrQLOnLyX2wWstKFIPmj03UOJreK05RY6HZs8ISmyE15pSpD00e+6ixCp4rTFFekCz50FKLIPXGlIkF5o9kymxCF7LoMgvodkzgxLPw3MllLgWmj3PU2IGPLedEsOh2bOIEpPhudWU+A00e5ZR4kF4bjElHoBmzypK3AXPzabEE9Ds2UiJEfDcY5SYAc2erykxEJ67gxIvQrOnmBJXwHPXU2INNFsaUqQ3PNebEkXQbOlFkZ7wXBeKNIJmx40U6QzPNaVIL2h2PEyR1vCcWUOJQdDseJEi2fDePkpMhGbHWkoUwwd/psR8aHb8lRIfwwfLKbEGmg3NKDIXPniREsXQbDiLIg/BBw9TpDG0xN1EkYHwwTUU6QUtcZMochp80JkiN0JL3B8pUh8+SK2kxMPQEreBEvvgi42UmA8tcWWU+BC+mE+JzdAS1pEiFnxxH0WaQUvUCIqMhy8up8gAaImaS5Gr4Yu2FHkGWqJ2UeQU+MIopcQGaAlqS5FYXfjjY0rUNoCWmCEU+Qt8UkCRK6AlppAi78End1JkKrTEbKNIPnxyIUXWQEtIS8qMhU+aU6Q6E1oirqdMP/jlAEUuhpaImZRpD7+8TZHHoCViE0X2wjfjKbISWgKaxCjyX/BNL4pUZECLrz9lfg3fpJZQ5CJo8c2gzMnwzxsUKYAWV8r3FCk24J+7KfJDGrR4LqLMa/BRd8r0gxbPs5QZCx8ZBynyB2hxpP+VMmfATwspcjgT2rH1p0xZKvw0ijKDoB3bHynzNnzVmTJvQDumrHLKPAB/7aFIVWNoxzKYQufAX/MpMxLasSylTEUG/DWcMiugHUOTasqshM/aUaa2FbSju41Ck+C3byhzN7Sj+4BCl8BvBZRZB+2oWscoU5MFv11CoZOgHc1vKbQWvkvdTxkL2lGk76HQk/DfDMpUtoT2026hVC78l0uhqdB+krmVQrsM+M/YRZmSbGg/pT+lpiAIUyl0H7Sf8jGluiMIp1Jobzq0f3cupTYjGFspNALav1tCqQcRjIkU2mpC+7FuFGuPYHSi1FXQfuwFSn2CoKyn0BpoP5JTTak7EZRxlDoP2r+aTqnaFghKToxCb0L7F43KKLUcwfmQUidD+2cPUuwWBGcUpV6D9k8aF1OqsiGC06yKUn2g/UMexV5FkOZRamsatP91ai3FrkOQTqPYOGh/Z6yiWGldBOp9SpW2hPY/BlNuHoJ1JcXmQft/svZQ7jIEy9xOsbOh/c1Uyh08DgEbTbH1JjSgYxXlpiBomT9Q7DZowDLK1eQgcFMoVtQI2pV0YCGC17qaYrOQ9DJ20IGzoYAFFKvtjmT3EB34FCo4g3IfIsnllNOBIVDCh5S7DUnNWEoHvk+DEgZQ7kg3JLN76MREqCFlB+W+rIvkdUYVHahsDkXcSQcKkbSyd9CJAqgi6wAdGIhk9RKdqD4RyriDDpT8DMnpVjryPNRx3Nd0YF0aklGXcjpR0wEKuY5OTEMSqrOJjsyHSoy1dOJyJJ85dKS2M5TSm04caIVkcx2deQmKWUInVqQguZx4iI7EukEx3WrpxAQkleM+oTMvQznP0omaC5BMptOZ2pOhnBOO0IlD3ZE87qJDhVDQE3RkbzskixtidKasJRTUoIiObGuG5HBxFR2aACXdRWfWZSIZ9CylQ7vrQknpO+nMO2mIvg776dQwKGoQHVpgIOpa7KRT600oythAh6Yj4rI30rHzoaxBdOo+RFr6Cjr2OtTVsIZODUOEmYvoWEUHKOwjOlV9OaIrj85NhMpepWPlv0BUTaRzW9KhsvfpXPEvEE3j6YLzoLTP6YLyyxFBxtN0wXNQWvpf6YbqYYictAV0wcEmUNpguuQ+REzmO3TDTVBa/W10y3QDUdJsHd3wHpRmvEz3LEhDdLTbRjdUdITKjJl00zuZiIrue+mKe6EyYybdta4ZoqH3IbpipQmFGbPotm3tEAVXV9AVpe2gMGMW3be3O8Lv9lq6YzgUZsyiFw5dgJAzHqVLXoPCjFn0Rs2EFIRZs2V0yf5mUJcxi55Z0QrhdeFeuuVKqMuYRQ8duBwhlTqplm6xoC5jFr01LQ1hlLOKrvk6C8oyZtFr636G8OlfTNcc6Q5lGbPovZKBCJn0/6SLboayjFn0RWFdhEnHDXRRAZRlzKJPvuyG8BhaRhd9mgFVGbPomyO3ISSy5tJNxe2gKmMW/fRhd4SAMXgP3RS7DKoyZtFftbMaQXU9VtFdj0JVRh59V3SbCZU1zqulu942oSgjj0FYfzaUlXJ7EV22uQEUZeQxIPNaQk25G+i2fe2gKCOPgSkdlwb1tJpP15X3gqKMPAZpax8oJu2+UrouNgCKMvIYsNdOhkLMAV/RA2OhKCOPwXvzPCgifcRWemEmFGXkUQlrrjIRvOx799ITb6ZATUYeVbF1RDqC1XLKIXpjfSbUZORRIXvvy0ZwOhVW0iNbm0NNRh7VUjK1JYLxH4tj9Mo3raEmI4/KqbROgu/My1fSO3vbQ01GHpW07u5W8FPPabvpoaKuUJORR1XVrhjZGP7o/Mg2eqrkdKjJyKPKqt4YlAmv5YzbQI+VnwM1GflU3eE/9EuDd5qO+jBGr1X2gZqMfIbBDwUXZcALTYe+VU3vVfWHmox8hkXFyscuzoSbWg3M+5K+KLsYajLyGSrVa6Ze0QBuOPEm62v6pagX1GTkM3xqNzwzoBmc6DRy/nf00V9OgpqMfIbV5vkP39irMWwycy4Y+eRr++ivrTlQk5HPkCteM3/ioF6NEJfR+vyRUxd/cYQBWNcUajLyGRFFa16c8cQDvxl+7S9ze7Q/vp4BICW7VafTe19xw61jJjyZt3jTEQZmeRbUZOQzompLDpRTFYvSoSYjn5r35qRATUY+Ne89DkUZ+dQ8FxsDRRn51DxXPRSKMvKpee5wXyjKyKfmua+6QVHGbGqeeyUbijJmU/Nazb0GFGXMpua1fb2hKmM2Na+tbgVVGbOpee2Z46AqYzY1j5UNhLKM2dQ8tqULlGXMpuaxhVlQljGbmreqx0Jdxmxq3tp1DtRlzKbmqdjMLKjLmE3NU1tzoTBjNjUv1TyRAYUZs6l5acOpUJkxm5qHKn6bCpUZc6h5aFUnKM2Yw8BV7d7wzvoYo6h0tAmlGXMYtD1jsvF/NRn0KSPnrTZQmzGHQXu3Gf7OuG47I6VoKBRnzGHQrBT8w3F3HGBkVE5vAsUZcxg0y8S/qD+pnJFQ+0JbqM6Yw6BZJn6sVUENw++NblCeMYdBs0z8hC6vM+RW5UJ9xhwGzTLx0879hCH2RT+EgDGHQbNMHI1x7XaG1K5hKQgBYw6DZpk4huNGH2AIHRyTgTAw5jBololjy7pzB0Pm8KRshIIxh0GzTMSVMuBDhsi+R5ojHIw5DJplIiFnLKhmOHw2NB0hYcxh0CwTiWo95Qcqr2ZhLkLDKGDQLBM2ZI7eTqUVT85BeBgFDJplwh7zyveprC9G1kWIGAUMmmXCvtPmVVFBsdcvRKgYBQyaZUKk2agPY1TLoafbI1yMAgbNMiGWM249lVG6oH8GQsYoYNAsE450mriVCjj80oA6CB2jgEGzTDh26tRdDFT5wmvrIoSMAgbNMuEGI3fGfgbkyMvX10MoGQUMmmXCLamXFHxD31W8OigLIWUUMGiWCVe1Gz5/D/3zxczr6iO0jAIGzTLhvs6jFh6k52IbnxnQFGFmFDBolglvGN3vfqOEnqn9dFq/Rgg5o4BBs0x4KLXX+LcP0HXVa6Zclo3wMwoYNMuE55pfeGfBx6V0x4EP8u+8KAuRYBQwaJYJnxhtL79v/sZKisW+WTptxNlNEB1GIYNmmfBXaudrHn5x+ab9tbShZNPCR2/oURcRYxQyaJaJgKQcf/JFg+6e/Oybn35XyZ9QunPtW/OmP3DbNb27tUxDJBmFDJplQgUNjm/ZqnVO23Y/a//zjp1O6tLt5K4t0xF5RiGDZpnQgmIUMmiWCS0oRiGDZpnQgmIUMmiWCS0oRiGDZpnQgmIUMmiWCS0oRiGDZpnQgmIUMmiWCS0oRiGDZpnQgmIUMmiWCS0oRiGDZpnQgmIUMmiWCS0wUxg0y4QWmJEMmmVCC0yfGgbMMqEF5pQSBswyoQWm1XcMmGVCC0zmegbMMqEFJmUJA2aZ0IIzkwGzTGjBGcKAWSa04DQ+wGBZJrQAPctgWSa0AJ3HYFkmtAClb2GgLBNakCYwUJYJLUgdKxgky4QWqPcYJMuEFqihDJJlQgtUyi4GyDKhBesqBsgyoQXsXQbHMqEFrAuDY5nQgjaLgbFMaEHLLmNQLBNa4O5kUCwTWuCMrxgQy4QWvD4MiGVCU8ALDIZlQlPBdgbCMqGpoCkDYZnQlNCXQbBMaGp4nAGwTGiKWEH/WSY0RaSU0XeWCU0VPeg7y4SmjNvpN8uEpo459JllQlPIi/SXZUJTyUL6yjKhKeU1+skyoanlLfrIMqEp5l36xzKhqWYVfWOZ0JSzln6xTGjq2UifWCY0BW2iPywTmoqW0ReWCU1Js+gHy4SmpnvoA8uEpqir6T3LhKaq9vScZUJT1y56zDKhKew5essyoalsCD1lmdCU1qKWHrJMaIpbSu9YJjTVXU3PWCY05aUdoEcsE1oIPEVvWCa0MDj+ML1gmdDCYRI9YJnQQiK7iK6zTGihMZZus0xo4ZHyMd1lmdDCpH0Z3WSZ0MLlVrrIMqGFzSK6ZooBLXTqrKY7akZCC6PGW+iGkj7QwqnNHjr33SnQwqrrfjq1vhW08Oq2n84syYQWZt3204mZKdDCreseih0YAi302myh0LONoUVA49WU2HIetGios4i2VUxIhxYZt5bRnvc6QouS9h/Thl1DoUVMytgiJujdq1KgRU/2pMOMr2xWF2gRdfxTB3hsX92ZDS3C0q5eWsuj2f5CHwNa1LUY8twu/ljZisf7NoWWLNpffc+sZZs2rl317luvLXxxzu09UqBFxn8D8jI/iZTXmXkAAAAASUVORK5CYII=;" vertex="1" parent="1">
            <mxGeometry x="246" y="859" width="25" height="25" as="geometry" />
          </mxCell>
        </UserObject>
        <UserObject label="" link="data:page/id,EQgmJDx0UmEzZQA2SyTF" id="PXmoGq0hGGlsqGOkekpb-3">
          <mxCell style="shape=image;verticalLabelPosition=bottom;labelBackgroundColor=default;verticalAlign=top;aspect=fixed;imageAspect=0;image=data:image/png,iVBORw0KGgoAAAANSUhEUgAAAgAAAAIACAMAAADDpiTIAAAAA3NCSVQICAjb4U/gAAAACXBIWXMAABbUAAAW1AGaOz6wAAAAGXRFWHRTb2Z0d2FyZQB3d3cuaW5rc2NhcGUub3Jnm+48GgAAAwBQTFRF////AAAAAAAAAAAAAAAAAAAAAAAAAAAAAAAAAAAAAAAAAAAAAAAAAAAAAAAAAAAAAAAAAAAAAAAAAAAAAAAAAAAAAAAAAAAAAAAAAAAAAAAAAAAAAAAAAAAAAAAAAAAAAAAAAAAAAAAAAAAAAAAAAAAAAAAAAAAAAAAAAAAAAAAAAAAAAAAAAAAAAAAAAAAAAAAAAAAAAAAAAAAAAAAAAAAAAAAAAAAAAAAAAAAAAAAAAAAAAAAAAAAAAAAAAAAAAAAAAAAAAAAAAAAAAAAAAAAAAAAAAAAAAAAAAAAAAAAAAAAAAAAAAAAAAAAAAAAAAAAAAAAAAAAAAAAAAAAAAAAAAAAAAAAAAAAAAAAAAAAAAAAAAAAAAAAAAAAAAAAAAAAAAAAAAAAAAAAAAAAAAAAAAAAAAAAAAAAAAAAAAAAAAAAAAAAAAAAAAAAAAAAAAAAAAAAAAAAAAAAAAAAAAAAAAAAAAAAAAAAAAAAAAAAAAAAAAAAAAAAAAAAAAAAAAAAAAAAAAAAAAAAAAAAAAAAAAAAAAAAAAAAAAAAAAAAAAAAAAAAAAAAAAAAAAAAAAAAAAAAAAAAAAAAAAAAAAAAAAAAAAAAAAAAAAAAAAAAAAAAAAAAAAAAAAAAAAAAAAAAAAAAAAAAAAAAAAAAAAAAAAAAAAAAAAAAAAAAAAAAAAAAAAAAAAAAAAAAAAAAAAAAAAAAAAAAAAAAAAAAAAAAAAAAAAAAAAAAAAAAAAAAAAAAAAAAAAAAAAAAAAAAAAAAAAAAAAAAAAAAAAAAAAAAAAAAAAAAAAAAAAAAAAAAAAAAAAAAAAAAAAAAAAAAAAAAAAAAAAAAAAAAAAAAAAAAAAAAAAAAAAAAAAAAAAAAAAAAAAAAAAAAAAAAAAAAAAAAAAAAAAAAAAAAAAAAAAAAAAAAAAAAAAAAAAAAAAAAAAAAAAAAAAAAAAAAAAAAAAAAAAAAAAAAAAAAAAAAAAAAAAAAAAAAAAAAAAAAAAAAAAAAAAAAAAAAAAAAAAAAACyO34QAAAP90Uk5TAAECAwQFBgcICQoLDA0ODxAREhMUFRYXGBkaGxwdHh8gISIjJCUmJygpKissLS4vMDEyMzQ1Njc4OTo7PD0+P0BBQkNERUZHSElKS0xNTk9QUVJTVFVWV1hZWltcXV5fYGFiY2RlZmdoaWprbG1ub3BxcnN0dXZ3eHl6e3x9fn+AgYKDhIWGh4iJiouMjY6PkJGSk5SVlpeYmZqbnJ2en6ChoqOkpaanqKmqq6ytrq+wsbKztLW2t7i5uru8vb6/wMHCw8TFxsfIycrLzM3Oz9DR0tPU1dbX2Nna29zd3t/g4eLj5OXm5+jp6uvs7e7v8PHy8/T19vf4+fr7/P3+6wjZNQAAHexJREFUGBntwQuAjnXeN/Dvdc00M5gxzkIGrXUIRSU9W1PpqK1IOklIki2rrUjZDnSwhfKqfTDDzNUB2Z6ldJDUKiVKFFqFiNIih5nWzBhzvL/Pu++zz7u7bdz39btO/+u6/58PoB1VduvOPXtfMXDEXQ9OnvH8omWrNn6973BNyZ6vPn1/yUuFT08aP3rYNZfm9vh5iwxo0dLwjEET560pZoJi372bP7ZflwxoYZd9+sAHX/joIEVi3/5p1pi+ndOhhY/R9br7n1u1ny6o3fnOzLsuPwFaWKScPubVYrptx7PDToSmurSzxr9VQq/8Zf7IztBUVaf3xHfL6bV9C0efYkJTTFaf362qpF+KXxvTMwWaIozcp9bW0G8lb407EVrwuk/ZxaB8dEdzaEFq/+BmBqrmnWHZ0ILR4s5PqICKl6+uA81vDW9ZXktVlDzfJxWaf+pe92ol1bJ/xlkGND8cd9m8UqromydOgea1nCkHqa4//6ouNA+dvbCGaiue0gaaN9KGfMoQqFl4DjT3NZ/4PcPis5vSobnqxIJKhsm+8VnQXNPh+WqGTdED9aG5ovP8GobRDxMbQHOs20u1DKtDjzaC5sjJL8cYZiWPN4Im1rKwlmFXfFcaNJG6E8oYBduugmafOWw3o2JlT2g2nb+eERKbnwPNhg6vM2KO/C4TWoLSJ1Ywer7tCy0h521hNC1qBS2uJs8xskpGm9CO7aaDjLK1PaAdQ8f3GHE10zKhHYV5bwWj79ve0H5Su5VMCrFpGdD+3fBSJosvekD7kWavMYlU3Z8C7Z9duZ/JZXV7aP9flsWkUzYS2t91/5rJ6JVsaH9z8xEmp20nQ0NGAZNW+RAkvXafMpnlpSO5XVbM5PZJGyQx89EYk93BPkhaDd6mxtoHkaTabab2Ny+kIRn12kftf7zXEMlnQDm1/7W5HZLN2Bi1f9h/JpJKykxq/6J8AJJI5pvUfiQ2Fkmj+Xpq/26GgeTQeisDdHj3lnXvvf7i7KceHvurQf3OP+viq4aOuu+xpwv/682V67d/X80AzU1FMmj/DQNRtuGPj9+c2wLHlNr+0tHPLN1WzUC8nIbo67qXPivbuPDx4ee0gA2pP7/0jt8v3V5Nny2ri6g7vYh+2jV3REeIpf3ivqUl9NPK+oi2c0rom22FQ9rCsZTT7l5cRN+sa4wo61NOX8Q2zby+JVxjdBv10l76Y1MLRFf/Svrg+xn9m8B9HW55pYI+2N4GUXVxFT3312cvSoFXsoe9U0PPbW+BaOpVRo+V/7F/OrzVfPRqem1TY0TRSUX0VPXSwVnwQ7vxn9Nb6+ojenL+Qg/FPritCfzTddIOemllXURN0630zp7ftobfziyopHeWpSFastbRM1tvSUcQWkw+RM+8nIooSV9Or3zc30RQ6o/bQ6/MNRAdKYvokSXnIlDpt2yhR2YgOubQE9UvdEPgzP4f0Rv3ICoepxfKpudADecsidEDsQGIhjH0QPGDjaCOrnNr6b7yMxEFQ2N0XW1eY6jltNV03/52CL++1XTdqlOhHGPoXrpuc0OEXbfDdNuewQZUVP/JKrrtvTSEW/ZXdFnV1CyoqtPbdNsLCDXjFbpsWUeorP9OuuxBhNm9dNeOK6G4jAnldFVtH4RX7xq6qfyhDKivzSK66mAbhFWrfXTT0hyEw4Xf0k2fpCOcjltNF1XdYyAsGr5CN+UhnJ6hi3acgTD5dQVdNARhNJAueikb4dJ9C91TfjLCp0sZXVN+KzyQ2f38vjfcOmbC1FnzFv/p402fffDmf1nP/G786GHXXJp7Ygocqvc83bMtG2GTtYWu2dQFrkrr1Hfs7BV7eCyVXy6eMjy3ORwYXErXvIKwWUjXzKkDt6Tnjnp66fYaJuzQ2vkTBnaGTIfP6JqRCJexdMuh6+COOuc/vOIIRfYuGNEeAunP0C1l7REm51TTJZ+cCBdkXvK7DyvpyHcvDGsD2/oV0SWrUxAeWbvokunHwamMy6asqaYrdhTe2Ar2tP6YLrkf4TGT7ojdBYdSLnr2EF31+bhWsKPuErqjqgfCIjdGV1TdAGd6Pf093Vf7p6GZSFzqc3THFxkIh4ytdEXpxXCi86Pb6ZXD8y5JQaKMyXTHNITDE3TF/p6QO2HsZ/TW3qe6I1F3xeiGWG+Ewak1dMPODhDLfSNGH3x+T3MkZlAV3fBtJtSXuoFu2NgCQsaVH9EvZQ/VQ0IuLqMbpkF9v6UbVmRDJm34Fvppz3ATieh5gC6o6QHVdaqgCxalQyR73B76bXE9JKLDTrpgrQm1mavogjwTEi0nH2IAPjsBiWixkS64A2obTRdMhMQJBZUMxp5uSET2+3SupBVU1qaUzo2HQMYDhxmYb5ogERnv07mXobK36NzTELhqJ4P0bioSkb2RzvWFuobSuQUGbOu6nAGbjoS02EnHvs2EqpoU0bF30mBXw9/XMGix7khIhwN07HdQ1XQ6ti4TNqXcdpAKWILE9CyjU0dyoKa2lXRqWzPYdO5GquEXSMzFVXRqPtT0Ap3a2w721M2nKt5CggbF6FCsJ1TUrZYOHeoOe075ksqobogE3UWnVkJFb9Chit6w544KKuQGJGoynboK6smlQ7VXw5amS6iUBUiU8Rwd2pYG5ayiQ7fDlov3Ui0HkbDUJXToLqimHx16FHakTY1RNRlIWN2P6UxxI6gl5Qs6s8yADR3WUT1tkbjWRXTmcahlGJ3Z2ww2DCmjgnrBhn50pqQRVJKxi47UXggbHqOSLoUdz9CZR6GSMXRmEhKXNpdqOhN2pH9GRw41gDqyD9KRValIWPa7VFRb2NKhlI5MhDom0ZHiHCSs9SaqKgP2DKYjP9SHKpofpiP9kbDuu6mqItj1PB15AKp4hI78JxJ2SQmV9TLsqreFThRlQQ3p++jEhnQkang11TUUtnWvoBPjoYahdKKsIxL1CBVW0xj2/ZpO7EuHEj6jE0ORqHyqbAUkXqETN0EFuXRiLhL1JJV2OSQafksH1kMFC+nAniwk6H4q7T3IXEgnzkHwcmrowGAkaBSVFjsdQovowEIEbzIdWGUgMTfGqLS5kGpTTrmaNgha3WLK1fZAYvpW0wslny549I6br7n07O4/a16vYc5JvS7od+Ovxs34064Y7dmYBbEJdGAKgjaSDuQhMb2P0GU7Fz1+c25zHE2dk6++//mPK5mg73Mgl7GTcsV1EbAvKFfUGAnpWUo3bS8ckoNE1Llg0upqxnekF5zoTwd+hWBdSAduR0K6FNE122cPOgF2ZPaZ/EkNj2l3LzjzNuX+jGC9TrkNKUhEu910yXdTe0CiwfAVMR7V6hZwqFMV5U5BkNrHKJeLRNTbRFcUzz7PhFib+7fwJ1VOS4NjT1LuCQTpacrNR0Lm0gWVf+ibBod6PrOfP1bzbFu4oP5ein1jIDgZhyhW2gqJGEnnDk1uATekXla4j/9k+/ROcMdQyp2F4PSn3H1IxKkVdGrPuPpwjXn2EwtX7Sj/6+bl8+7uCNcYqyk2A8FZQLGv0pCABl/ToS3D0xACp9VSan8qglKnlGIDkIjFdObPVxoIh7kU64OgDKDYVhMJuIeOFI1KQVh0jVHqeQTlJYqNQAJyq+lAze8bIUSWUKqkDoJR9zCl9qYjvma76cCfuiJUzqHY1QjGtRS7F/GZyyn3dX+EzUeUehnBWEipQ9mIbyLl8usidPpTqiIbQahXTqkpiK9zFaWKByCEzC2UGoYgXE+pypaIbwWlPmiNULqFUu8gCC9TqhDxDaFQzUMpCKf0PRSqaQ7/ZR2hUKwT4mq4nzLfnIXQGkepO+C/QZRajPjyKbO8AcKr/iEKfQT/vUqp/0BcZ8Yo8vxxCLPJlDoRfqtfQaGViCtlA0UeQbi1qKTQOPjtOkpdjrjupkT1zQi7Agothd9mUmi3iXhOKKVAycUIvTMpVJICn31BoWmIaxEFdp+CCNhBodPhr6aU6ol4fkmB3e0QBZModDf8NYBC2xCPuZn2FXVBJHSl0GL46xkKPYJ4rqV9pWcgIj6nzEEDvtpIoc6Iw9hI2yrOR1SMp1BX+KlRjDIbEE9f2lbdD5HRjkK3w0/9KDQO8XxCu2KDESGrKfMH+GkaZWI5iOMS2vYbRMloyuyBnz6lzIeIZyXtmotIaV5DmfbwT3YtZUYhjnNp16Z6iJZ3KHMz/HMZZaqbIo53aFNpJ0TMMMo8B/9MocxbiKMX7RqIqMmuoMgO+GcNZYYijtdp0wxEzyuUOQF+yaqmTFMcW3fatDYd0XMLZW6AXy6izJeIYwHtKW6LCOpAmTz45U7K5OHYMspoz82IpL0U+RJ+yafMQBzbZbTnAwOR9BJlmsInH1CmFY5tNm2p6oJoGkWZC+GTAxT5GnHsoS2PI6K6UeZ2+KMJZSwcWyZt2VkXEWUUUeT/wB9nU+YmHNvPactliKzFFHkD/hhBmRNxbLm0YxGi626KbIU/plHkO8RxLW0oOwHRdRpFqlLhi6UUmY84rqQNUxFhKSUUaQ9ffEORkYijFxN35HhE2VKKXAo/1I1RpBPiaM3E/R6Rdh9F7oAfelBkH+I5LsZEVbVGpP2CIr+HH26gyGuI63MmqgDRllZNiWXww6MUeRJxPc4E1fwMEbeNEjvgh4UUGYm4zmaC5iHq3qRETRp8sIkiFyCulCImJHYSou5pinSCD0ookoP4HmNC5iLyfk2RK+C9NIocMRFfgx+YgB+aI/IuocgYeK8lRb5AIsYzAbch+tpRJA/e60aRxUhEve8Y1ycmoi+lkhLL4b3eFJmKhPQ8wjhqTkUy2EyJXfDeNRQZicQMYRxPISm8RolYBjx3G0XOR4Km8ZieNJAUnqJIC3juAYq0RqIm8Ohqf4MkMZIiP4fnplPiiIGEXX+ER3HkaiSL8ynSA56bR4lNsOHMzfxJB3KRNFpTJBeee4sSi2FH6q++57/59s56SB5GOSUuhefWUiIP9mQ+9DX/xZ8HpyKpfEuJa+C5nZR4ErZ1vX/NEf7N4c8XTb7UQJL5ghLD4LlSSkyASIPO55/bykAyWkOJ0fBaOkXGQLNnOSXGw2stKXIrNHtepcQkeK0rRW6AZs98SjwNr51MkSug2ZNPiUJ4rStFekOz5ylKvASvnUSR06HZ8zAllsBrnSjSCZo991DifXitA0VaQbPnNkp8Cq+1p0g2NHsGU+IreO1EiqRAs6c/JfbAa20pUQ7NposoUQKv5VDiADSbzqJEDbx2AiVKoNl0PiUOw2stKVFrQLOnLyX2wWstKFIPmj03UOJreK05RY6HZs8ISmyE15pSpD00e+6ixCp4rTFFekCz50FKLIPXGlIkF5o9kymxCF7LoMgvodkzgxLPw3MllLgWmj3PU2IGPLedEsOh2bOIEpPhudWU+A00e5ZR4kF4bjElHoBmzypK3AXPzabEE9Ds2UiJEfDcY5SYAc2erykxEJ67gxIvQrOnmBJXwHPXU2INNFsaUqQ3PNebEkXQbOlFkZ7wXBeKNIJmx40U6QzPNaVIL2h2PEyR1vCcWUOJQdDseJEi2fDePkpMhGbHWkoUwwd/psR8aHb8lRIfwwfLKbEGmg3NKDIXPniREsXQbDiLIg/BBw9TpDG0xN1EkYHwwTUU6QUtcZMochp80JkiN0JL3B8pUh8+SK2kxMPQEreBEvvgi42UmA8tcWWU+BC+mE+JzdAS1pEiFnxxH0WaQUvUCIqMhy8up8gAaImaS5Gr4Yu2FHkGWqJ2UeQU+MIopcQGaAlqS5FYXfjjY0rUNoCWmCEU+Qt8UkCRK6AlppAi78End1JkKrTEbKNIPnxyIUXWQEtIS8qMhU+aU6Q6E1oirqdMP/jlAEUuhpaImZRpD7+8TZHHoCViE0X2wjfjKbISWgKaxCjyX/BNL4pUZECLrz9lfg3fpJZQ5CJo8c2gzMnwzxsUKYAWV8r3FCk24J+7KfJDGrR4LqLMa/BRd8r0gxbPs5QZCx8ZBynyB2hxpP+VMmfATwspcjgT2rH1p0xZKvw0ijKDoB3bHynzNnzVmTJvQDumrHLKPAB/7aFIVWNoxzKYQufAX/MpMxLasSylTEUG/DWcMiugHUOTasqshM/aUaa2FbSju41Ck+C3byhzN7Sj+4BCl8BvBZRZB+2oWscoU5MFv11CoZOgHc1vKbQWvkvdTxkL2lGk76HQk/DfDMpUtoT2026hVC78l0uhqdB+krmVQrsM+M/YRZmSbGg/pT+lpiAIUyl0H7Sf8jGluiMIp1Jobzq0f3cupTYjGFspNALav1tCqQcRjIkU2mpC+7FuFGuPYHSi1FXQfuwFSn2CoKyn0BpoP5JTTak7EZRxlDoP2r+aTqnaFghKToxCb0L7F43KKLUcwfmQUidD+2cPUuwWBGcUpV6D9k8aF1OqsiGC06yKUn2g/UMexV5FkOZRamsatP91ai3FrkOQTqPYOGh/Z6yiWGldBOp9SpW2hPY/BlNuHoJ1JcXmQft/svZQ7jIEy9xOsbOh/c1Uyh08DgEbTbH1JjSgYxXlpiBomT9Q7DZowDLK1eQgcFMoVtQI2pV0YCGC17qaYrOQ9DJ20IGzoYAFFKvtjmT3EB34FCo4g3IfIsnllNOBIVDCh5S7DUnNWEoHvk+DEgZQ7kg3JLN76MREqCFlB+W+rIvkdUYVHahsDkXcSQcKkbSyd9CJAqgi6wAdGIhk9RKdqD4RyriDDpT8DMnpVjryPNRx3Nd0YF0aklGXcjpR0wEKuY5OTEMSqrOJjsyHSoy1dOJyJJ85dKS2M5TSm04caIVkcx2deQmKWUInVqQguZx4iI7EukEx3WrpxAQkleM+oTMvQznP0omaC5BMptOZ2pOhnBOO0IlD3ZE87qJDhVDQE3RkbzskixtidKasJRTUoIiObGuG5HBxFR2aACXdRWfWZSIZ9CylQ7vrQknpO+nMO2mIvg776dQwKGoQHVpgIOpa7KRT600oythAh6Yj4rI30rHzoaxBdOo+RFr6Cjr2OtTVsIZODUOEmYvoWEUHKOwjOlV9OaIrj85NhMpepWPlv0BUTaRzW9KhsvfpXPEvEE3j6YLzoLTP6YLyyxFBxtN0wXNQWvpf6YbqYYictAV0wcEmUNpguuQ+REzmO3TDTVBa/W10y3QDUdJsHd3wHpRmvEz3LEhDdLTbRjdUdITKjJl00zuZiIrue+mKe6EyYybdta4ZoqH3IbpipQmFGbPotm3tEAVXV9AVpe2gMGMW3be3O8Lv9lq6YzgUZsyiFw5dgJAzHqVLXoPCjFn0Rs2EFIRZs2V0yf5mUJcxi55Z0QrhdeFeuuVKqMuYRQ8duBwhlTqplm6xoC5jFr01LQ1hlLOKrvk6C8oyZtFr636G8OlfTNcc6Q5lGbPovZKBCJn0/6SLboayjFn0RWFdhEnHDXRRAZRlzKJPvuyG8BhaRhd9mgFVGbPomyO3ISSy5tJNxe2gKmMW/fRhd4SAMXgP3RS7DKoyZtFftbMaQXU9VtFdj0JVRh59V3SbCZU1zqulu942oSgjj0FYfzaUlXJ7EV22uQEUZeQxIPNaQk25G+i2fe2gKCOPgSkdlwb1tJpP15X3gqKMPAZpax8oJu2+UrouNgCKMvIYsNdOhkLMAV/RA2OhKCOPwXvzPCgifcRWemEmFGXkUQlrrjIRvOx799ITb6ZATUYeVbF1RDqC1XLKIXpjfSbUZORRIXvvy0ZwOhVW0iNbm0NNRh7VUjK1JYLxH4tj9Mo3raEmI4/KqbROgu/My1fSO3vbQ01GHpW07u5W8FPPabvpoaKuUJORR1XVrhjZGP7o/Mg2eqrkdKjJyKPKqt4YlAmv5YzbQI+VnwM1GflU3eE/9EuDd5qO+jBGr1X2gZqMfIbBDwUXZcALTYe+VU3vVfWHmox8hkXFyscuzoSbWg3M+5K+KLsYajLyGSrVa6Ze0QBuOPEm62v6pagX1GTkM3xqNzwzoBmc6DRy/nf00V9OgpqMfIbV5vkP39irMWwycy4Y+eRr++ivrTlQk5HPkCteM3/ioF6NEJfR+vyRUxd/cYQBWNcUajLyGRFFa16c8cQDvxl+7S9ze7Q/vp4BICW7VafTe19xw61jJjyZt3jTEQZmeRbUZOQzompLDpRTFYvSoSYjn5r35qRATUY+Ne89DkUZ+dQ8FxsDRRn51DxXPRSKMvKpee5wXyjKyKfmua+6QVHGbGqeeyUbijJmU/Nazb0GFGXMpua1fb2hKmM2Na+tbgVVGbOpee2Z46AqYzY1j5UNhLKM2dQ8tqULlGXMpuaxhVlQljGbmreqx0Jdxmxq3tp1DtRlzKbmqdjMLKjLmE3NU1tzoTBjNjUv1TyRAYUZs6l5acOpUJkxm5qHKn6bCpUZc6h5aFUnKM2Yw8BV7d7wzvoYo6h0tAmlGXMYtD1jsvF/NRn0KSPnrTZQmzGHQXu3Gf7OuG47I6VoKBRnzGHQrBT8w3F3HGBkVE5vAsUZcxg0y8S/qD+pnJFQ+0JbqM6Yw6BZJn6sVUENw++NblCeMYdBs0z8hC6vM+RW5UJ9xhwGzTLx0879hCH2RT+EgDGHQbNMHI1x7XaG1K5hKQgBYw6DZpk4huNGH2AIHRyTgTAw5jBololjy7pzB0Pm8KRshIIxh0GzTMSVMuBDhsi+R5ojHIw5DJplIiFnLKhmOHw2NB0hYcxh0CwTiWo95Qcqr2ZhLkLDKGDQLBM2ZI7eTqUVT85BeBgFDJplwh7zyveprC9G1kWIGAUMmmXCvtPmVVFBsdcvRKgYBQyaZUKk2agPY1TLoafbI1yMAgbNMiGWM249lVG6oH8GQsYoYNAsE450mriVCjj80oA6CB2jgEGzTDh26tRdDFT5wmvrIoSMAgbNMuEGI3fGfgbkyMvX10MoGQUMmmXCLamXFHxD31W8OigLIWUUMGiWCVe1Gz5/D/3zxczr6iO0jAIGzTLhvs6jFh6k52IbnxnQFGFmFDBolglvGN3vfqOEnqn9dFq/Rgg5o4BBs0x4KLXX+LcP0HXVa6Zclo3wMwoYNMuE55pfeGfBx6V0x4EP8u+8KAuRYBQwaJYJnxhtL79v/sZKisW+WTptxNlNEB1GIYNmmfBXaudrHn5x+ab9tbShZNPCR2/oURcRYxQyaJaJgKQcf/JFg+6e/Oybn35XyZ9QunPtW/OmP3DbNb27tUxDJBmFDJplQgUNjm/ZqnVO23Y/a//zjp1O6tLt5K4t0xF5RiGDZpnQgmIUMmiWCS0oRiGDZpnQgmIUMmiWCS0oRiGDZpnQgmIUMmiWCS0oRiGDZpnQgmIUMmiWCS0oRiGDZpnQgmIUMmiWCS0oRiGDZpnQgmIUMmiWCS0wUxg0y4QWmJEMmmVCC0yfGgbMMqEF5pQSBswyoQWm1XcMmGVCC0zmegbMMqEFJmUJA2aZ0IIzkwGzTGjBGcKAWSa04DQ+wGBZJrQAPctgWSa0AJ3HYFkmtAClb2GgLBNakCYwUJYJLUgdKxgky4QWqPcYJMuEFqihDJJlQgtUyi4GyDKhBesqBsgyoQXsXQbHMqEFrAuDY5nQgjaLgbFMaEHLLmNQLBNa4O5kUCwTWuCMrxgQy4QWvD4MiGVCU8ALDIZlQlPBdgbCMqGpoCkDYZnQlNCXQbBMaGp4nAGwTGiKWEH/WSY0RaSU0XeWCU0VPeg7y4SmjNvpN8uEpo459JllQlPIi/SXZUJTyUL6yjKhKeU1+skyoanlLfrIMqEp5l36xzKhqWYVfWOZ0JSzln6xTGjq2UifWCY0BW2iPywTmoqW0ReWCU1Js+gHy4SmpnvoA8uEpqir6T3LhKaq9vScZUJT1y56zDKhKew5essyoalsCD1lmdCU1qKWHrJMaIpbSu9YJjTVXU3PWCY05aUdoEcsE1oIPEVvWCa0MDj+ML1gmdDCYRI9YJnQQiK7iK6zTGihMZZus0xo4ZHyMd1lmdDCpH0Z3WSZ0MLlVrrIMqGFzSK6ZooBLXTqrKY7akZCC6PGW+iGkj7QwqnNHjr33SnQwqrrfjq1vhW08Oq2n84syYQWZt3204mZKdDCreseih0YAi302myh0LONoUVA49WU2HIetGios4i2VUxIhxYZt5bRnvc6QouS9h/Thl1DoUVMytgiJujdq1KgRU/2pMOMr2xWF2gRdfxTB3hsX92ZDS3C0q5eWsuj2f5CHwNa1LUY8twu/ljZisf7NoWWLNpffc+sZZs2rl317luvLXxxzu09UqBFxn8D8jI/iZTXmXkAAAAASUVORK5CYII=;" vertex="1" parent="1">
            <mxGeometry x="516" y="857" width="25" height="25" as="geometry" />
          </mxCell>
        </UserObject>
        <UserObject label="" link="data:page/id,ZDgUGs8557kluPzGpwOa" id="PXmoGq0hGGlsqGOkekpb-4">
          <mxCell style="shape=image;verticalLabelPosition=bottom;labelBackgroundColor=default;verticalAlign=top;aspect=fixed;imageAspect=0;image=data:image/png,iVBORw0KGgoAAAANSUhEUgAAAgAAAAIACAMAAADDpiTIAAAAA3NCSVQICAjb4U/gAAAACXBIWXMAABbUAAAW1AGaOz6wAAAAGXRFWHRTb2Z0d2FyZQB3d3cuaW5rc2NhcGUub3Jnm+48GgAAAwBQTFRF////AAAAAAAAAAAAAAAAAAAAAAAAAAAAAAAAAAAAAAAAAAAAAAAAAAAAAAAAAAAAAAAAAAAAAAAAAAAAAAAAAAAAAAAAAAAAAAAAAAAAAAAAAAAAAAAAAAAAAAAAAAAAAAAAAAAAAAAAAAAAAAAAAAAAAAAAAAAAAAAAAAAAAAAAAAAAAAAAAAAAAAAAAAAAAAAAAAAAAAAAAAAAAAAAAAAAAAAAAAAAAAAAAAAAAAAAAAAAAAAAAAAAAAAAAAAAAAAAAAAAAAAAAAAAAAAAAAAAAAAAAAAAAAAAAAAAAAAAAAAAAAAAAAAAAAAAAAAAAAAAAAAAAAAAAAAAAAAAAAAAAAAAAAAAAAAAAAAAAAAAAAAAAAAAAAAAAAAAAAAAAAAAAAAAAAAAAAAAAAAAAAAAAAAAAAAAAAAAAAAAAAAAAAAAAAAAAAAAAAAAAAAAAAAAAAAAAAAAAAAAAAAAAAAAAAAAAAAAAAAAAAAAAAAAAAAAAAAAAAAAAAAAAAAAAAAAAAAAAAAAAAAAAAAAAAAAAAAAAAAAAAAAAAAAAAAAAAAAAAAAAAAAAAAAAAAAAAAAAAAAAAAAAAAAAAAAAAAAAAAAAAAAAAAAAAAAAAAAAAAAAAAAAAAAAAAAAAAAAAAAAAAAAAAAAAAAAAAAAAAAAAAAAAAAAAAAAAAAAAAAAAAAAAAAAAAAAAAAAAAAAAAAAAAAAAAAAAAAAAAAAAAAAAAAAAAAAAAAAAAAAAAAAAAAAAAAAAAAAAAAAAAAAAAAAAAAAAAAAAAAAAAAAAAAAAAAAAAAAAAAAAAAAAAAAAAAAAAAAAAAAAAAAAAAAAAAAAAAAAAAAAAAAAAAAAAAAAAAAAAAAAAAAAAAAAAAAAAAAAAAAAAAAAAAAAAAAAAAAAAAAAAAAAAAAAAAAAAAAAAAAAAAAAAAAAAAAAAAAAAAAAAAAAAAAAAAAAAAAAAAAAAAAAAAAAAAAAAAAAAAAAAAAAAAAAAAAAAAAAAAAAAAAAAAAAAAAAAAAAAACyO34QAAAP90Uk5TAAECAwQFBgcICQoLDA0ODxAREhMUFRYXGBkaGxwdHh8gISIjJCUmJygpKissLS4vMDEyMzQ1Njc4OTo7PD0+P0BBQkNERUZHSElKS0xNTk9QUVJTVFVWV1hZWltcXV5fYGFiY2RlZmdoaWprbG1ub3BxcnN0dXZ3eHl6e3x9fn+AgYKDhIWGh4iJiouMjY6PkJGSk5SVlpeYmZqbnJ2en6ChoqOkpaanqKmqq6ytrq+wsbKztLW2t7i5uru8vb6/wMHCw8TFxsfIycrLzM3Oz9DR0tPU1dbX2Nna29zd3t/g4eLj5OXm5+jp6uvs7e7v8PHy8/T19vf4+fr7/P3+6wjZNQAAHexJREFUGBntwQuAjnXeN/Dvdc00M5gxzkIGrXUIRSU9W1PpqK1IOklIki2rrUjZDnSwhfKqfTDDzNUB2Z6ldJDUKiVKFFqFiNIih5nWzBhzvL/Pu++zz7u7bdz39btO/+u6/58PoB1VduvOPXtfMXDEXQ9OnvH8omWrNn6973BNyZ6vPn1/yUuFT08aP3rYNZfm9vh5iwxo0dLwjEET560pZoJi372bP7ZflwxoYZd9+sAHX/joIEVi3/5p1pi+ndOhhY/R9br7n1u1ny6o3fnOzLsuPwFaWKScPubVYrptx7PDToSmurSzxr9VQq/8Zf7IztBUVaf3xHfL6bV9C0efYkJTTFaf362qpF+KXxvTMwWaIozcp9bW0G8lb407EVrwuk/ZxaB8dEdzaEFq/+BmBqrmnWHZ0ILR4s5PqICKl6+uA81vDW9ZXktVlDzfJxWaf+pe92ol1bJ/xlkGND8cd9m8UqromydOgea1nCkHqa4//6ouNA+dvbCGaiue0gaaN9KGfMoQqFl4DjT3NZ/4PcPis5vSobnqxIJKhsm+8VnQXNPh+WqGTdED9aG5ovP8GobRDxMbQHOs20u1DKtDjzaC5sjJL8cYZiWPN4Im1rKwlmFXfFcaNJG6E8oYBduugmafOWw3o2JlT2g2nb+eERKbnwPNhg6vM2KO/C4TWoLSJ1Ywer7tCy0h521hNC1qBS2uJs8xskpGm9CO7aaDjLK1PaAdQ8f3GHE10zKhHYV5bwWj79ve0H5Su5VMCrFpGdD+3fBSJosvekD7kWavMYlU3Z8C7Z9duZ/JZXV7aP9flsWkUzYS2t91/5rJ6JVsaH9z8xEmp20nQ0NGAZNW+RAkvXafMpnlpSO5XVbM5PZJGyQx89EYk93BPkhaDd6mxtoHkaTabab2Ny+kIRn12kftf7zXEMlnQDm1/7W5HZLN2Bi1f9h/JpJKykxq/6J8AJJI5pvUfiQ2Fkmj+Xpq/26GgeTQeisDdHj3lnXvvf7i7KceHvurQf3OP+viq4aOuu+xpwv/682V67d/X80AzU1FMmj/DQNRtuGPj9+c2wLHlNr+0tHPLN1WzUC8nIbo67qXPivbuPDx4ee0gA2pP7/0jt8v3V5Nny2ri6g7vYh+2jV3REeIpf3ivqUl9NPK+oi2c0rom22FQ9rCsZTT7l5cRN+sa4wo61NOX8Q2zby+JVxjdBv10l76Y1MLRFf/Svrg+xn9m8B9HW55pYI+2N4GUXVxFT3312cvSoFXsoe9U0PPbW+BaOpVRo+V/7F/OrzVfPRqem1TY0TRSUX0VPXSwVnwQ7vxn9Nb6+ojenL+Qg/FPritCfzTddIOemllXURN0630zp7ftobfziyopHeWpSFastbRM1tvSUcQWkw+RM+8nIooSV9Or3zc30RQ6o/bQ6/MNRAdKYvokSXnIlDpt2yhR2YgOubQE9UvdEPgzP4f0Rv3ICoepxfKpudADecsidEDsQGIhjH0QPGDjaCOrnNr6b7yMxEFQ2N0XW1eY6jltNV03/52CL++1XTdqlOhHGPoXrpuc0OEXbfDdNuewQZUVP/JKrrtvTSEW/ZXdFnV1CyoqtPbdNsLCDXjFbpsWUeorP9OuuxBhNm9dNeOK6G4jAnldFVtH4RX7xq6qfyhDKivzSK66mAbhFWrfXTT0hyEw4Xf0k2fpCOcjltNF1XdYyAsGr5CN+UhnJ6hi3acgTD5dQVdNARhNJAueikb4dJ9C91TfjLCp0sZXVN+KzyQ2f38vjfcOmbC1FnzFv/p402fffDmf1nP/G786GHXXJp7Ygocqvc83bMtG2GTtYWu2dQFrkrr1Hfs7BV7eCyVXy6eMjy3ORwYXErXvIKwWUjXzKkDt6Tnjnp66fYaJuzQ2vkTBnaGTIfP6JqRCJexdMuh6+COOuc/vOIIRfYuGNEeAunP0C1l7REm51TTJZ+cCBdkXvK7DyvpyHcvDGsD2/oV0SWrUxAeWbvokunHwamMy6asqaYrdhTe2Ar2tP6YLrkf4TGT7ojdBYdSLnr2EF31+bhWsKPuErqjqgfCIjdGV1TdAGd6Pf093Vf7p6GZSFzqc3THFxkIh4ytdEXpxXCi86Pb6ZXD8y5JQaKMyXTHNITDE3TF/p6QO2HsZ/TW3qe6I1F3xeiGWG+Ewak1dMPODhDLfSNGH3x+T3MkZlAV3fBtJtSXuoFu2NgCQsaVH9EvZQ/VQ0IuLqMbpkF9v6UbVmRDJm34Fvppz3ATieh5gC6o6QHVdaqgCxalQyR73B76bXE9JKLDTrpgrQm1mavogjwTEi0nH2IAPjsBiWixkS64A2obTRdMhMQJBZUMxp5uSET2+3SupBVU1qaUzo2HQMYDhxmYb5ogERnv07mXobK36NzTELhqJ4P0bioSkb2RzvWFuobSuQUGbOu6nAGbjoS02EnHvs2EqpoU0bF30mBXw9/XMGix7khIhwN07HdQ1XQ6ti4TNqXcdpAKWILE9CyjU0dyoKa2lXRqWzPYdO5GquEXSMzFVXRqPtT0Ap3a2w721M2nKt5CggbF6FCsJ1TUrZYOHeoOe075ksqobogE3UWnVkJFb9Chit6w544KKuQGJGoynboK6smlQ7VXw5amS6iUBUiU8Rwd2pYG5ayiQ7fDlov3Ui0HkbDUJXToLqimHx16FHakTY1RNRlIWN2P6UxxI6gl5Qs6s8yADR3WUT1tkbjWRXTmcahlGJ3Z2ww2DCmjgnrBhn50pqQRVJKxi47UXggbHqOSLoUdz9CZR6GSMXRmEhKXNpdqOhN2pH9GRw41gDqyD9KRValIWPa7VFRb2NKhlI5MhDom0ZHiHCSs9SaqKgP2DKYjP9SHKpofpiP9kbDuu6mqItj1PB15AKp4hI78JxJ2SQmV9TLsqreFThRlQQ3p++jEhnQkang11TUUtnWvoBPjoYahdKKsIxL1CBVW0xj2/ZpO7EuHEj6jE0ORqHyqbAUkXqETN0EFuXRiLhL1JJV2OSQafksH1kMFC+nAniwk6H4q7T3IXEgnzkHwcmrowGAkaBSVFjsdQovowEIEbzIdWGUgMTfGqLS5kGpTTrmaNgha3WLK1fZAYvpW0wslny549I6br7n07O4/a16vYc5JvS7od+Ovxs34064Y7dmYBbEJdGAKgjaSDuQhMb2P0GU7Fz1+c25zHE2dk6++//mPK5mg73Mgl7GTcsV1EbAvKFfUGAnpWUo3bS8ckoNE1Llg0upqxnekF5zoTwd+hWBdSAduR0K6FNE122cPOgF2ZPaZ/EkNj2l3LzjzNuX+jGC9TrkNKUhEu910yXdTe0CiwfAVMR7V6hZwqFMV5U5BkNrHKJeLRNTbRFcUzz7PhFib+7fwJ1VOS4NjT1LuCQTpacrNR0Lm0gWVf+ibBod6PrOfP1bzbFu4oP5ein1jIDgZhyhW2gqJGEnnDk1uATekXla4j/9k+/ROcMdQyp2F4PSn3H1IxKkVdGrPuPpwjXn2EwtX7Sj/6+bl8+7uCNcYqyk2A8FZQLGv0pCABl/ToS3D0xACp9VSan8qglKnlGIDkIjFdObPVxoIh7kU64OgDKDYVhMJuIeOFI1KQVh0jVHqeQTlJYqNQAJyq+lAze8bIUSWUKqkDoJR9zCl9qYjvma76cCfuiJUzqHY1QjGtRS7F/GZyyn3dX+EzUeUehnBWEipQ9mIbyLl8usidPpTqiIbQahXTqkpiK9zFaWKByCEzC2UGoYgXE+pypaIbwWlPmiNULqFUu8gCC9TqhDxDaFQzUMpCKf0PRSqaQ7/ZR2hUKwT4mq4nzLfnIXQGkepO+C/QZRajPjyKbO8AcKr/iEKfQT/vUqp/0BcZ8Yo8vxxCLPJlDoRfqtfQaGViCtlA0UeQbi1qKTQOPjtOkpdjrjupkT1zQi7Agothd9mUmi3iXhOKKVAycUIvTMpVJICn31BoWmIaxEFdp+CCNhBodPhr6aU6ol4fkmB3e0QBZModDf8NYBC2xCPuZn2FXVBJHSl0GL46xkKPYJ4rqV9pWcgIj6nzEEDvtpIoc6Iw9hI2yrOR1SMp1BX+KlRjDIbEE9f2lbdD5HRjkK3w0/9KDQO8XxCu2KDESGrKfMH+GkaZWI5iOMS2vYbRMloyuyBnz6lzIeIZyXtmotIaV5DmfbwT3YtZUYhjnNp16Z6iJZ3KHMz/HMZZaqbIo53aFNpJ0TMMMo8B/9MocxbiKMX7RqIqMmuoMgO+GcNZYYijtdp0wxEzyuUOQF+yaqmTFMcW3fatDYd0XMLZW6AXy6izJeIYwHtKW6LCOpAmTz45U7K5OHYMspoz82IpL0U+RJ+yafMQBzbZbTnAwOR9BJlmsInH1CmFY5tNm2p6oJoGkWZC+GTAxT5GnHsoS2PI6K6UeZ2+KMJZSwcWyZt2VkXEWUUUeT/wB9nU+YmHNvPactliKzFFHkD/hhBmRNxbLm0YxGi626KbIU/plHkO8RxLW0oOwHRdRpFqlLhi6UUmY84rqQNUxFhKSUUaQ9ffEORkYijFxN35HhE2VKKXAo/1I1RpBPiaM3E/R6Rdh9F7oAfelBkH+I5LsZEVbVGpP2CIr+HH26gyGuI63MmqgDRllZNiWXww6MUeRJxPc4E1fwMEbeNEjvgh4UUGYm4zmaC5iHq3qRETRp8sIkiFyCulCImJHYSou5pinSCD0ookoP4HmNC5iLyfk2RK+C9NIocMRFfgx+YgB+aI/IuocgYeK8lRb5AIsYzAbch+tpRJA/e60aRxUhEve8Y1ycmoi+lkhLL4b3eFJmKhPQ8wjhqTkUy2EyJXfDeNRQZicQMYRxPISm8RolYBjx3G0XOR4Km8ZieNJAUnqJIC3juAYq0RqIm8Ohqf4MkMZIiP4fnplPiiIGEXX+ER3HkaiSL8ynSA56bR4lNsOHMzfxJB3KRNFpTJBeee4sSi2FH6q++57/59s56SB5GOSUuhefWUiIP9mQ+9DX/xZ8HpyKpfEuJa+C5nZR4ErZ1vX/NEf7N4c8XTb7UQJL5ghLD4LlSSkyASIPO55/bykAyWkOJ0fBaOkXGQLNnOSXGw2stKXIrNHtepcQkeK0rRW6AZs98SjwNr51MkSug2ZNPiUJ4rStFekOz5ylKvASvnUSR06HZ8zAllsBrnSjSCZo991DifXitA0VaQbPnNkp8Cq+1p0g2NHsGU+IreO1EiqRAs6c/JfbAa20pUQ7NposoUQKv5VDiADSbzqJEDbx2AiVKoNl0PiUOw2stKVFrQLOnLyX2wWstKFIPmj03UOJreK05RY6HZs8ISmyE15pSpD00e+6ixCp4rTFFekCz50FKLIPXGlIkF5o9kymxCF7LoMgvodkzgxLPw3MllLgWmj3PU2IGPLedEsOh2bOIEpPhudWU+A00e5ZR4kF4bjElHoBmzypK3AXPzabEE9Ds2UiJEfDcY5SYAc2erykxEJ67gxIvQrOnmBJXwHPXU2INNFsaUqQ3PNebEkXQbOlFkZ7wXBeKNIJmx40U6QzPNaVIL2h2PEyR1vCcWUOJQdDseJEi2fDePkpMhGbHWkoUwwd/psR8aHb8lRIfwwfLKbEGmg3NKDIXPniREsXQbDiLIg/BBw9TpDG0xN1EkYHwwTUU6QUtcZMochp80JkiN0JL3B8pUh8+SK2kxMPQEreBEvvgi42UmA8tcWWU+BC+mE+JzdAS1pEiFnxxH0WaQUvUCIqMhy8up8gAaImaS5Gr4Yu2FHkGWqJ2UeQU+MIopcQGaAlqS5FYXfjjY0rUNoCWmCEU+Qt8UkCRK6AlppAi78End1JkKrTEbKNIPnxyIUXWQEtIS8qMhU+aU6Q6E1oirqdMP/jlAEUuhpaImZRpD7+8TZHHoCViE0X2wjfjKbISWgKaxCjyX/BNL4pUZECLrz9lfg3fpJZQ5CJo8c2gzMnwzxsUKYAWV8r3FCk24J+7KfJDGrR4LqLMa/BRd8r0gxbPs5QZCx8ZBynyB2hxpP+VMmfATwspcjgT2rH1p0xZKvw0ijKDoB3bHynzNnzVmTJvQDumrHLKPAB/7aFIVWNoxzKYQufAX/MpMxLasSylTEUG/DWcMiugHUOTasqshM/aUaa2FbSju41Ck+C3byhzN7Sj+4BCl8BvBZRZB+2oWscoU5MFv11CoZOgHc1vKbQWvkvdTxkL2lGk76HQk/DfDMpUtoT2026hVC78l0uhqdB+krmVQrsM+M/YRZmSbGg/pT+lpiAIUyl0H7Sf8jGluiMIp1Jobzq0f3cupTYjGFspNALav1tCqQcRjIkU2mpC+7FuFGuPYHSi1FXQfuwFSn2CoKyn0BpoP5JTTak7EZRxlDoP2r+aTqnaFghKToxCb0L7F43KKLUcwfmQUidD+2cPUuwWBGcUpV6D9k8aF1OqsiGC06yKUn2g/UMexV5FkOZRamsatP91ai3FrkOQTqPYOGh/Z6yiWGldBOp9SpW2hPY/BlNuHoJ1JcXmQft/svZQ7jIEy9xOsbOh/c1Uyh08DgEbTbH1JjSgYxXlpiBomT9Q7DZowDLK1eQgcFMoVtQI2pV0YCGC17qaYrOQ9DJ20IGzoYAFFKvtjmT3EB34FCo4g3IfIsnllNOBIVDCh5S7DUnNWEoHvk+DEgZQ7kg3JLN76MREqCFlB+W+rIvkdUYVHahsDkXcSQcKkbSyd9CJAqgi6wAdGIhk9RKdqD4RyriDDpT8DMnpVjryPNRx3Nd0YF0aklGXcjpR0wEKuY5OTEMSqrOJjsyHSoy1dOJyJJ85dKS2M5TSm04caIVkcx2deQmKWUInVqQguZx4iI7EukEx3WrpxAQkleM+oTMvQznP0omaC5BMptOZ2pOhnBOO0IlD3ZE87qJDhVDQE3RkbzskixtidKasJRTUoIiObGuG5HBxFR2aACXdRWfWZSIZ9CylQ7vrQknpO+nMO2mIvg776dQwKGoQHVpgIOpa7KRT600oythAh6Yj4rI30rHzoaxBdOo+RFr6Cjr2OtTVsIZODUOEmYvoWEUHKOwjOlV9OaIrj85NhMpepWPlv0BUTaRzW9KhsvfpXPEvEE3j6YLzoLTP6YLyyxFBxtN0wXNQWvpf6YbqYYictAV0wcEmUNpguuQ+REzmO3TDTVBa/W10y3QDUdJsHd3wHpRmvEz3LEhDdLTbRjdUdITKjJl00zuZiIrue+mKe6EyYybdta4ZoqH3IbpipQmFGbPotm3tEAVXV9AVpe2gMGMW3be3O8Lv9lq6YzgUZsyiFw5dgJAzHqVLXoPCjFn0Rs2EFIRZs2V0yf5mUJcxi55Z0QrhdeFeuuVKqMuYRQ8duBwhlTqplm6xoC5jFr01LQ1hlLOKrvk6C8oyZtFr636G8OlfTNcc6Q5lGbPovZKBCJn0/6SLboayjFn0RWFdhEnHDXRRAZRlzKJPvuyG8BhaRhd9mgFVGbPomyO3ISSy5tJNxe2gKmMW/fRhd4SAMXgP3RS7DKoyZtFftbMaQXU9VtFdj0JVRh59V3SbCZU1zqulu942oSgjj0FYfzaUlXJ7EV22uQEUZeQxIPNaQk25G+i2fe2gKCOPgSkdlwb1tJpP15X3gqKMPAZpax8oJu2+UrouNgCKMvIYsNdOhkLMAV/RA2OhKCOPwXvzPCgifcRWemEmFGXkUQlrrjIRvOx799ITb6ZATUYeVbF1RDqC1XLKIXpjfSbUZORRIXvvy0ZwOhVW0iNbm0NNRh7VUjK1JYLxH4tj9Mo3raEmI4/KqbROgu/My1fSO3vbQ01GHpW07u5W8FPPabvpoaKuUJORR1XVrhjZGP7o/Mg2eqrkdKjJyKPKqt4YlAmv5YzbQI+VnwM1GflU3eE/9EuDd5qO+jBGr1X2gZqMfIbBDwUXZcALTYe+VU3vVfWHmox8hkXFyscuzoSbWg3M+5K+KLsYajLyGSrVa6Ze0QBuOPEm62v6pagX1GTkM3xqNzwzoBmc6DRy/nf00V9OgpqMfIbV5vkP39irMWwycy4Y+eRr++ivrTlQk5HPkCteM3/ioF6NEJfR+vyRUxd/cYQBWNcUajLyGRFFa16c8cQDvxl+7S9ze7Q/vp4BICW7VafTe19xw61jJjyZt3jTEQZmeRbUZOQzompLDpRTFYvSoSYjn5r35qRATUY+Ne89DkUZ+dQ8FxsDRRn51DxXPRSKMvKpee5wXyjKyKfmua+6QVHGbGqeeyUbijJmU/Nazb0GFGXMpua1fb2hKmM2Na+tbgVVGbOpee2Z46AqYzY1j5UNhLKM2dQ8tqULlGXMpuaxhVlQljGbmreqx0Jdxmxq3tp1DtRlzKbmqdjMLKjLmE3NU1tzoTBjNjUv1TyRAYUZs6l5acOpUJkxm5qHKn6bCpUZc6h5aFUnKM2Yw8BV7d7wzvoYo6h0tAmlGXMYtD1jsvF/NRn0KSPnrTZQmzGHQXu3Gf7OuG47I6VoKBRnzGHQrBT8w3F3HGBkVE5vAsUZcxg0y8S/qD+pnJFQ+0JbqM6Yw6BZJn6sVUENw++NblCeMYdBs0z8hC6vM+RW5UJ9xhwGzTLx0879hCH2RT+EgDGHQbNMHI1x7XaG1K5hKQgBYw6DZpk4huNGH2AIHRyTgTAw5jBololjy7pzB0Pm8KRshIIxh0GzTMSVMuBDhsi+R5ojHIw5DJplIiFnLKhmOHw2NB0hYcxh0CwTiWo95Qcqr2ZhLkLDKGDQLBM2ZI7eTqUVT85BeBgFDJplwh7zyveprC9G1kWIGAUMmmXCvtPmVVFBsdcvRKgYBQyaZUKk2agPY1TLoafbI1yMAgbNMiGWM249lVG6oH8GQsYoYNAsE450mriVCjj80oA6CB2jgEGzTDh26tRdDFT5wmvrIoSMAgbNMuEGI3fGfgbkyMvX10MoGQUMmmXCLamXFHxD31W8OigLIWUUMGiWCVe1Gz5/D/3zxczr6iO0jAIGzTLhvs6jFh6k52IbnxnQFGFmFDBolglvGN3vfqOEnqn9dFq/Rgg5o4BBs0x4KLXX+LcP0HXVa6Zclo3wMwoYNMuE55pfeGfBx6V0x4EP8u+8KAuRYBQwaJYJnxhtL79v/sZKisW+WTptxNlNEB1GIYNmmfBXaudrHn5x+ab9tbShZNPCR2/oURcRYxQyaJaJgKQcf/JFg+6e/Oybn35XyZ9QunPtW/OmP3DbNb27tUxDJBmFDJplQgUNjm/ZqnVO23Y/a//zjp1O6tLt5K4t0xF5RiGDZpnQgmIUMmiWCS0oRiGDZpnQgmIUMmiWCS0oRiGDZpnQgmIUMmiWCS0oRiGDZpnQgmIUMmiWCS0oRiGDZpnQgmIUMmiWCS0oRiGDZpnQgmIUMmiWCS0wUxg0y4QWmJEMmmVCC0yfGgbMMqEF5pQSBswyoQWm1XcMmGVCC0zmegbMMqEFJmUJA2aZ0IIzkwGzTGjBGcKAWSa04DQ+wGBZJrQAPctgWSa0AJ3HYFkmtAClb2GgLBNakCYwUJYJLUgdKxgky4QWqPcYJMuEFqihDJJlQgtUyi4GyDKhBesqBsgyoQXsXQbHMqEFrAuDY5nQgjaLgbFMaEHLLmNQLBNa4O5kUCwTWuCMrxgQy4QWvD4MiGVCU8ALDIZlQlPBdgbCMqGpoCkDYZnQlNCXQbBMaGp4nAGwTGiKWEH/WSY0RaSU0XeWCU0VPeg7y4SmjNvpN8uEpo459JllQlPIi/SXZUJTyUL6yjKhKeU1+skyoanlLfrIMqEp5l36xzKhqWYVfWOZ0JSzln6xTGjq2UifWCY0BW2iPywTmoqW0ReWCU1Js+gHy4SmpnvoA8uEpqir6T3LhKaq9vScZUJT1y56zDKhKew5essyoalsCD1lmdCU1qKWHrJMaIpbSu9YJjTVXU3PWCY05aUdoEcsE1oIPEVvWCa0MDj+ML1gmdDCYRI9YJnQQiK7iK6zTGihMZZus0xo4ZHyMd1lmdDCpH0Z3WSZ0MLlVrrIMqGFzSK6ZooBLXTqrKY7akZCC6PGW+iGkj7QwqnNHjr33SnQwqrrfjq1vhW08Oq2n84syYQWZt3204mZKdDCreseih0YAi302myh0LONoUVA49WU2HIetGios4i2VUxIhxYZt5bRnvc6QouS9h/Thl1DoUVMytgiJujdq1KgRU/2pMOMr2xWF2gRdfxTB3hsX92ZDS3C0q5eWsuj2f5CHwNa1LUY8twu/ljZisf7NoWWLNpffc+sZZs2rl317luvLXxxzu09UqBFxn8D8jI/iZTXmXkAAAAASUVORK5CYII=;" vertex="1" parent="1">
            <mxGeometry x="782" y="857" width="25" height="25" as="geometry" />
          </mxCell>
        </UserObject>
      </root>
    </mxGraphModel>
  </diagram>
  <diagram name="Validação de schema" id="GjP_CtnLfWP7tgh8tDcY">
    <mxGraphModel dx="3128" dy="634" grid="0" gridSize="10" guides="1" tooltips="1" connect="1" arrows="1" fold="1" page="0" pageScale="1" pageWidth="827" pageHeight="1169" math="0" shadow="0">
      <root>
        <mxCell id="CtjPmU9leggdr7zenAS0-0" />
        <mxCell id="CtjPmU9leggdr7zenAS0-1" parent="CtjPmU9leggdr7zenAS0-0" />
        <object placeholders="1" c4Name="Validação de schema" c4Type="ContainerScopeBoundary" c4Application="Valida request e response através da especificação da API" label="&lt;font style=&quot;font-size: 16px&quot;&gt;&lt;b&gt;&lt;div style=&quot;text-align: left&quot;&gt;%c4Name%&lt;/div&gt;&lt;/b&gt;&lt;/font&gt;&lt;div style=&quot;text-align: left&quot;&gt;[%c4Application%]&lt;/div&gt;" id="CtjPmU9leggdr7zenAS0-17">
          <mxCell style="rounded=1;fontSize=11;whiteSpace=wrap;html=1;dashed=1;arcSize=20;fillColor=none;strokeColor=#666666;fontColor=#333333;labelBackgroundColor=none;align=left;verticalAlign=bottom;labelBorderColor=none;spacingTop=0;spacing=10;dashPattern=8 4;metaEdit=1;rotatable=0;perimeter=rectanglePerimeter;noLabel=0;labelPadding=0;allowArrows=0;connectable=0;expand=0;recursiveResize=0;editable=1;pointerEvents=0;absoluteArcSize=1;points=[[0.25,0,0],[0.5,0,0],[0.75,0,0],[1,0.25,0],[1,0.5,0],[1,0.75,0],[0.75,1,0],[0.5,1,0],[0.25,1,0],[0,0.75,0],[0,0.5,0],[0,0.25,0]];imageAspect=1;" vertex="1" parent="CtjPmU9leggdr7zenAS0-1">
            <mxGeometry x="-614" y="850" width="631" height="388" as="geometry" />
          </mxCell>
        </object>
        <mxCell id="7ba0wQIabIUIsDikQt2j-1" value="Responsável por validar as requisições HTTP, juntamente com as respostas contra o arquivo de especificação OpenAPI" style="text;html=1;align=left;verticalAlign=middle;whiteSpace=wrap;rounded=0;fontSize=17;" vertex="1" parent="CtjPmU9leggdr7zenAS0-1">
          <mxGeometry x="-897" y="449" width="987" height="30" as="geometry" />
        </mxCell>
        <mxCell id="qKF6wnf3P_IpxgtM1Y-F-12" style="edgeStyle=orthogonalEdgeStyle;rounded=0;orthogonalLoop=1;jettySize=auto;html=1;entryX=0;entryY=0.5;entryDx=0;entryDy=0;entryPerimeter=0;" edge="1" parent="CtjPmU9leggdr7zenAS0-1" source="pAGq3lolcJ3PWXxDoxY4-0" target="uWJk3FdIwIa6B6TzxkJs-0">
          <mxGeometry relative="1" as="geometry" />
        </mxCell>
        <object placeholders="1" c4Name="Recepção de arquivos" c4Type="Container" c4Description="Recepciona arquivos de log e arquivo da especificação da API" label="&lt;font style=&quot;font-size: 16px&quot;&gt;&lt;b&gt;%c4Name%&lt;/b&gt;&lt;/font&gt;&lt;div&gt;&lt;/div&gt;&lt;br&gt;&lt;div&gt;&lt;font style=&quot;font-size: 14px&quot;&gt;&lt;font &gt;%c4Description%&lt;/font&gt;&lt;/div&gt;" id="pAGq3lolcJ3PWXxDoxY4-0">
          <mxCell style="rounded=1;whiteSpace=wrap;html=1;fontSize=11;labelBackgroundColor=none;fillColor=#23A2D9;fontColor=#ffffff;align=center;arcSize=10;strokeColor=#0E7DAD;metaEdit=1;resizable=0;points=[[0.25,0,0],[0.5,0,0],[0.75,0,0],[1,0.25,0],[1,0.5,0],[1,0.75,0],[0.75,1,0],[0.5,1,0],[0.25,1,0],[0,0.75,0],[0,0.5,0],[0,0.25,0]];" vertex="1" parent="CtjPmU9leggdr7zenAS0-1">
            <mxGeometry x="-897" y="697" width="240" height="120" as="geometry" />
          </mxCell>
        </object>
        <object placeholders="1" c4Name="Serviço de Validações" c4Type="ContainerScopeBoundary" c4Application="Serviço de Validações" label="&lt;font style=&quot;font-size: 16px&quot;&gt;&lt;b&gt;&lt;div style=&quot;text-align: left&quot;&gt;%c4Name%&lt;/div&gt;&lt;/b&gt;&lt;/font&gt;&lt;div style=&quot;text-align: left&quot;&gt;[%c4Application%]&lt;/div&gt;" id="qKF6wnf3P_IpxgtM1Y-F-0">
          <mxCell style="rounded=1;fontSize=11;whiteSpace=wrap;html=1;dashed=1;arcSize=20;fillColor=none;strokeColor=#666666;fontColor=#333333;labelBackgroundColor=none;align=left;verticalAlign=bottom;labelBorderColor=none;spacingTop=0;spacing=10;dashPattern=8 4;metaEdit=1;rotatable=0;perimeter=rectanglePerimeter;noLabel=0;labelPadding=0;allowArrows=0;connectable=0;expand=0;recursiveResize=0;editable=1;pointerEvents=0;absoluteArcSize=1;points=[[0.25,0,0],[0.5,0,0],[0.75,0,0],[1,0.25,0],[1,0.5,0],[1,0.75,0],[0.75,1,0],[0.5,1,0],[0.25,1,0],[0,0.75,0],[0,0.5,0],[0,0.25,0]];" vertex="1" parent="CtjPmU9leggdr7zenAS0-1">
            <mxGeometry x="-631" y="660" width="763" height="654" as="geometry" />
          </mxCell>
        </object>
        <mxCell id="qKF6wnf3P_IpxgtM1Y-F-1" value="Validação de Schema" style="text;html=1;align=left;verticalAlign=middle;whiteSpace=wrap;rounded=0;fontStyle=1;fontSize=19;" vertex="1" parent="CtjPmU9leggdr7zenAS0-1">
          <mxGeometry x="-897" y="424" width="294" height="30" as="geometry" />
        </mxCell>
        <mxCell id="qKF6wnf3P_IpxgtM1Y-F-8" style="edgeStyle=orthogonalEdgeStyle;rounded=0;orthogonalLoop=1;jettySize=auto;html=1;" edge="1" parent="CtjPmU9leggdr7zenAS0-1" source="qKF6wnf3P_IpxgtM1Y-F-3" target="qKF6wnf3P_IpxgtM1Y-F-4">
          <mxGeometry relative="1" as="geometry" />
        </mxCell>
        <mxCell id="qKF6wnf3P_IpxgtM1Y-F-3" value="Recepciona o objeto contendo os logs da execução do cenario de teste&amp;nbsp; e o objeto com especificação da api" style="rounded=1;whiteSpace=wrap;html=1;fillColor=#dae8fc;strokeColor=#6c8ebf;" vertex="1" parent="CtjPmU9leggdr7zenAS0-1">
          <mxGeometry x="-584" y="875" width="257" height="60" as="geometry" />
        </mxCell>
        <mxCell id="qKF6wnf3P_IpxgtM1Y-F-20" style="edgeStyle=orthogonalEdgeStyle;rounded=0;orthogonalLoop=1;jettySize=auto;html=1;entryX=0.5;entryY=0;entryDx=0;entryDy=0;curved=1;" edge="1" parent="CtjPmU9leggdr7zenAS0-1" source="qKF6wnf3P_IpxgtM1Y-F-4" target="qKF6wnf3P_IpxgtM1Y-F-5">
          <mxGeometry relative="1" as="geometry">
            <Array as="points">
              <mxPoint x="-154" y="959" />
              <mxPoint x="-458" y="959" />
            </Array>
          </mxGeometry>
        </mxCell>
        <mxCell id="qKF6wnf3P_IpxgtM1Y-F-4" value="Identifica os endpoints contidos no objeto logs" style="rounded=1;whiteSpace=wrap;html=1;fillColor=#dae8fc;strokeColor=#6c8ebf;" vertex="1" parent="CtjPmU9leggdr7zenAS0-1">
          <mxGeometry x="-283" y="875" width="257" height="60" as="geometry" />
        </mxCell>
        <mxCell id="qKF6wnf3P_IpxgtM1Y-F-17" style="edgeStyle=orthogonalEdgeStyle;rounded=0;orthogonalLoop=1;jettySize=auto;html=1;entryX=0;entryY=0.5;entryDx=0;entryDy=0;" edge="1" parent="CtjPmU9leggdr7zenAS0-1" source="qKF6wnf3P_IpxgtM1Y-F-5" target="qKF6wnf3P_IpxgtM1Y-F-6">
          <mxGeometry relative="1" as="geometry" />
        </mxCell>
        <mxCell id="qKF6wnf3P_IpxgtM1Y-F-5" value="&lt;span style=&quot;font-size: 12px;&quot;&gt;Normaliza os caminhos das requisições para corresponder aos caminhos definidos na OpenAPI.&lt;/span&gt;" style="rounded=1;whiteSpace=wrap;html=1;strokeColor=#6c8ebf;align=center;verticalAlign=middle;fontFamily=Helvetica;fontSize=12;fillColor=#dae8fc;" vertex="1" parent="CtjPmU9leggdr7zenAS0-1">
          <mxGeometry x="-587" y="986" width="257" height="60" as="geometry" />
        </mxCell>
        <mxCell id="qKF6wnf3P_IpxgtM1Y-F-19" style="edgeStyle=orthogonalEdgeStyle;rounded=0;orthogonalLoop=1;jettySize=auto;html=1;entryX=0.5;entryY=0;entryDx=0;entryDy=0;curved=1;" edge="1" parent="CtjPmU9leggdr7zenAS0-1" source="qKF6wnf3P_IpxgtM1Y-F-6" target="qKF6wnf3P_IpxgtM1Y-F-7">
          <mxGeometry relative="1" as="geometry">
            <Array as="points">
              <mxPoint x="-149" y="1073" />
              <mxPoint x="-458" y="1073" />
            </Array>
          </mxGeometry>
        </mxCell>
        <mxCell id="qKF6wnf3P_IpxgtM1Y-F-6" value="&lt;span style=&quot;font-size: 12px;&quot;&gt;Decodifica JWTs presentes nos corpos das requisições e respostas&lt;/span&gt;" style="rounded=1;whiteSpace=wrap;html=1;strokeColor=#6c8ebf;align=center;verticalAlign=middle;fontFamily=Helvetica;fontSize=12;fillColor=#dae8fc;" vertex="1" parent="CtjPmU9leggdr7zenAS0-1">
          <mxGeometry x="-278" y="986" width="257" height="60" as="geometry" />
        </mxCell>
        <mxCell id="qKF6wnf3P_IpxgtM1Y-F-14" style="edgeStyle=orthogonalEdgeStyle;rounded=0;orthogonalLoop=1;jettySize=auto;html=1;" edge="1" parent="CtjPmU9leggdr7zenAS0-1" source="qKF6wnf3P_IpxgtM1Y-F-7" target="qKF6wnf3P_IpxgtM1Y-F-13">
          <mxGeometry relative="1" as="geometry" />
        </mxCell>
        <mxCell id="qKF6wnf3P_IpxgtM1Y-F-7" value="&lt;span style=&quot;font-size: 12px;&quot;&gt;Decodifica JWTs presentes nos corpos das requisições e respostas&lt;/span&gt;" style="rounded=1;whiteSpace=wrap;html=1;strokeColor=#6c8ebf;align=center;verticalAlign=middle;fontFamily=Helvetica;fontSize=12;fillColor=#dae8fc;" vertex="1" parent="CtjPmU9leggdr7zenAS0-1">
          <mxGeometry x="-587" y="1102" width="257" height="60" as="geometry" />
        </mxCell>
        <mxCell id="qKF6wnf3P_IpxgtM1Y-F-22" style="edgeStyle=orthogonalEdgeStyle;rounded=0;orthogonalLoop=1;jettySize=auto;html=1;entryX=0.75;entryY=1;entryDx=0;entryDy=0;entryPerimeter=0;exitX=1;exitY=0.5;exitDx=0;exitDy=0;" edge="1" parent="CtjPmU9leggdr7zenAS0-1" source="qKF6wnf3P_IpxgtM1Y-F-13" target="uWJk3FdIwIa6B6TzxkJs-0">
          <mxGeometry relative="1" as="geometry">
            <mxPoint x="68" y="1132" as="targetPoint" />
          </mxGeometry>
        </mxCell>
        <mxCell id="qKF6wnf3P_IpxgtM1Y-F-13" value="&lt;span style=&quot;font-size: 12px;&quot;&gt;Gera um resumo dos resultados da validação, indicando sucesso ou falha e os erros encontrados&lt;/span&gt;" style="rounded=1;whiteSpace=wrap;html=1;strokeColor=#6c8ebf;align=center;verticalAlign=middle;fontFamily=Helvetica;fontSize=12;fillColor=#dae8fc;" vertex="1" parent="CtjPmU9leggdr7zenAS0-1">
          <mxGeometry x="-278" y="1102" width="257" height="60" as="geometry" />
        </mxCell>
        <mxCell id="qKF6wnf3P_IpxgtM1Y-F-15" value="&lt;b&gt;&lt;i&gt;Entradas:&lt;/i&gt;&lt;/b&gt;&lt;div&gt;&lt;ul&gt;&lt;li&gt;Objeto contendo o array results do log da execução do cenario de teste&lt;/li&gt;&lt;li&gt;Objeto contendo a especificação da API&lt;/li&gt;&lt;/ul&gt;&lt;span&gt;&lt;b&gt;&lt;i&gt;Saida&lt;/i&gt;&lt;/b&gt;&lt;/span&gt;&lt;/div&gt;&lt;div&gt;&lt;ul&gt;&lt;li&gt;&lt;span&gt;Objeto json com os detalhes de requisição/resposta, status (&quot;PASS&quot; ou &quot;FAIL&quot;), possiveis erros de validação, URI, método, identificador, etc.&lt;/span&gt;&lt;/li&gt;&lt;/ul&gt;&lt;/div&gt;" style="text;html=1;align=left;verticalAlign=top;whiteSpace=wrap;rounded=0;fontSize=15;" vertex="1" parent="CtjPmU9leggdr7zenAS0-1">
          <mxGeometry x="-897" y="489" width="1035" height="136" as="geometry" />
        </mxCell>
        <mxCell id="uWJk3FdIwIa6B6TzxkJs-1" style="edgeStyle=orthogonalEdgeStyle;rounded=0;orthogonalLoop=1;jettySize=auto;html=1;entryX=0.5;entryY=0;entryDx=0;entryDy=0;exitX=0.01;exitY=0.827;exitDx=0;exitDy=0;exitPerimeter=0;" edge="1" parent="CtjPmU9leggdr7zenAS0-1" source="uWJk3FdIwIa6B6TzxkJs-0" target="qKF6wnf3P_IpxgtM1Y-F-3">
          <mxGeometry relative="1" as="geometry">
            <Array as="points">
              <mxPoint x="-455" y="796" />
              <mxPoint x="-455" y="834" />
            </Array>
          </mxGeometry>
        </mxCell>
        <object placeholders="1" c4Name="Orquestrador" c4Type="Container" c4Description="Valida request e response através da especificação da API" label="&lt;font style=&quot;font-size: 16px&quot;&gt;&lt;b&gt;%c4Name%&lt;/b&gt;&lt;/font&gt;&lt;div&gt;&lt;/div&gt;&lt;br&gt;&lt;div&gt;&lt;font style=&quot;font-size: 14px&quot;&gt;&lt;font &gt;%c4Description%&lt;/font&gt;&lt;/div&gt;" id="uWJk3FdIwIa6B6TzxkJs-0">
          <mxCell style="rounded=1;whiteSpace=wrap;html=1;fontSize=11;labelBackgroundColor=none;fillColor=#23A2D9;fontColor=#ffffff;align=center;arcSize=10;strokeColor=#0E7DAD;metaEdit=1;resizable=0;points=[[0.25,0,0],[0.5,0,0],[0.75,0,0],[1,0.25,0],[1,0.5,0],[1,0.75,0],[0.75,1,0],[0.5,1,0],[0.25,1,0],[0,0.75,0],[0,0.5,0],[0,0.25,0]];verticalAlign=middle;fontFamily=Helvetica;" vertex="1" parent="CtjPmU9leggdr7zenAS0-1">
            <mxGeometry x="-127" y="697" width="240" height="120" as="geometry" />
          </mxCell>
        </object>
        <object placeholders="1" c4Name="Serviço de Relatório" c4Type="Container" c4Description="Monta relatório com todos os pontos de validações executados e exporta para o formato CSV" label="&lt;font style=&quot;font-size: 16px&quot;&gt;&lt;b&gt;%c4Name%&lt;/b&gt;&lt;/font&gt;&lt;div&gt;&lt;/div&gt;&lt;br&gt;&lt;div&gt;&lt;font style=&quot;font-size: 14px&quot;&gt;&lt;font &gt;%c4Description%&lt;/font&gt;&lt;/div&gt;" id="YjQ_nki5dzRK-zu6MS7M-1">
          <mxCell style="rounded=1;whiteSpace=wrap;html=1;fontSize=11;labelBackgroundColor=none;fillColor=#23A2D9;fontColor=#ffffff;align=center;arcSize=10;strokeColor=#0E7DAD;metaEdit=1;resizable=0;points=[[0.25,0,0],[0.5,0,0],[0.75,0,0],[1,0.25,0],[1,0.5,0],[1,0.75,0],[0.75,1,0],[0.5,1,0],[0.25,1,0],[0,0.75,0],[0,0.5,0],[0,0.25,0]];" vertex="1" parent="CtjPmU9leggdr7zenAS0-1">
            <mxGeometry x="174" y="697" width="240" height="120" as="geometry" />
          </mxCell>
        </object>
        <mxCell id="YjQ_nki5dzRK-zu6MS7M-3" style="edgeStyle=orthogonalEdgeStyle;rounded=0;orthogonalLoop=1;jettySize=auto;html=1;entryX=0;entryY=0.5;entryDx=0;entryDy=0;entryPerimeter=0;" edge="1" parent="CtjPmU9leggdr7zenAS0-1" source="uWJk3FdIwIa6B6TzxkJs-0" target="YjQ_nki5dzRK-zu6MS7M-1">
          <mxGeometry relative="1" as="geometry" />
        </mxCell>
        <UserObject label="Voltar" link="data:page/id,dEd_5x-Dby5oJ5JY3EwZ" id="KkzLzVtr4jOGxQ082m3K-0">
          <mxCell style="rounded=1;whiteSpace=wrap;html=1;fontStyle=1;" vertex="1" parent="CtjPmU9leggdr7zenAS0-1">
            <mxGeometry x="-821.5" y="1331" width="143" height="41" as="geometry" />
          </mxCell>
        </UserObject>
        <UserObject label="" link="data:page/id,dEd_5x-Dby5oJ5JY3EwZ" id="KkzLzVtr4jOGxQ082m3K-1">
          <mxCell style="html=1;verticalLabelPosition=bottom;align=center;labelBackgroundColor=#ffffff;verticalAlign=top;strokeWidth=2;strokeColor=#0080F0;shadow=0;dashed=0;shape=mxgraph.ios7.icons.back;" vertex="1" parent="CtjPmU9leggdr7zenAS0-1">
            <mxGeometry x="-814.5" y="1338.75" width="30" height="25.5" as="geometry" />
          </mxCell>
        </UserObject>
      </root>
    </mxGraphModel>
  </diagram>
  <diagram name="Validação de sequencia" id="3QteBEmTiDwL6ACKbh2g">
    <mxGraphModel dx="2839" dy="879" grid="0" gridSize="10" guides="1" tooltips="1" connect="1" arrows="1" fold="1" page="0" pageScale="1" pageWidth="827" pageHeight="1169" math="0" shadow="0">
      <root>
        <mxCell id="UaN2xintX6bw4i2FGhXW-0" />
        <mxCell id="UaN2xintX6bw4i2FGhXW-1" parent="UaN2xintX6bw4i2FGhXW-0" />
        <mxCell id="UaN2xintX6bw4i2FGhXW-3" value="Responsável por validar a sequencia das etapas no sumario do cenario de teste e confrontar com a sequencia das execuções realizadas no log" style="text;html=1;align=left;verticalAlign=middle;whiteSpace=wrap;rounded=0;fontSize=15;" parent="UaN2xintX6bw4i2FGhXW-1" vertex="1">
          <mxGeometry x="-924" y="232" width="991" height="30" as="geometry" />
        </mxCell>
        <mxCell id="UaN2xintX6bw4i2FGhXW-7" value="Validação de Sequencia" style="text;html=1;align=left;verticalAlign=middle;whiteSpace=wrap;rounded=0;fontStyle=1;fontSize=19;" parent="UaN2xintX6bw4i2FGhXW-1" vertex="1">
          <mxGeometry x="-922" y="209" width="294" height="30" as="geometry" />
        </mxCell>
        <mxCell id="UaN2xintX6bw4i2FGhXW-20" value="&lt;b&gt;&lt;i&gt;Entradas:&lt;/i&gt;&lt;/b&gt;&lt;div&gt;&lt;ul&gt;&lt;li&gt;&lt;p&gt;Objeto contendo a lista de &lt;code&gt;expected_steps&lt;/code&gt; (passos esperados) extraída e normalizada do &lt;code&gt;summary&lt;/code&gt; do teste.&lt;/p&gt;&lt;/li&gt;&lt;li&gt;&lt;p&gt;Objeto contendo a lista de &lt;code&gt;actual_calls&lt;/code&gt; (chamadas de API reais) extraída e normalizada do array &lt;code&gt;results&lt;/code&gt;.&lt;/p&gt;&lt;/li&gt;&lt;/ul&gt;&lt;span&gt;&lt;b&gt;&lt;i&gt;Saida&lt;/i&gt;&lt;/b&gt;&lt;/span&gt;&lt;/div&gt;&lt;div&gt;&lt;ul&gt;&lt;li&gt;&lt;span&gt;&lt;p&gt;Objeto JSON com a análise completa da sequência, detalhando cada passo esperado e identificando chamadas inesperadas. A estrutura seria uma lista de objetos, onde cada objeto representa um passo e contém:&lt;/p&gt;&lt;ul&gt;&lt;li&gt;&lt;p&gt;&lt;code&gt;step_description&lt;/code&gt;: Descrição do passo (ex: &quot;POST consents&quot;).&lt;/p&gt;&lt;/li&gt;&lt;li&gt;&lt;p&gt;&lt;code&gt;status&lt;/code&gt;: O resultado da validação de sequência para aquele passo, que pode ser:&lt;/p&gt;&lt;ul&gt;&lt;li&gt;&lt;p&gt;&lt;code&gt;&quot;FOUND&quot;&lt;/code&gt;: A chamada foi encontrada na ordem correta.&lt;/p&gt;&lt;/li&gt;&lt;li&gt;&lt;p&gt;&lt;code&gt;&quot;OUT_OF_ORDER&quot;&lt;/code&gt;: A chamada foi encontrada, mas fora da sequência esperada.&lt;/p&gt;&lt;/li&gt;&lt;li&gt;&lt;p&gt;&lt;code&gt;&quot;MISSING&quot;&lt;/code&gt;: A chamada esperada não foi encontrada nos logs.&lt;/p&gt;&lt;/li&gt;&lt;li&gt;&lt;p&gt;&lt;code&gt;&quot;UNEXPECTED&quot;&lt;/code&gt;: Uma chamada real foi encontrada nos logs, mas não era esperada naquele ponto da sequência.&lt;/p&gt;&lt;/li&gt;&lt;/ul&gt;&lt;/li&gt;&lt;li&gt;&lt;p&gt;&lt;code&gt;details&lt;/code&gt;: Uma mensagem explicativa (ex: &quot;Chamada encontrada na posição correta&quot;, &quot;Esperado na posição 3, mas encontrado na posição 2&quot;, &quot;Chamada não esperada encontrada&quot;).&lt;/p&gt;&lt;/li&gt;&lt;li&gt;&lt;p&gt;&lt;code&gt;uri&lt;/code&gt;: O URI da chamada.&lt;/p&gt;&lt;/li&gt;&lt;li&gt;&lt;p&gt;&lt;code&gt;method&lt;/code&gt;: O método HTTP da chamada.&lt;/p&gt;&lt;/li&gt;&lt;/ul&gt;&lt;/span&gt;&lt;/li&gt;&lt;/ul&gt;&lt;/div&gt;" style="text;html=1;align=left;verticalAlign=top;whiteSpace=wrap;rounded=0;fontSize=14;" parent="UaN2xintX6bw4i2FGhXW-1" vertex="1">
          <mxGeometry x="-924" y="481" width="1124" height="392" as="geometry" />
        </mxCell>
        <mxCell id="UKkPyKN1hSkmL0wJqyqK-0" value="&lt;b&gt;Como faremos&lt;/b&gt;&lt;div&gt;&lt;ul&gt;&lt;li&gt;&lt;p&gt;Iremos iterar pela lista de &lt;code&gt;&quot;expected steps&quot;&lt;/code&gt; que extraímos do &lt;code&gt;summary&lt;/code&gt;.&lt;/p&gt;&lt;/li&gt;&lt;li&gt;&lt;p&gt;Para cada &lt;code&gt;API call&lt;/code&gt; esperada (ex: &lt;code&gt;POST /consents&lt;/code&gt;), iremos procurá-la na lista de &lt;code&gt;&quot;actual calls&quot;&lt;/code&gt;.&lt;/p&gt;&lt;/li&gt;&lt;li&gt;&lt;p&gt;Manteremos o registro da última posição encontrada na lista de chamadas reais. A próxima chamada esperada deve ser encontrada &lt;i&gt;após&lt;/i&gt; essa posição. Se a encontrarmos antes, iremos marcá-la como &lt;code&gt;out-of-order&lt;/code&gt;.&lt;/p&gt;&lt;/li&gt;&lt;li&gt;&lt;p&gt;Se não conseguirmos encontrar uma chamada esperada, iremos marcá-la como &lt;code&gt;missing&lt;/code&gt;.&lt;/p&gt;&lt;/li&gt;&lt;li&gt;&lt;p&gt;Por outro lado, quaisquer &lt;code&gt;API calls&lt;/code&gt; reais que não correspondam a um passo esperado serão sinalizadas como &lt;code&gt;unexpected&lt;/code&gt;.&lt;/p&gt;&lt;/li&gt;&lt;/ul&gt;&lt;p&gt;&lt;/p&gt;&lt;h3&gt;&lt;/h3&gt;&lt;/div&gt;" style="text;html=1;align=left;verticalAlign=top;whiteSpace=wrap;rounded=0;fontSize=14;" parent="UaN2xintX6bw4i2FGhXW-1" vertex="1">
          <mxGeometry x="-920" y="274" width="1102" height="103" as="geometry" />
        </mxCell>
        <UserObject label="Voltar" link="data:page/id,dEd_5x-Dby5oJ5JY3EwZ" id="uCe28JxqzKzh5KfvxQqr-0">
          <mxCell style="rounded=1;whiteSpace=wrap;html=1;fontStyle=1;" parent="UaN2xintX6bw4i2FGhXW-1" vertex="1">
            <mxGeometry x="-900" y="988" width="143" height="41" as="geometry" />
          </mxCell>
        </UserObject>
        <UserObject label="" link="data:page/id,dEd_5x-Dby5oJ5JY3EwZ" id="uCe28JxqzKzh5KfvxQqr-1">
          <mxCell style="html=1;verticalLabelPosition=bottom;align=center;labelBackgroundColor=#ffffff;verticalAlign=top;strokeWidth=2;strokeColor=#0080F0;shadow=0;dashed=0;shape=mxgraph.ios7.icons.back;" parent="UaN2xintX6bw4i2FGhXW-1" vertex="1">
            <mxGeometry x="-893" y="995.75" width="30" height="25.5" as="geometry" />
          </mxCell>
        </UserObject>
      </root>
    </mxGraphModel>
  </diagram>
  <diagram name="Validação de Status code" id="EQgmJDx0UmEzZQA2SyTF">
    <mxGraphModel dx="2839" dy="879" grid="0" gridSize="10" guides="1" tooltips="1" connect="1" arrows="1" fold="1" page="0" pageScale="1" pageWidth="827" pageHeight="1169" math="0" shadow="0">
      <root>
        <mxCell id="VdsYs1fOvikS0rzM6jZ4-0" />
        <mxCell id="VdsYs1fOvikS0rzM6jZ4-1" parent="VdsYs1fOvikS0rzM6jZ4-0" />
        <mxCell id="VdsYs1fOvikS0rzM6jZ4-3" value="Responsável por verificar se cada API call retorna o HTTP status correto" style="text;html=1;align=left;verticalAlign=middle;whiteSpace=wrap;rounded=0;fontSize=15;" vertex="1" parent="VdsYs1fOvikS0rzM6jZ4-1">
          <mxGeometry x="-897" y="277" width="821" height="30" as="geometry" />
        </mxCell>
        <mxCell id="VdsYs1fOvikS0rzM6jZ4-7" value="Validação de Sequencia" style="text;html=1;align=left;verticalAlign=middle;whiteSpace=wrap;rounded=0;fontStyle=1;fontSize=19;" vertex="1" parent="VdsYs1fOvikS0rzM6jZ4-1">
          <mxGeometry x="-897" y="240" width="294" height="30" as="geometry" />
        </mxCell>
        <mxCell id="VdsYs1fOvikS0rzM6jZ4-20" value="&lt;b&gt;&lt;i&gt;Entradas:&lt;/i&gt;&lt;/b&gt;&lt;div&gt;&lt;ul&gt;&lt;li&gt;&lt;p&gt;Objeto contendo a lista de &lt;code&gt;expected_steps&lt;/code&gt; extraída do &lt;code&gt;summary&lt;/code&gt;.&lt;/p&gt;&lt;/li&gt;&lt;li&gt;&lt;p&gt;Objeto contendo a lista de &lt;code&gt;actual_calls&lt;/code&gt; (pares de &lt;code&gt;request&lt;/code&gt;/&lt;code&gt;response&lt;/code&gt;) extraída dos &lt;code&gt;results&lt;/code&gt;.&lt;/p&gt;&lt;/li&gt;&lt;/ul&gt;&lt;span style=&quot;font-size: 12px;&quot;&gt;&lt;b&gt;&lt;i&gt;Saida&lt;/i&gt;&lt;/b&gt;&lt;/span&gt;&lt;/div&gt;&lt;div&gt;&lt;ul&gt;&lt;li&gt;&lt;p&gt;Objeto JSON (ou uma lista de objetos) detalhando cada &lt;code&gt;API call&lt;/code&gt; validada. Cada item conteria:&lt;/p&gt;&lt;ul&gt;&lt;li&gt;&lt;p&gt;&lt;code&gt;step_description&lt;/code&gt;: Descrição do passo (ex: &quot;GET consents/{}&quot;).&lt;/p&gt;&lt;/li&gt;&lt;li&gt;&lt;p&gt;&lt;code&gt;expected_status&lt;/code&gt;: O código de status esperado (ex: 201).&lt;/p&gt;&lt;/li&gt;&lt;li&gt;&lt;p&gt;&lt;code&gt;actual_status&lt;/code&gt;: O código de status recebido (ex: 200).&lt;/p&gt;&lt;/li&gt;&lt;li&gt;&lt;p&gt;&lt;code&gt;status&lt;/code&gt;: &quot;PASS&quot; ou &quot;FAIL&quot;.&lt;/p&gt;&lt;/li&gt;&lt;li&gt;&lt;p&gt;&lt;code&gt;details&lt;/code&gt;: Mensagem adicional em caso de falha (ex: &quot;Status Mismatch&quot;).&lt;/p&gt;&lt;/li&gt;&lt;/ul&gt;&lt;/li&gt;&lt;/ul&gt;&lt;/div&gt;" style="text;html=1;align=left;verticalAlign=top;whiteSpace=wrap;rounded=0;" vertex="1" parent="VdsYs1fOvikS0rzM6jZ4-1">
          <mxGeometry x="-893" y="441" width="772" height="136" as="geometry" />
        </mxCell>
        <mxCell id="haZUBKVGy20YPm0VPCuM-0" value="&lt;b&gt;Como faremos&lt;/b&gt;&lt;div&gt;&lt;ul&gt;&lt;li&gt;&lt;span style=&quot;background-color: transparent; color: light-dark(rgb(0, 0, 0), rgb(255, 255, 255));&quot;&gt;O &lt;/span&gt;&lt;code style=&quot;background-color: transparent; color: light-dark(rgb(0, 0, 0), rgb(255, 255, 255));&quot;&gt;summary&lt;/code&gt;&lt;span style=&quot;background-color: transparent; color: light-dark(rgb(0, 0, 0), rgb(255, 255, 255));&quot;&gt; muitas vezes declara explicitamente o status esperado (ex: &lt;/span&gt;&lt;code style=&quot;background-color: transparent; color: light-dark(rgb(0, 0, 0), rgb(255, 255, 255));&quot;&gt;&quot;Expect 201&quot;&lt;/code&gt;&lt;span style=&quot;background-color: transparent; color: light-dark(rgb(0, 0, 0), rgb(255, 255, 255));&quot;&gt;). Nosso &lt;/span&gt;&lt;code style=&quot;background-color: transparent; color: light-dark(rgb(0, 0, 0), rgb(255, 255, 255));&quot;&gt;parser&lt;/code&gt;&lt;span style=&quot;background-color: transparent; color: light-dark(rgb(0, 0, 0), rgb(255, 255, 255));&quot;&gt; já extrai isso.&lt;/span&gt;&lt;/li&gt;&lt;li&gt;&lt;span style=&quot;background-color: transparent; color: light-dark(rgb(0, 0, 0), rgb(255, 255, 255));&quot;&gt;Quando correspondermos um passo esperado a uma &lt;/span&gt;&lt;code style=&quot;background-color: transparent; color: light-dark(rgb(0, 0, 0), rgb(255, 255, 255));&quot;&gt;API call&lt;/code&gt;&lt;span style=&quot;background-color: transparent; color: light-dark(rgb(0, 0, 0), rgb(255, 255, 255));&quot;&gt; real, simplesmente compararemos o &lt;/span&gt;&lt;code style=&quot;background-color: transparent; color: light-dark(rgb(0, 0, 0), rgb(255, 255, 255));&quot;&gt;expected_status_code&lt;/code&gt;&lt;span style=&quot;background-color: transparent; color: light-dark(rgb(0, 0, 0), rgb(255, 255, 255));&quot;&gt; com o &lt;/span&gt;&lt;code style=&quot;background-color: transparent; color: light-dark(rgb(0, 0, 0), rgb(255, 255, 255));&quot;&gt;received_status_code&lt;/code&gt;&lt;span style=&quot;background-color: transparent; color: light-dark(rgb(0, 0, 0), rgb(255, 255, 255));&quot;&gt;.&lt;/span&gt;&lt;/li&gt;&lt;li&gt;&lt;span style=&quot;background-color: transparent; color: light-dark(rgb(0, 0, 0), rgb(255, 255, 255));&quot;&gt;Quaisquer diferenças serão destacadas no relatório final como um &lt;/span&gt;&lt;code style=&quot;background-color: transparent; color: light-dark(rgb(0, 0, 0), rgb(255, 255, 255));&quot;&gt;status mismatch&lt;/code&gt;&lt;span style=&quot;background-color: transparent; color: light-dark(rgb(0, 0, 0), rgb(255, 255, 255));&quot;&gt;.&lt;/span&gt;&lt;/li&gt;&lt;/ul&gt;&lt;p&gt;&lt;/p&gt;&lt;h3&gt;&lt;/h3&gt;&lt;/div&gt;" style="text;html=1;align=left;verticalAlign=top;whiteSpace=wrap;rounded=0;" vertex="1" parent="VdsYs1fOvikS0rzM6jZ4-1">
          <mxGeometry x="-893" y="319" width="1138" height="103" as="geometry" />
        </mxCell>
        <UserObject label="Voltar" link="data:page/id,dEd_5x-Dby5oJ5JY3EwZ" id="P9EnqxwBj_t9NqJh8MRP-0">
          <mxCell style="rounded=1;whiteSpace=wrap;html=1;fontStyle=1;" vertex="1" parent="VdsYs1fOvikS0rzM6jZ4-1">
            <mxGeometry x="-897" y="759" width="143" height="41" as="geometry" />
          </mxCell>
        </UserObject>
        <UserObject label="" link="data:page/id,dEd_5x-Dby5oJ5JY3EwZ" id="P9EnqxwBj_t9NqJh8MRP-1">
          <mxCell style="html=1;verticalLabelPosition=bottom;align=center;labelBackgroundColor=#ffffff;verticalAlign=top;strokeWidth=2;strokeColor=#0080F0;shadow=0;dashed=0;shape=mxgraph.ios7.icons.back;" vertex="1" parent="VdsYs1fOvikS0rzM6jZ4-1">
            <mxGeometry x="-890" y="766.75" width="30" height="25.5" as="geometry" />
          </mxCell>
        </UserObject>
      </root>
    </mxGraphModel>
  </diagram>
  <diagram name="Validação de Regras de negocio" id="ZDgUGs8557kluPzGpwOa">
    <mxGraphModel dx="2839" dy="879" grid="0" gridSize="10" guides="1" tooltips="1" connect="1" arrows="1" fold="1" page="0" pageScale="1" pageWidth="827" pageHeight="1169" math="0" shadow="0">
      <root>
        <mxCell id="0B3xOXURppiur8LZOhdW-0" />
        <mxCell id="0B3xOXURppiur8LZOhdW-1" parent="0B3xOXURppiur8LZOhdW-0" />
        <mxCell id="0B3xOXURppiur8LZOhdW-2" value=" Confirmar que regras de negócio específicas e checagens de integridade de dados são aprovadas. Esta é a parte mais detalhada e envolve algumas peças móveis." style="text;html=1;align=left;verticalAlign=middle;whiteSpace=wrap;rounded=0;fontSize=15;" vertex="1" parent="0B3xOXURppiur8LZOhdW-1">
          <mxGeometry x="-897" y="277" width="821" height="30" as="geometry" />
        </mxCell>
        <mxCell id="0B3xOXURppiur8LZOhdW-3" value="Validação de Sequencia" style="text;html=1;align=left;verticalAlign=middle;whiteSpace=wrap;rounded=0;fontStyle=1;fontSize=19;" vertex="1" parent="0B3xOXURppiur8LZOhdW-1">
          <mxGeometry x="-897" y="240" width="294" height="30" as="geometry" />
        </mxCell>
        <mxCell id="0B3xOXURppiur8LZOhdW-4" value="&lt;b&gt;&lt;i&gt;Entradas:&lt;/i&gt;&lt;/b&gt;&lt;div&gt;&lt;ul&gt;&lt;li&gt;&lt;p&gt;Objeto contendo a lista de &lt;code&gt;expected_steps&lt;/code&gt; (que inclui as regras de negócio e os campos a serem recuperados).&lt;/p&gt;&lt;/li&gt;&lt;li&gt;&lt;p&gt;Objeto contendo a lista de &lt;code&gt;actual_calls&lt;/code&gt; com os &lt;code&gt;bodies&lt;/code&gt; de &lt;code&gt;request&lt;/code&gt; e &lt;code&gt;response&lt;/code&gt; (já decodificados).&lt;/p&gt;&lt;/li&gt;&lt;li&gt;&lt;p&gt;&lt;i&gt;(Opcional, para validação de schema)&lt;/i&gt; Objeto contendo a especificação da API (ex: um arquivo OpenAPI/Swagger).&lt;/p&gt;&lt;/li&gt;&lt;/ul&gt;&lt;span style=&quot;font-size: 12px;&quot;&gt;&lt;b&gt;&lt;i&gt;Saida&lt;/i&gt;&lt;/b&gt;&lt;/span&gt;&lt;/div&gt;&lt;div&gt;&lt;ul&gt;&lt;li&gt;&lt;p&gt;Objeto JSON com os resultados da validação para cada regra de negócio. Cada item poderia conter:&lt;/p&gt;&lt;ul&gt;&lt;li&gt;&lt;p&gt;&lt;code&gt;step_description&lt;/code&gt;: Descrição do passo de negócio (ex: &quot;Ensure status is AUTHORISED&quot;).&lt;/p&gt;&lt;/li&gt;&lt;li&gt;&lt;p&gt;&lt;code&gt;validation_type&lt;/code&gt;: Tipo de validação (ex: &quot;FieldValueCheck&quot;, &quot;SchemaValidation&quot;, &quot;ValueRetrieval&quot;).&lt;/p&gt;&lt;/li&gt;&lt;li&gt;&lt;p&gt;&lt;code&gt;status&lt;/code&gt;: &quot;PASS&quot;, &quot;FAIL&quot;, ou &quot;INFO&quot; (para recuperação de valores).&lt;/p&gt;&lt;/li&gt;&lt;li&gt;&lt;p&gt;&lt;code&gt;details&lt;/code&gt;: Um objeto com informações relevantes:&lt;/p&gt;&lt;ul&gt;&lt;li&gt;&lt;p&gt;Para checagem de campo: &lt;code&gt;{ &quot;expected&quot;: &quot;AUTHORISED&quot;, &quot;actual&quot;: &quot;AUTHORISED&quot; }&lt;/code&gt;.&lt;/p&gt;&lt;/li&gt;&lt;li&gt;&lt;p&gt;Para recuperação de valor: &lt;code&gt;{ &quot;retrieved_field&quot;: &quot;dueInstalments&quot;, &quot;value&quot;: 727 }&lt;/code&gt;.&lt;/p&gt;&lt;/li&gt;&lt;li&gt;&lt;p&gt;Para validação de schema: &lt;code&gt;{ &quot;endpoint&quot;: &quot;/consents/v2/consents&quot;, &quot;errors&quot;: [...] }&lt;/code&gt; (lista de erros de schema, se houver).&lt;/p&gt;&lt;/li&gt;&lt;/ul&gt;&lt;/li&gt;&lt;/ul&gt;&lt;/li&gt;&lt;/ul&gt;&lt;/div&gt;" style="text;html=1;align=left;verticalAlign=top;whiteSpace=wrap;rounded=0;" vertex="1" parent="0B3xOXURppiur8LZOhdW-1">
          <mxGeometry x="-897" y="552" width="1122" height="136" as="geometry" />
        </mxCell>
        <mxCell id="0B3xOXURppiur8LZOhdW-5" value="&lt;b&gt;Como faremos&lt;/b&gt;&lt;div&gt;&lt;ul&gt;&lt;li&gt;&lt;p&gt;&lt;b&gt;Recuperando Valores (&lt;code&gt;Retrieving Values&lt;/code&gt;)&lt;/b&gt;: Para passos como &lt;code&gt;&quot;Retrieve contractIds&quot;&lt;/code&gt; ou &lt;code&gt;&quot;Retrieve dueInstalments&quot;&lt;/code&gt;, o script encontrará a &lt;code&gt;API response&lt;/code&gt; real correspondente, analisará seu &lt;code&gt;body&lt;/code&gt; (lidando com JWTs se necessário) e armazenará o valor solicitado (ex: &lt;code&gt;dueInstalments: 727&lt;/code&gt;) em um dicionário para uso posterior.&lt;/p&gt;&lt;/li&gt;&lt;li&gt;&lt;p&gt;&lt;b&gt;Aplicando Validações (&lt;code&gt;Applying Validations&lt;/code&gt;)&lt;/b&gt;: Para passos como &lt;code&gt;&quot;ensure status is AUTHORISED&quot;&lt;/code&gt;, o script procurará dentro do &lt;code&gt;response body&lt;/code&gt; da &lt;code&gt;API call&lt;/code&gt; correspondente por um campo &lt;code&gt;status&lt;/code&gt; e verificará se seu valor é &lt;code&gt;AUTHORISED&lt;/code&gt;.&lt;/p&gt;&lt;/li&gt;&lt;li&gt;&lt;p&gt;&lt;b&gt;Usando Valores Recuperados (&lt;code&gt;Using Retrieved Values&lt;/code&gt;)&lt;/b&gt;: Quando uma validação posterior precisar de um valor armazenado (ex: comparar um valor de pagamento com o &lt;code&gt;contractOutstandingBalance&lt;/code&gt; que recuperamos anteriormente), o script buscará esse valor do nosso dicionário para realizar a verificação.&lt;/p&gt;&lt;/li&gt;&lt;li&gt;&lt;p&gt;&lt;b&gt;Validações Embutidas no Log (&lt;code&gt;Log-Embedded Validations&lt;/code&gt;)&lt;/b&gt;: Também vamos escanear o log em busca de entradas que contenham chaves &lt;code&gt;expected_...&lt;/code&gt; e &lt;code&gt;actual_...&lt;/code&gt;. Podemos corresponder o campo &lt;code&gt;msg&lt;/code&gt; dessas entradas com as descrições do &lt;code&gt;summary&lt;/code&gt; para vinculá-las ao passo correto e relatar se passaram ou falharam.&lt;/p&gt;&lt;/li&gt;&lt;/ul&gt;&lt;p&gt;&lt;/p&gt;&lt;h3&gt;&lt;/h3&gt;&lt;/div&gt;" style="text;html=1;align=left;verticalAlign=middle;whiteSpace=wrap;rounded=0;" vertex="1" parent="0B3xOXURppiur8LZOhdW-1">
          <mxGeometry x="-897" y="422" width="1138" height="30" as="geometry" />
        </mxCell>
        <UserObject label="Voltar" link="data:page/id,dEd_5x-Dby5oJ5JY3EwZ" id="NrD-IbNAMhNccv4WSJ2R-0">
          <mxCell style="rounded=1;whiteSpace=wrap;html=1;fontStyle=1;" vertex="1" parent="0B3xOXURppiur8LZOhdW-1">
            <mxGeometry x="-897" y="959" width="143" height="41" as="geometry" />
          </mxCell>
        </UserObject>
        <UserObject label="" link="data:page/id,dEd_5x-Dby5oJ5JY3EwZ" id="NrD-IbNAMhNccv4WSJ2R-1">
          <mxCell style="html=1;verticalLabelPosition=bottom;align=center;labelBackgroundColor=#ffffff;verticalAlign=top;strokeWidth=2;strokeColor=#0080F0;shadow=0;dashed=0;shape=mxgraph.ios7.icons.back;" vertex="1" parent="0B3xOXURppiur8LZOhdW-1">
            <mxGeometry x="-890" y="966.75" width="30" height="25.5" as="geometry" />
          </mxCell>
        </UserObject>
      </root>
    </mxGraphModel>
  </diagram>
</mxfile>
